M48
; DRILL file {KiCad (6.0.0)} date Sun Jun 12 01:08:43 2022
; FORMAT={-:-/ absolute / metric / decimal}
; #@! TF.CreationDate,2022-06-12T01:08:43-04:00
; #@! TF.GenerationSoftware,Kicad,Pcbnew,(6.0.0)
; #@! TF.FileFunction,Plated,1,2,PTH
FMAT,2
METRIC
; #@! TA.AperFunction,Plated,PTH,ViaDrill
T1C0.330
; #@! TA.AperFunction,Plated,PTH,ComponentDrill
T2C0.787
; #@! TA.AperFunction,Plated,PTH,ComponentDrill
T3C0.900
; #@! TA.AperFunction,Plated,PTH,ComponentDrill
T4C1.001
; #@! TA.AperFunction,Plated,PTH,ComponentDrill
T5C1.020
; #@! TA.AperFunction,Plated,PTH,ComponentDrill
T6C1.067
%
G90
G05
T1
X101.6Y-82.804
X101.6Y-165.1
X111.76Y-27.178
X114.046Y-39.878
X114.3Y-27.178
X128.524Y-39.116
X135.618Y-61.468
X135.89Y-76.962
X137.922Y-90.424
X138.684Y-76.962
T2
X136.314Y-30.22
X136.314Y-32.761
X136.314Y-35.3
X136.314Y-160.02
X136.314Y-162.56
X136.314Y-165.1
T3
X106.328Y-114.081
X106.328Y-119.081
X106.328Y-130.844
X106.328Y-135.844
X112.328Y-114.081
X112.328Y-119.081
X112.328Y-130.844
X112.328Y-135.844
X118.828Y-105.698
X118.828Y-110.698
X118.828Y-122.462
X118.828Y-127.462
X118.828Y-139.226
X118.828Y-144.226
X124.828Y-105.698
X124.828Y-110.698
X124.828Y-122.462
X124.828Y-127.462
X124.828Y-139.226
X124.828Y-144.226
X131.328Y-114.081
X131.328Y-119.081
X131.328Y-130.844
X131.328Y-135.844
X131.328Y-143.036
X131.328Y-148.036
X137.328Y-114.081
X137.328Y-119.081
X137.328Y-130.844
X137.328Y-135.844
X137.328Y-143.036
X137.328Y-148.036
T4
X114.208Y-72.638
X114.208Y-75.178
X114.208Y-77.718
X114.208Y-80.258
X114.208Y-82.798
X114.208Y-85.338
X129.448Y-72.638
X129.448Y-77.718
X129.448Y-80.258
X129.448Y-82.798
X129.448Y-85.338
X129.448Y-87.879
X129.448Y-90.418
T5
X104.161Y-31.559
X106.701Y-31.559
X109.241Y-31.559
X111.781Y-31.559
X114.321Y-31.559
X116.861Y-31.559
X119.401Y-31.559
X121.941Y-31.559
X124.481Y-31.559
X127.021Y-31.559
T6
X107.434Y-162.554
X127.932Y-162.554
T0
M30
