%TF.GenerationSoftware,KiCad,Pcbnew,(6.0.0)*%
%TF.CreationDate,2022-06-12T01:08:41-04:00*%
%TF.ProjectId,8 Seg Design Tool,38205365-6720-4446-9573-69676e20546f,v01*%
%TF.SameCoordinates,Original*%
%TF.FileFunction,Soldermask,Bot*%
%TF.FilePolarity,Negative*%
%FSLAX46Y46*%
G04 Gerber Fmt 4.6, Leading zero omitted, Abs format (unit mm)*
G04 Created by KiCad (PCBNEW (6.0.0)) date 2022-06-12 01:08:41*
%MOMM*%
%LPD*%
G01*
G04 APERTURE LIST*
G04 Aperture macros list*
%AMRoundRect*
0 Rectangle with rounded corners*
0 $1 Rounding radius*
0 $2 $3 $4 $5 $6 $7 $8 $9 X,Y pos of 4 corners*
0 Add a 4 corners polygon primitive as box body*
4,1,4,$2,$3,$4,$5,$6,$7,$8,$9,$2,$3,0*
0 Add four circle primitives for the rounded corners*
1,1,$1+$1,$2,$3*
1,1,$1+$1,$4,$5*
1,1,$1+$1,$6,$7*
1,1,$1+$1,$8,$9*
0 Add four rect primitives between the rounded corners*
20,1,$1+$1,$2,$3,$4,$5,0*
20,1,$1+$1,$4,$5,$6,$7,0*
20,1,$1+$1,$6,$7,$8,$9,0*
20,1,$1+$1,$8,$9,$2,$3,0*%
G04 Aperture macros list end*
%ADD10C,1.883600*%
%ADD11C,1.763600*%
%ADD12RoundRect,0.050800X0.914400X-0.914400X0.914400X0.914400X-0.914400X0.914400X-0.914400X-0.914400X0*%
%ADD13C,1.930400*%
%ADD14C,1.861820*%
%ADD15C,0.889000*%
%ADD16C,1.651000*%
G04 APERTURE END LIST*
D10*
X104161389Y-31559500D03*
X106701389Y-31559500D03*
X109241389Y-31559500D03*
X111781389Y-31559500D03*
X114321389Y-31559500D03*
X116861389Y-31559500D03*
X119401389Y-31559500D03*
X121941389Y-31559500D03*
X124481389Y-31559500D03*
X127021389Y-31559500D03*
D11*
X106327914Y-119080500D03*
X106327914Y-114080500D03*
X112327914Y-119080500D03*
X112327914Y-114080500D03*
X118827952Y-127462500D03*
X118827952Y-122462500D03*
X124827952Y-127462500D03*
X124827952Y-122462500D03*
D12*
X127931799Y-162554488D03*
D13*
X107433999Y-162554488D03*
D14*
X114207889Y-72638500D03*
X114207889Y-75178500D03*
X114207889Y-77718500D03*
X114207889Y-80258500D03*
X114207889Y-82798500D03*
X114207889Y-85338500D03*
X129447889Y-90418500D03*
X129447889Y-87878500D03*
X129447889Y-85338500D03*
X129447889Y-82798500D03*
X129447889Y-80258500D03*
X129447889Y-77718500D03*
X129447889Y-72638500D03*
D11*
X118827952Y-144226500D03*
X118827952Y-139226500D03*
X124827952Y-144226500D03*
X124827952Y-139226500D03*
X131327864Y-135844500D03*
X131327864Y-130844500D03*
X137327864Y-135844500D03*
X137327864Y-130844500D03*
X131327864Y-148036500D03*
X131327864Y-143036500D03*
X137327864Y-148036500D03*
X137327864Y-143036500D03*
D15*
X136313788Y-167640000D03*
X138853788Y-157480000D03*
X138853788Y-167640000D03*
X136313788Y-157480000D03*
D16*
X136313788Y-160020000D03*
X136313788Y-162560000D03*
X136313788Y-165100000D03*
D11*
X131327864Y-119080500D03*
X131327864Y-114080500D03*
X137327864Y-119080500D03*
X137327864Y-114080500D03*
D15*
X136313788Y-37840500D03*
X138853788Y-27680500D03*
X138853788Y-37840500D03*
X136313788Y-27680500D03*
D16*
X136313788Y-30220500D03*
X136313788Y-32760500D03*
X136313788Y-35300500D03*
D11*
X106327914Y-135844500D03*
X106327914Y-130844500D03*
X112327914Y-135844500D03*
X112327914Y-130844500D03*
X118827940Y-110698500D03*
X118827940Y-105698500D03*
X124827940Y-110698500D03*
X124827940Y-105698500D03*
M02*
