%TF.GenerationSoftware,KiCad,Pcbnew,(6.0.0)*%
%TF.CreationDate,2022-06-12T01:08:41-04:00*%
%TF.ProjectId,8 Seg Design Tool,38205365-6720-4446-9573-69676e20546f,v01*%
%TF.SameCoordinates,Original*%
%TF.FileFunction,Copper,L2,Bot*%
%TF.FilePolarity,Positive*%
%FSLAX46Y46*%
G04 Gerber Fmt 4.6, Leading zero omitted, Abs format (unit mm)*
G04 Created by KiCad (PCBNEW (6.0.0)) date 2022-06-12 01:08:41*
%MOMM*%
%LPD*%
G01*
G04 APERTURE LIST*
%ADD10C,0.400000*%
%TA.AperFunction,NonConductor*%
%ADD11C,0.400000*%
%TD*%
%TA.AperFunction,ComponentPad*%
%ADD12C,1.782000*%
%TD*%
%TA.AperFunction,ComponentPad*%
%ADD13C,1.662000*%
%TD*%
%TA.AperFunction,ComponentPad*%
%ADD14R,1.828800X1.828800*%
%TD*%
%TA.AperFunction,ComponentPad*%
%ADD15C,1.828800*%
%TD*%
%TA.AperFunction,ComponentPad*%
%ADD16C,1.760220*%
%TD*%
%TA.AperFunction,ComponentPad*%
%ADD17C,1.549400*%
%TD*%
%TA.AperFunction,ViaPad*%
%ADD18C,0.685800*%
%TD*%
%TA.AperFunction,Conductor*%
%ADD19C,0.152400*%
%TD*%
G04 APERTURE END LIST*
D10*
D11*
X103814190Y-172692285D02*
X103218952Y-174358952D01*
X102623714Y-172692285D01*
X101195142Y-171858952D02*
X100957047Y-171858952D01*
X100718952Y-171978000D01*
X100599904Y-172097047D01*
X100480857Y-172335142D01*
X100361809Y-172811333D01*
X100361809Y-173406571D01*
X100480857Y-173882761D01*
X100599904Y-174120857D01*
X100718952Y-174239904D01*
X100957047Y-174358952D01*
X101195142Y-174358952D01*
X101433238Y-174239904D01*
X101552285Y-174120857D01*
X101671333Y-173882761D01*
X101790380Y-173406571D01*
X101790380Y-172811333D01*
X101671333Y-172335142D01*
X101552285Y-172097047D01*
X101433238Y-171978000D01*
X101195142Y-171858952D01*
X97980857Y-174358952D02*
X99409428Y-174358952D01*
X98695142Y-174358952D02*
X98695142Y-171858952D01*
X98933238Y-172216095D01*
X99171333Y-172454190D01*
X99409428Y-172573238D01*
D12*
X104161389Y-31559500D03*
X106701389Y-31559500D03*
X109241389Y-31559500D03*
X111781389Y-31559500D03*
X114321389Y-31559500D03*
X116861389Y-31559500D03*
X119401389Y-31559500D03*
X121941389Y-31559500D03*
X124481389Y-31559500D03*
X127021389Y-31559500D03*
D13*
X106327914Y-119080500D03*
X106327914Y-114080500D03*
X112327914Y-119080500D03*
X112327914Y-114080500D03*
X118827952Y-127462500D03*
X118827952Y-122462500D03*
X124827952Y-127462500D03*
X124827952Y-122462500D03*
D14*
X127931799Y-162554488D03*
D15*
X107433999Y-162554488D03*
D16*
X114207889Y-72638500D03*
X114207889Y-75178500D03*
X114207889Y-77718500D03*
X114207889Y-80258500D03*
X114207889Y-82798500D03*
X114207889Y-85338500D03*
X129447889Y-90418500D03*
X129447889Y-87878500D03*
X129447889Y-85338500D03*
X129447889Y-82798500D03*
X129447889Y-80258500D03*
X129447889Y-77718500D03*
X129447889Y-72638500D03*
D13*
X118827952Y-144226500D03*
X118827952Y-139226500D03*
X124827952Y-144226500D03*
X124827952Y-139226500D03*
X131327864Y-135844500D03*
X131327864Y-130844500D03*
X137327864Y-135844500D03*
X137327864Y-130844500D03*
X131327864Y-148036500D03*
X131327864Y-143036500D03*
X137327864Y-148036500D03*
X137327864Y-143036500D03*
D17*
X136313788Y-160020000D03*
X136313788Y-162560000D03*
X136313788Y-165100000D03*
D13*
X131327864Y-119080500D03*
X131327864Y-114080500D03*
X137327864Y-119080500D03*
X137327864Y-114080500D03*
D17*
X136313788Y-30220500D03*
X136313788Y-32760500D03*
X136313788Y-35300500D03*
D13*
X106327914Y-135844500D03*
X106327914Y-130844500D03*
X112327914Y-135844500D03*
X112327914Y-130844500D03*
X118827940Y-110698500D03*
X118827940Y-105698500D03*
X124827940Y-110698500D03*
X124827940Y-105698500D03*
D18*
X114046000Y-39878000D03*
X135618500Y-61468000D03*
X135890000Y-76962000D03*
X138684000Y-76962000D03*
X137922000Y-90424000D03*
X111760000Y-27178000D03*
X114300000Y-27178000D03*
X128524000Y-39116000D03*
X101600000Y-165100000D03*
X101600000Y-82804000D03*
D19*
X114207889Y-40039889D02*
X114207889Y-72638500D01*
X114046000Y-39878000D02*
X114207889Y-40039889D01*
X135636000Y-71530389D02*
X129447889Y-77718500D01*
X135636000Y-61214000D02*
X135636000Y-71530389D01*
X135382000Y-82804000D02*
X135376500Y-82798500D01*
X135376500Y-82798500D02*
X129447889Y-82798500D01*
X135890000Y-76962000D02*
X135890000Y-82296000D01*
X135890000Y-82296000D02*
X135382000Y-82804000D01*
X138684000Y-85587000D02*
X138170500Y-86100500D01*
X138684000Y-85598000D02*
X138181500Y-86100500D01*
X136392500Y-87878500D02*
X129447889Y-87878500D01*
X138170500Y-86100500D02*
X136392500Y-87878500D01*
X138684000Y-76962000D02*
X138684000Y-85598000D01*
X138181500Y-86100500D02*
X138170500Y-86100500D01*
X137916500Y-90418500D02*
X129447889Y-90418500D01*
X123349440Y-109220000D02*
X100838000Y-109220000D01*
X124827940Y-110698500D02*
X123349440Y-109220000D01*
X100520500Y-31559500D02*
X104161389Y-31559500D01*
X100076000Y-108458000D02*
X100076000Y-32004000D01*
X100076000Y-32004000D02*
X100520500Y-31559500D01*
X100838000Y-109220000D02*
X100076000Y-108458000D01*
X111971889Y-36830000D02*
X106701389Y-31559500D01*
X140208000Y-40386000D02*
X136652000Y-36830000D01*
X140208000Y-118110000D02*
X140208000Y-40386000D01*
X139237500Y-119080500D02*
X140208000Y-118110000D01*
X137327864Y-119080500D02*
X139237500Y-119080500D01*
X136652000Y-36830000D02*
X111971889Y-36830000D01*
X140716000Y-38100000D02*
X138938000Y-36322000D01*
X138938000Y-36322000D02*
X112268000Y-36322000D01*
X112268000Y-36322000D02*
X109241389Y-33295389D01*
X140716000Y-132456364D02*
X140716000Y-38100000D01*
X137327864Y-135844500D02*
X140716000Y-132456364D01*
X109241389Y-33295389D02*
X109241389Y-31559500D01*
X98552000Y-145034000D02*
X98552000Y-29464000D01*
X122682000Y-146558000D02*
X100076000Y-146558000D01*
X111506000Y-27432000D02*
X111760000Y-27178000D01*
X100076000Y-146558000D02*
X98552000Y-145034000D01*
X100584000Y-27432000D02*
X111506000Y-27432000D01*
X122682000Y-146372452D02*
X122682000Y-146558000D01*
X124827952Y-144226500D02*
X122682000Y-146372452D01*
X98552000Y-29464000D02*
X100584000Y-27432000D01*
X99060000Y-135890000D02*
X99060000Y-29464000D01*
X100584000Y-137414000D02*
X99060000Y-135890000D01*
X99060000Y-29464000D02*
X100584000Y-27940000D01*
X110758414Y-137414000D02*
X100584000Y-137414000D01*
X100584000Y-27940000D02*
X113538000Y-27940000D01*
X113538000Y-27940000D02*
X114300000Y-27178000D01*
X112327914Y-135844500D02*
X110758414Y-137414000D01*
X111254389Y-120139611D02*
X109728000Y-121666000D01*
X109728000Y-121666000D02*
X100584000Y-121666000D01*
X100584000Y-121666000D02*
X99568000Y-120650000D01*
X111268803Y-120139611D02*
X111254389Y-120139611D01*
X99568000Y-120650000D02*
X99568000Y-29464000D01*
X116861389Y-29231389D02*
X116861389Y-31559500D01*
X100584000Y-28448000D02*
X116078000Y-28448000D01*
X116078000Y-28448000D02*
X116861389Y-29231389D01*
X112327914Y-119080500D02*
X111268803Y-120139611D01*
X99568000Y-29464000D02*
X100584000Y-28448000D01*
X98044000Y-148844000D02*
X98044000Y-29464000D01*
X128270000Y-148844000D02*
X126492000Y-150622000D01*
X126492000Y-150622000D02*
X99822000Y-150622000D01*
X124827952Y-127462500D02*
X128175452Y-130810000D01*
X128270000Y-130810000D02*
X128270000Y-148844000D01*
X98044000Y-29464000D02*
X101346000Y-26162000D01*
X117094000Y-26162000D02*
X119401389Y-28469389D01*
X101346000Y-26162000D02*
X117094000Y-26162000D01*
X99822000Y-150622000D02*
X98044000Y-148844000D01*
X128175452Y-130810000D02*
X128270000Y-130810000D01*
X119401389Y-28469389D02*
X119401389Y-31559500D01*
X139446000Y-34036000D02*
X141224000Y-35814000D01*
X123232778Y-35814000D02*
X132588000Y-35814000D01*
X141224000Y-144140364D02*
X137327864Y-148036500D01*
X132588000Y-35814000D02*
X134366000Y-34036000D01*
X134366000Y-34036000D02*
X139446000Y-34036000D01*
X121941389Y-34522611D02*
X123232778Y-35814000D01*
X121941389Y-34522611D02*
X121941389Y-31559500D01*
X141224000Y-35814000D02*
X141224000Y-144140364D01*
X133604000Y-115570000D02*
X133604000Y-130810000D01*
X137327864Y-130844500D02*
X133638500Y-130844500D01*
X128270000Y-39370000D02*
X128524000Y-39116000D01*
X133604000Y-115570000D02*
X127508000Y-115570000D01*
X114300000Y-116052586D02*
X112327914Y-114080500D01*
X127508000Y-115570000D02*
X126746000Y-114808000D01*
X123698000Y-117856000D02*
X126746000Y-114808000D01*
X137327864Y-114080500D02*
X135838364Y-115570000D01*
X114300000Y-128778000D02*
X114300000Y-119126000D01*
X133638500Y-130844500D02*
X133604000Y-130810000D01*
X113030000Y-128778000D02*
X112327914Y-129480086D01*
X126746000Y-114808000D02*
X126746000Y-107616560D01*
X114300000Y-117856000D02*
X123698000Y-117856000D01*
X114300000Y-128778000D02*
X113030000Y-128778000D01*
X117094000Y-128778000D02*
X114300000Y-128778000D01*
X112327914Y-129480086D02*
X112327914Y-130844500D01*
X114300000Y-119126000D02*
X114300000Y-117856000D01*
X124827952Y-136511952D02*
X117094000Y-128778000D01*
X124827952Y-139226500D02*
X124827952Y-136511952D01*
X124827952Y-118985952D02*
X124827952Y-122462500D01*
X114300000Y-117856000D02*
X114300000Y-116052586D01*
X124827940Y-42812060D02*
X128270000Y-39370000D01*
X124827940Y-105698500D02*
X124827940Y-42812060D01*
X126746000Y-107616560D02*
X124827940Y-105698500D01*
X133604000Y-130810000D02*
X133604000Y-139312636D01*
X135838364Y-115570000D02*
X133604000Y-115570000D01*
X123698000Y-117856000D02*
X124827952Y-118985952D01*
X133604000Y-139312636D02*
X137327864Y-143036500D01*
X101605500Y-82798500D02*
X114207889Y-82798500D01*
X136313788Y-165100000D02*
X101600000Y-165100000D01*
X101600000Y-82804000D02*
X101605500Y-82798500D01*
%TA.AperFunction,Conductor*%
G36*
X146754121Y-24150002D02*
G01*
X146800614Y-24203658D01*
X146812000Y-24256000D01*
X146812000Y-175388000D01*
X146791998Y-175456121D01*
X146738342Y-175502614D01*
X146686000Y-175514000D01*
X105155334Y-175514000D01*
X105087213Y-175493998D01*
X105040720Y-175440342D01*
X105029334Y-175388000D01*
X105029334Y-169957500D01*
X97154000Y-169957500D01*
X97085879Y-169937498D01*
X97039386Y-169883842D01*
X97028000Y-169831500D01*
X97028000Y-167734825D01*
X135411588Y-167734825D01*
X135451018Y-167920331D01*
X135528156Y-168093585D01*
X135639629Y-168247015D01*
X135780567Y-168373916D01*
X135944809Y-168468741D01*
X135951095Y-168470783D01*
X135951094Y-168470783D01*
X136118898Y-168525306D01*
X136118899Y-168525306D01*
X136125177Y-168527346D01*
X136131740Y-168528036D01*
X136131741Y-168528036D01*
X136155175Y-168530499D01*
X136266502Y-168542200D01*
X136361074Y-168542200D01*
X136472401Y-168530499D01*
X136495835Y-168528036D01*
X136495836Y-168528036D01*
X136502399Y-168527346D01*
X136508677Y-168525306D01*
X136508678Y-168525306D01*
X136676482Y-168470783D01*
X136676481Y-168470783D01*
X136682767Y-168468741D01*
X136847009Y-168373916D01*
X136987947Y-168247015D01*
X137099420Y-168093585D01*
X137176558Y-167920331D01*
X137215988Y-167734825D01*
X137951588Y-167734825D01*
X137991018Y-167920331D01*
X138068156Y-168093585D01*
X138179629Y-168247015D01*
X138320567Y-168373916D01*
X138484809Y-168468741D01*
X138491095Y-168470783D01*
X138491094Y-168470783D01*
X138658898Y-168525306D01*
X138658899Y-168525306D01*
X138665177Y-168527346D01*
X138671740Y-168528036D01*
X138671741Y-168528036D01*
X138695175Y-168530499D01*
X138806502Y-168542200D01*
X138901074Y-168542200D01*
X139012401Y-168530499D01*
X139035835Y-168528036D01*
X139035836Y-168528036D01*
X139042399Y-168527346D01*
X139048677Y-168525306D01*
X139048678Y-168525306D01*
X139216482Y-168470783D01*
X139216481Y-168470783D01*
X139222767Y-168468741D01*
X139387009Y-168373916D01*
X139527947Y-168247015D01*
X139639420Y-168093585D01*
X139716558Y-167920331D01*
X139755988Y-167734825D01*
X139755988Y-167545175D01*
X139716558Y-167359669D01*
X139639420Y-167186415D01*
X139527947Y-167032985D01*
X139387009Y-166906084D01*
X139222767Y-166811259D01*
X139147548Y-166786819D01*
X139048678Y-166754694D01*
X139048677Y-166754694D01*
X139042399Y-166752654D01*
X139035836Y-166751964D01*
X139035835Y-166751964D01*
X139012401Y-166749501D01*
X138901074Y-166737800D01*
X138806502Y-166737800D01*
X138695175Y-166749501D01*
X138671741Y-166751964D01*
X138671740Y-166751964D01*
X138665177Y-166752654D01*
X138658899Y-166754694D01*
X138658898Y-166754694D01*
X138560028Y-166786819D01*
X138484809Y-166811259D01*
X138320567Y-166906084D01*
X138179629Y-167032985D01*
X138068156Y-167186415D01*
X137991018Y-167359669D01*
X137951588Y-167545175D01*
X137951588Y-167734825D01*
X137215988Y-167734825D01*
X137215988Y-167545175D01*
X137176558Y-167359669D01*
X137099420Y-167186415D01*
X136987947Y-167032985D01*
X136847009Y-166906084D01*
X136682767Y-166811259D01*
X136607548Y-166786819D01*
X136508678Y-166754694D01*
X136508677Y-166754694D01*
X136502399Y-166752654D01*
X136495836Y-166751964D01*
X136495835Y-166751964D01*
X136472401Y-166749501D01*
X136361074Y-166737800D01*
X136266502Y-166737800D01*
X136155175Y-166749501D01*
X136131741Y-166751964D01*
X136131740Y-166751964D01*
X136125177Y-166752654D01*
X136118899Y-166754694D01*
X136118898Y-166754694D01*
X136020028Y-166786819D01*
X135944809Y-166811259D01*
X135780567Y-166906084D01*
X135639629Y-167032985D01*
X135528156Y-167186415D01*
X135451018Y-167359669D01*
X135411588Y-167545175D01*
X135411588Y-167734825D01*
X97028000Y-167734825D01*
X97028000Y-165100000D01*
X100743910Y-165100000D01*
X100762618Y-165277991D01*
X100817923Y-165448203D01*
X100907409Y-165603197D01*
X101027164Y-165736199D01*
X101032506Y-165740080D01*
X101032508Y-165740082D01*
X101044176Y-165748559D01*
X101171955Y-165841396D01*
X101177983Y-165844080D01*
X101177985Y-165844081D01*
X101329423Y-165911505D01*
X101335454Y-165914190D01*
X101418646Y-165931873D01*
X101504057Y-165950028D01*
X101504061Y-165950028D01*
X101510514Y-165951400D01*
X101689486Y-165951400D01*
X101695939Y-165950028D01*
X101695943Y-165950028D01*
X101781354Y-165931873D01*
X101864546Y-165914190D01*
X101870577Y-165911505D01*
X102022015Y-165844081D01*
X102022017Y-165844080D01*
X102028045Y-165841396D01*
X102172836Y-165736199D01*
X102181669Y-165726389D01*
X102242115Y-165689150D01*
X102275305Y-165684700D01*
X135091800Y-165684700D01*
X135159921Y-165704702D01*
X135197768Y-165744395D01*
X135198259Y-165744051D01*
X135201411Y-165748552D01*
X135201413Y-165748556D01*
X135323886Y-165923465D01*
X135327045Y-165927976D01*
X135485812Y-166086743D01*
X135490320Y-166089900D01*
X135490323Y-166089902D01*
X135566940Y-166143549D01*
X135669737Y-166215529D01*
X135674719Y-166217852D01*
X135674724Y-166217855D01*
X135868249Y-166308097D01*
X135873231Y-166310420D01*
X135878539Y-166311842D01*
X135878541Y-166311843D01*
X136084796Y-166367109D01*
X136084798Y-166367109D01*
X136090111Y-166368533D01*
X136313788Y-166388102D01*
X136537465Y-166368533D01*
X136542778Y-166367109D01*
X136542780Y-166367109D01*
X136749035Y-166311843D01*
X136749037Y-166311842D01*
X136754345Y-166310420D01*
X136759327Y-166308097D01*
X136952852Y-166217855D01*
X136952857Y-166217852D01*
X136957839Y-166215529D01*
X137060636Y-166143549D01*
X137137253Y-166089902D01*
X137137256Y-166089900D01*
X137141764Y-166086743D01*
X137300531Y-165927976D01*
X137309224Y-165915562D01*
X137426160Y-165748559D01*
X137429317Y-165744051D01*
X137431640Y-165739069D01*
X137431643Y-165739064D01*
X137521885Y-165545539D01*
X137521886Y-165545538D01*
X137524208Y-165540557D01*
X137582321Y-165323677D01*
X137601890Y-165100000D01*
X137582321Y-164876323D01*
X137524208Y-164659443D01*
X137497665Y-164602521D01*
X137431643Y-164460936D01*
X137431640Y-164460931D01*
X137429317Y-164455949D01*
X137310184Y-164285810D01*
X137303690Y-164276535D01*
X137303688Y-164276532D01*
X137300531Y-164272024D01*
X137141764Y-164113257D01*
X137137256Y-164110100D01*
X137137253Y-164110098D01*
X137060636Y-164056451D01*
X136957839Y-163984471D01*
X136952857Y-163982148D01*
X136952852Y-163982145D01*
X136871467Y-163944195D01*
X136818182Y-163897278D01*
X136798721Y-163829000D01*
X136819263Y-163761040D01*
X136871467Y-163715805D01*
X136952852Y-163677855D01*
X136952857Y-163677852D01*
X136957839Y-163675529D01*
X137106625Y-163571348D01*
X137137253Y-163549902D01*
X137137256Y-163549900D01*
X137141764Y-163546743D01*
X137300531Y-163387976D01*
X137325793Y-163351899D01*
X137426160Y-163208559D01*
X137429317Y-163204051D01*
X137431640Y-163199069D01*
X137431643Y-163199064D01*
X137521885Y-163005539D01*
X137521886Y-163005538D01*
X137524208Y-163000557D01*
X137582321Y-162783677D01*
X137601890Y-162560000D01*
X137582321Y-162336323D01*
X137580897Y-162331008D01*
X137525631Y-162124753D01*
X137525630Y-162124751D01*
X137524208Y-162119443D01*
X137495073Y-162056962D01*
X137431643Y-161920936D01*
X137431640Y-161920931D01*
X137429317Y-161915949D01*
X137313749Y-161750901D01*
X137303690Y-161736535D01*
X137303688Y-161736532D01*
X137300531Y-161732024D01*
X137141764Y-161573257D01*
X137137256Y-161570100D01*
X137137253Y-161570098D01*
X137060636Y-161516451D01*
X136957839Y-161444471D01*
X136952857Y-161442148D01*
X136952852Y-161442145D01*
X136871467Y-161404195D01*
X136818182Y-161357278D01*
X136798721Y-161289000D01*
X136819263Y-161221040D01*
X136871467Y-161175805D01*
X136952852Y-161137855D01*
X136952857Y-161137852D01*
X136957839Y-161135529D01*
X137060636Y-161063549D01*
X137137253Y-161009902D01*
X137137256Y-161009900D01*
X137141764Y-161006743D01*
X137300531Y-160847976D01*
X137429317Y-160664051D01*
X137431640Y-160659069D01*
X137431643Y-160659064D01*
X137521885Y-160465539D01*
X137521886Y-160465538D01*
X137524208Y-160460557D01*
X137582321Y-160243677D01*
X137601890Y-160020000D01*
X137582321Y-159796323D01*
X137524208Y-159579443D01*
X137521885Y-159574461D01*
X137431643Y-159380936D01*
X137431640Y-159380931D01*
X137429317Y-159375949D01*
X137300531Y-159192024D01*
X137141764Y-159033257D01*
X137137256Y-159030100D01*
X137137253Y-159030098D01*
X137060636Y-158976451D01*
X136957839Y-158904471D01*
X136952857Y-158902148D01*
X136952852Y-158902145D01*
X136759327Y-158811903D01*
X136759326Y-158811902D01*
X136754345Y-158809580D01*
X136749037Y-158808158D01*
X136749035Y-158808157D01*
X136542780Y-158752891D01*
X136542778Y-158752891D01*
X136537465Y-158751467D01*
X136313788Y-158731898D01*
X136090111Y-158751467D01*
X136084798Y-158752891D01*
X136084796Y-158752891D01*
X135878541Y-158808157D01*
X135878539Y-158808158D01*
X135873231Y-158809580D01*
X135868250Y-158811902D01*
X135868249Y-158811903D01*
X135674724Y-158902145D01*
X135674719Y-158902148D01*
X135669737Y-158904471D01*
X135566940Y-158976451D01*
X135490323Y-159030098D01*
X135490320Y-159030100D01*
X135485812Y-159033257D01*
X135327045Y-159192024D01*
X135198259Y-159375949D01*
X135195936Y-159380931D01*
X135195933Y-159380936D01*
X135105691Y-159574461D01*
X135103368Y-159579443D01*
X135045255Y-159796323D01*
X135025686Y-160020000D01*
X135045255Y-160243677D01*
X135103368Y-160460557D01*
X135105690Y-160465538D01*
X135105691Y-160465539D01*
X135195933Y-160659064D01*
X135195936Y-160659069D01*
X135198259Y-160664051D01*
X135327045Y-160847976D01*
X135485812Y-161006743D01*
X135490320Y-161009900D01*
X135490323Y-161009902D01*
X135566940Y-161063549D01*
X135669737Y-161135529D01*
X135674719Y-161137852D01*
X135674724Y-161137855D01*
X135756109Y-161175805D01*
X135809394Y-161222722D01*
X135828855Y-161291000D01*
X135808313Y-161358960D01*
X135756109Y-161404195D01*
X135674724Y-161442145D01*
X135674719Y-161442148D01*
X135669737Y-161444471D01*
X135566940Y-161516451D01*
X135490323Y-161570098D01*
X135490320Y-161570100D01*
X135485812Y-161573257D01*
X135327045Y-161732024D01*
X135323888Y-161736532D01*
X135323886Y-161736535D01*
X135313827Y-161750901D01*
X135198259Y-161915949D01*
X135195936Y-161920931D01*
X135195933Y-161920936D01*
X135132503Y-162056962D01*
X135103368Y-162119443D01*
X135101946Y-162124751D01*
X135101945Y-162124753D01*
X135046679Y-162331008D01*
X135045255Y-162336323D01*
X135025686Y-162560000D01*
X135045255Y-162783677D01*
X135103368Y-163000557D01*
X135105690Y-163005538D01*
X135105691Y-163005539D01*
X135195933Y-163199064D01*
X135195936Y-163199069D01*
X135198259Y-163204051D01*
X135201416Y-163208559D01*
X135301784Y-163351899D01*
X135327045Y-163387976D01*
X135485812Y-163546743D01*
X135490320Y-163549900D01*
X135490323Y-163549902D01*
X135520951Y-163571348D01*
X135669737Y-163675529D01*
X135674719Y-163677852D01*
X135674724Y-163677855D01*
X135756109Y-163715805D01*
X135809394Y-163762722D01*
X135828855Y-163831000D01*
X135808313Y-163898960D01*
X135756109Y-163944195D01*
X135674724Y-163982145D01*
X135674719Y-163982148D01*
X135669737Y-163984471D01*
X135566940Y-164056451D01*
X135490323Y-164110098D01*
X135490320Y-164110100D01*
X135485812Y-164113257D01*
X135327045Y-164272024D01*
X135323888Y-164276532D01*
X135323886Y-164276535D01*
X135201416Y-164451441D01*
X135198259Y-164455949D01*
X135197587Y-164455478D01*
X135149534Y-164501294D01*
X135091800Y-164515300D01*
X102275305Y-164515300D01*
X102207184Y-164495298D01*
X102181669Y-164473611D01*
X102177251Y-164468704D01*
X102177249Y-164468703D01*
X102172836Y-164463801D01*
X102028045Y-164358604D01*
X102022017Y-164355920D01*
X102022015Y-164355919D01*
X101870577Y-164288495D01*
X101870576Y-164288495D01*
X101864546Y-164285810D01*
X101777016Y-164267205D01*
X101695943Y-164249972D01*
X101695939Y-164249972D01*
X101689486Y-164248600D01*
X101510514Y-164248600D01*
X101504061Y-164249972D01*
X101504057Y-164249972D01*
X101422984Y-164267205D01*
X101335454Y-164285810D01*
X101329424Y-164288495D01*
X101329423Y-164288495D01*
X101177985Y-164355919D01*
X101177983Y-164355920D01*
X101171955Y-164358604D01*
X101166614Y-164362484D01*
X101166613Y-164362485D01*
X101038620Y-164455478D01*
X101027164Y-164463801D01*
X100907409Y-164596803D01*
X100817923Y-164751797D01*
X100762618Y-164922009D01*
X100743910Y-165100000D01*
X97028000Y-165100000D01*
X97028000Y-163726422D01*
X106626895Y-163726422D01*
X106632176Y-163733476D01*
X106812836Y-163839046D01*
X106822119Y-163843493D01*
X107030971Y-163923246D01*
X107040873Y-163926123D01*
X107259928Y-163970690D01*
X107270181Y-163971913D01*
X107493580Y-163980105D01*
X107503866Y-163979638D01*
X107725615Y-163951231D01*
X107735701Y-163949088D01*
X107949828Y-163884846D01*
X107959423Y-163881086D01*
X108160183Y-163782734D01*
X108169033Y-163777459D01*
X108229420Y-163734385D01*
X108237820Y-163723685D01*
X108230833Y-163710532D01*
X108037323Y-163517022D01*
X126508899Y-163517022D01*
X126515654Y-163579204D01*
X126566784Y-163715593D01*
X126654138Y-163832149D01*
X126770694Y-163919503D01*
X126907083Y-163970633D01*
X126969265Y-163977388D01*
X128894333Y-163977388D01*
X128956515Y-163970633D01*
X129092904Y-163919503D01*
X129209460Y-163832149D01*
X129296814Y-163715593D01*
X129347944Y-163579204D01*
X129354699Y-163517022D01*
X129354699Y-161591954D01*
X129347944Y-161529772D01*
X129296814Y-161393383D01*
X129209460Y-161276827D01*
X129092904Y-161189473D01*
X128956515Y-161138343D01*
X128894333Y-161131588D01*
X126969265Y-161131588D01*
X126907083Y-161138343D01*
X126770694Y-161189473D01*
X126654138Y-161276827D01*
X126566784Y-161393383D01*
X126515654Y-161529772D01*
X126508899Y-161591954D01*
X126508899Y-163517022D01*
X108037323Y-163517022D01*
X107446811Y-162926510D01*
X107432867Y-162918896D01*
X107431034Y-162919027D01*
X107424419Y-162923278D01*
X106633655Y-163714042D01*
X106626895Y-163726422D01*
X97028000Y-163726422D01*
X97028000Y-162524773D01*
X106007447Y-162524773D01*
X106020316Y-162747957D01*
X106021752Y-162758178D01*
X106070900Y-162976258D01*
X106073979Y-162986087D01*
X106158090Y-163193227D01*
X106162733Y-163202418D01*
X106253625Y-163350742D01*
X106264081Y-163360202D01*
X106272859Y-163356418D01*
X107061977Y-162567300D01*
X107068355Y-162555620D01*
X107798407Y-162555620D01*
X107798538Y-162557453D01*
X107802789Y-162564068D01*
X108590620Y-163351899D01*
X108602630Y-163358458D01*
X108614369Y-163349490D01*
X108654394Y-163293789D01*
X108659705Y-163284950D01*
X108758752Y-163084545D01*
X108762550Y-163074952D01*
X108827538Y-162861051D01*
X108829715Y-162850981D01*
X108859133Y-162627532D01*
X108859652Y-162620858D01*
X108861192Y-162557853D01*
X108860998Y-162551134D01*
X108842533Y-162326528D01*
X108840850Y-162316366D01*
X108786387Y-162099539D01*
X108783066Y-162089784D01*
X108693926Y-161884778D01*
X108689048Y-161875680D01*
X108613637Y-161759113D01*
X108602951Y-161749909D01*
X108593384Y-161754313D01*
X107806021Y-162541676D01*
X107798407Y-162555620D01*
X107068355Y-162555620D01*
X107069591Y-162553356D01*
X107069460Y-162551523D01*
X107065209Y-162544908D01*
X106277502Y-161757201D01*
X106265966Y-161750901D01*
X106253684Y-161760524D01*
X106195901Y-161845231D01*
X106190815Y-161854184D01*
X106096688Y-162056962D01*
X106093129Y-162066637D01*
X106033387Y-162282060D01*
X106031456Y-162292180D01*
X106007699Y-162514484D01*
X106007447Y-162524773D01*
X97028000Y-162524773D01*
X97028000Y-161384915D01*
X106629222Y-161384915D01*
X106635967Y-161397246D01*
X107421187Y-162182466D01*
X107435131Y-162190080D01*
X107436964Y-162189949D01*
X107443579Y-162185698D01*
X108233242Y-161396035D01*
X108240263Y-161383178D01*
X108232490Y-161372511D01*
X108227900Y-161368886D01*
X108219314Y-161363181D01*
X108023598Y-161255141D01*
X108014199Y-161250916D01*
X107803465Y-161176291D01*
X107793494Y-161173657D01*
X107573406Y-161134453D01*
X107563154Y-161133484D01*
X107339607Y-161130753D01*
X107329323Y-161131473D01*
X107108340Y-161165287D01*
X107098321Y-161167674D01*
X106885821Y-161237130D01*
X106876319Y-161241125D01*
X106678027Y-161344349D01*
X106669302Y-161349843D01*
X106637675Y-161373590D01*
X106629222Y-161384915D01*
X97028000Y-161384915D01*
X97028000Y-157574825D01*
X135411588Y-157574825D01*
X135451018Y-157760331D01*
X135528156Y-157933585D01*
X135639629Y-158087015D01*
X135780567Y-158213916D01*
X135944809Y-158308741D01*
X135951095Y-158310783D01*
X135951094Y-158310783D01*
X136118898Y-158365306D01*
X136118899Y-158365306D01*
X136125177Y-158367346D01*
X136131740Y-158368036D01*
X136131741Y-158368036D01*
X136155175Y-158370499D01*
X136266502Y-158382200D01*
X136361074Y-158382200D01*
X136472401Y-158370499D01*
X136495835Y-158368036D01*
X136495836Y-158368036D01*
X136502399Y-158367346D01*
X136508677Y-158365306D01*
X136508678Y-158365306D01*
X136676482Y-158310783D01*
X136676481Y-158310783D01*
X136682767Y-158308741D01*
X136847009Y-158213916D01*
X136987947Y-158087015D01*
X137099420Y-157933585D01*
X137176558Y-157760331D01*
X137215988Y-157574825D01*
X137951588Y-157574825D01*
X137991018Y-157760331D01*
X138068156Y-157933585D01*
X138179629Y-158087015D01*
X138320567Y-158213916D01*
X138484809Y-158308741D01*
X138491095Y-158310783D01*
X138491094Y-158310783D01*
X138658898Y-158365306D01*
X138658899Y-158365306D01*
X138665177Y-158367346D01*
X138671740Y-158368036D01*
X138671741Y-158368036D01*
X138695175Y-158370499D01*
X138806502Y-158382200D01*
X138901074Y-158382200D01*
X139012401Y-158370499D01*
X139035835Y-158368036D01*
X139035836Y-158368036D01*
X139042399Y-158367346D01*
X139048677Y-158365306D01*
X139048678Y-158365306D01*
X139216482Y-158310783D01*
X139216481Y-158310783D01*
X139222767Y-158308741D01*
X139387009Y-158213916D01*
X139527947Y-158087015D01*
X139639420Y-157933585D01*
X139716558Y-157760331D01*
X139755988Y-157574825D01*
X139755988Y-157385175D01*
X139716558Y-157199669D01*
X139639420Y-157026415D01*
X139527947Y-156872985D01*
X139387009Y-156746084D01*
X139222767Y-156651259D01*
X139147548Y-156626819D01*
X139048678Y-156594694D01*
X139048677Y-156594694D01*
X139042399Y-156592654D01*
X139035836Y-156591964D01*
X139035835Y-156591964D01*
X139012401Y-156589501D01*
X138901074Y-156577800D01*
X138806502Y-156577800D01*
X138695175Y-156589501D01*
X138671741Y-156591964D01*
X138671740Y-156591964D01*
X138665177Y-156592654D01*
X138658899Y-156594694D01*
X138658898Y-156594694D01*
X138560028Y-156626819D01*
X138484809Y-156651259D01*
X138320567Y-156746084D01*
X138179629Y-156872985D01*
X138068156Y-157026415D01*
X137991018Y-157199669D01*
X137951588Y-157385175D01*
X137951588Y-157574825D01*
X137215988Y-157574825D01*
X137215988Y-157385175D01*
X137176558Y-157199669D01*
X137099420Y-157026415D01*
X136987947Y-156872985D01*
X136847009Y-156746084D01*
X136682767Y-156651259D01*
X136607548Y-156626819D01*
X136508678Y-156594694D01*
X136508677Y-156594694D01*
X136502399Y-156592654D01*
X136495836Y-156591964D01*
X136495835Y-156591964D01*
X136472401Y-156589501D01*
X136361074Y-156577800D01*
X136266502Y-156577800D01*
X136155175Y-156589501D01*
X136131741Y-156591964D01*
X136131740Y-156591964D01*
X136125177Y-156592654D01*
X136118899Y-156594694D01*
X136118898Y-156594694D01*
X136020028Y-156626819D01*
X135944809Y-156651259D01*
X135780567Y-156746084D01*
X135639629Y-156872985D01*
X135528156Y-157026415D01*
X135451018Y-157199669D01*
X135411588Y-157385175D01*
X135411588Y-157574825D01*
X97028000Y-157574825D01*
X97028000Y-148844000D01*
X97454255Y-148844000D01*
X97459300Y-148882319D01*
X97459300Y-148882321D01*
X97474350Y-148996637D01*
X97516010Y-149097213D01*
X97533266Y-149138873D01*
X97567423Y-149183386D01*
X97626987Y-149261013D01*
X97633537Y-149266039D01*
X97633541Y-149266043D01*
X97651109Y-149279523D01*
X97663501Y-149290391D01*
X99375616Y-151002507D01*
X99386483Y-151014898D01*
X99404987Y-151039013D01*
X99435651Y-151062542D01*
X99435652Y-151062543D01*
X99527127Y-151132734D01*
X99669363Y-151191650D01*
X99796731Y-151208419D01*
X99813805Y-151210667D01*
X99822000Y-151211746D01*
X99830196Y-151210667D01*
X99852138Y-151207778D01*
X99868585Y-151206700D01*
X126445422Y-151206700D01*
X126461869Y-151207778D01*
X126492000Y-151211745D01*
X126530319Y-151206700D01*
X126530324Y-151206700D01*
X126636449Y-151192728D01*
X126644637Y-151191650D01*
X126745213Y-151149990D01*
X126786873Y-151132734D01*
X126831386Y-151098577D01*
X126909013Y-151039013D01*
X126914039Y-151032463D01*
X126914043Y-151032459D01*
X126927523Y-151014891D01*
X126938391Y-151002499D01*
X128650507Y-149290384D01*
X128662899Y-149279516D01*
X128687013Y-149261013D01*
X128692042Y-149254460D01*
X128733084Y-149200972D01*
X128746580Y-149183384D01*
X128776170Y-149144821D01*
X130584098Y-149144821D01*
X130593394Y-149156836D01*
X130651298Y-149197381D01*
X130660793Y-149202864D01*
X130863168Y-149297232D01*
X130873460Y-149300978D01*
X131089146Y-149358771D01*
X131099941Y-149360674D01*
X131322389Y-149380136D01*
X131333339Y-149380136D01*
X131555787Y-149360674D01*
X131566582Y-149358771D01*
X131782268Y-149300978D01*
X131792560Y-149297232D01*
X131994935Y-149202864D01*
X132004430Y-149197381D01*
X132063171Y-149156250D01*
X132071547Y-149145771D01*
X132064479Y-149132325D01*
X131340676Y-148408522D01*
X131326732Y-148400908D01*
X131324899Y-148401039D01*
X131318284Y-148405290D01*
X130590528Y-149133046D01*
X130584098Y-149144821D01*
X128776170Y-149144821D01*
X128780734Y-149138873D01*
X128839650Y-148996637D01*
X128859746Y-148844000D01*
X128855778Y-148813862D01*
X128854700Y-148797415D01*
X128854700Y-148041975D01*
X129984228Y-148041975D01*
X130003690Y-148264423D01*
X130005593Y-148275218D01*
X130063386Y-148490904D01*
X130067132Y-148501196D01*
X130161500Y-148703570D01*
X130166983Y-148713066D01*
X130208115Y-148771808D01*
X130218592Y-148780183D01*
X130232040Y-148773114D01*
X130955842Y-148049312D01*
X130962220Y-148037632D01*
X131692272Y-148037632D01*
X131692403Y-148039465D01*
X131696654Y-148046080D01*
X132424410Y-148773836D01*
X132436185Y-148780266D01*
X132448200Y-148770970D01*
X132488745Y-148713066D01*
X132494228Y-148703570D01*
X132588596Y-148501196D01*
X132592342Y-148490904D01*
X132650135Y-148275218D01*
X132652038Y-148264423D01*
X132671500Y-148041975D01*
X132671500Y-148031025D01*
X132652038Y-147808577D01*
X132650135Y-147797782D01*
X132592342Y-147582096D01*
X132588596Y-147571804D01*
X132494228Y-147369430D01*
X132488745Y-147359934D01*
X132447613Y-147301192D01*
X132437136Y-147292817D01*
X132423688Y-147299886D01*
X131699886Y-148023688D01*
X131692272Y-148037632D01*
X130962220Y-148037632D01*
X130963456Y-148035368D01*
X130963325Y-148033535D01*
X130959074Y-148026920D01*
X130231318Y-147299164D01*
X130219543Y-147292734D01*
X130207528Y-147302030D01*
X130166983Y-147359934D01*
X130161500Y-147369430D01*
X130067132Y-147571804D01*
X130063386Y-147582096D01*
X130005593Y-147797782D01*
X130003690Y-147808577D01*
X129984228Y-148031025D01*
X129984228Y-148041975D01*
X128854700Y-148041975D01*
X128854700Y-146927228D01*
X130584181Y-146927228D01*
X130591250Y-146940676D01*
X131315052Y-147664478D01*
X131328996Y-147672092D01*
X131330829Y-147671961D01*
X131337444Y-147667710D01*
X132065200Y-146939954D01*
X132071630Y-146928179D01*
X132062334Y-146916164D01*
X132004430Y-146875619D01*
X131994935Y-146870136D01*
X131792560Y-146775768D01*
X131782268Y-146772022D01*
X131566582Y-146714229D01*
X131555787Y-146712326D01*
X131333339Y-146692864D01*
X131322389Y-146692864D01*
X131099941Y-146712326D01*
X131089146Y-146714229D01*
X130873460Y-146772022D01*
X130863168Y-146775768D01*
X130660794Y-146870136D01*
X130651298Y-146875619D01*
X130592556Y-146916751D01*
X130584181Y-146927228D01*
X128854700Y-146927228D01*
X128854700Y-143036500D01*
X129983247Y-143036500D01*
X130003675Y-143269990D01*
X130005099Y-143275304D01*
X130005099Y-143275305D01*
X130028382Y-143362197D01*
X130064337Y-143496386D01*
X130066659Y-143501366D01*
X130066660Y-143501368D01*
X130161066Y-143703821D01*
X130161069Y-143703826D01*
X130163392Y-143708808D01*
X130166548Y-143713315D01*
X130166549Y-143713317D01*
X130270631Y-143861961D01*
X130297828Y-143900803D01*
X130463561Y-144066536D01*
X130468069Y-144069693D01*
X130468072Y-144069695D01*
X130514270Y-144102043D01*
X130655555Y-144200972D01*
X130660537Y-144203295D01*
X130660542Y-144203298D01*
X130862996Y-144297704D01*
X130867978Y-144300027D01*
X130873286Y-144301449D01*
X130873288Y-144301450D01*
X131089059Y-144359265D01*
X131089060Y-144359265D01*
X131094374Y-144360689D01*
X131327864Y-144381117D01*
X131561354Y-144360689D01*
X131566668Y-144359265D01*
X131566669Y-144359265D01*
X131782440Y-144301450D01*
X131782442Y-144301449D01*
X131787750Y-144300027D01*
X131792732Y-144297704D01*
X131995186Y-144203298D01*
X131995191Y-144203295D01*
X132000173Y-144200972D01*
X132141458Y-144102043D01*
X132187656Y-144069695D01*
X132187659Y-144069693D01*
X132192167Y-144066536D01*
X132357900Y-143900803D01*
X132385098Y-143861961D01*
X132489179Y-143713317D01*
X132489180Y-143713315D01*
X132492336Y-143708808D01*
X132494659Y-143703826D01*
X132494662Y-143703821D01*
X132589068Y-143501368D01*
X132589069Y-143501366D01*
X132591391Y-143496386D01*
X132627347Y-143362197D01*
X132650629Y-143275305D01*
X132650629Y-143275304D01*
X132652053Y-143269990D01*
X132672481Y-143036500D01*
X132652053Y-142803010D01*
X132591391Y-142576614D01*
X132575954Y-142543510D01*
X132494662Y-142369179D01*
X132494659Y-142369174D01*
X132492336Y-142364192D01*
X132357900Y-142172197D01*
X132192167Y-142006464D01*
X132187659Y-142003307D01*
X132187656Y-142003305D01*
X132107512Y-141947188D01*
X132000173Y-141872028D01*
X131995191Y-141869705D01*
X131995186Y-141869702D01*
X131792732Y-141775296D01*
X131792730Y-141775295D01*
X131787750Y-141772973D01*
X131782442Y-141771551D01*
X131782440Y-141771550D01*
X131566669Y-141713735D01*
X131566668Y-141713735D01*
X131561354Y-141712311D01*
X131327864Y-141691883D01*
X131094374Y-141712311D01*
X131089060Y-141713735D01*
X131089059Y-141713735D01*
X130873288Y-141771550D01*
X130873286Y-141771551D01*
X130867978Y-141772973D01*
X130862998Y-141775295D01*
X130862996Y-141775296D01*
X130660543Y-141869702D01*
X130660538Y-141869705D01*
X130655556Y-141872028D01*
X130651049Y-141875184D01*
X130651047Y-141875185D01*
X130468072Y-142003305D01*
X130468069Y-142003307D01*
X130463561Y-142006464D01*
X130297828Y-142172197D01*
X130163392Y-142364192D01*
X130161069Y-142369174D01*
X130161066Y-142369179D01*
X130079774Y-142543510D01*
X130064337Y-142576614D01*
X130003675Y-142803010D01*
X129983247Y-143036500D01*
X128854700Y-143036500D01*
X128854700Y-136952821D01*
X130584098Y-136952821D01*
X130593394Y-136964836D01*
X130651298Y-137005381D01*
X130660793Y-137010864D01*
X130863168Y-137105232D01*
X130873460Y-137108978D01*
X131089146Y-137166771D01*
X131099941Y-137168674D01*
X131322389Y-137188136D01*
X131333339Y-137188136D01*
X131555787Y-137168674D01*
X131566582Y-137166771D01*
X131782268Y-137108978D01*
X131792560Y-137105232D01*
X131994935Y-137010864D01*
X132004430Y-137005381D01*
X132063171Y-136964250D01*
X132071547Y-136953771D01*
X132064479Y-136940325D01*
X131340676Y-136216522D01*
X131326732Y-136208908D01*
X131324899Y-136209039D01*
X131318284Y-136213290D01*
X130590528Y-136941046D01*
X130584098Y-136952821D01*
X128854700Y-136952821D01*
X128854700Y-135849975D01*
X129984228Y-135849975D01*
X130003690Y-136072423D01*
X130005593Y-136083218D01*
X130063386Y-136298904D01*
X130067132Y-136309196D01*
X130161500Y-136511570D01*
X130166983Y-136521066D01*
X130208115Y-136579808D01*
X130218592Y-136588183D01*
X130232040Y-136581114D01*
X130955842Y-135857312D01*
X130962220Y-135845632D01*
X131692272Y-135845632D01*
X131692403Y-135847465D01*
X131696654Y-135854080D01*
X132424410Y-136581836D01*
X132436185Y-136588266D01*
X132448200Y-136578970D01*
X132488745Y-136521066D01*
X132494228Y-136511570D01*
X132588596Y-136309196D01*
X132592342Y-136298904D01*
X132650135Y-136083218D01*
X132652038Y-136072423D01*
X132671500Y-135849975D01*
X132671500Y-135839025D01*
X132652038Y-135616577D01*
X132650135Y-135605782D01*
X132592342Y-135390096D01*
X132588596Y-135379804D01*
X132494228Y-135177430D01*
X132488745Y-135167934D01*
X132447613Y-135109192D01*
X132437136Y-135100817D01*
X132423688Y-135107886D01*
X131699886Y-135831688D01*
X131692272Y-135845632D01*
X130962220Y-135845632D01*
X130963456Y-135843368D01*
X130963325Y-135841535D01*
X130959074Y-135834920D01*
X130231318Y-135107164D01*
X130219543Y-135100734D01*
X130207528Y-135110030D01*
X130166983Y-135167934D01*
X130161500Y-135177430D01*
X130067132Y-135379804D01*
X130063386Y-135390096D01*
X130005593Y-135605782D01*
X130003690Y-135616577D01*
X129984228Y-135839025D01*
X129984228Y-135849975D01*
X128854700Y-135849975D01*
X128854700Y-134735228D01*
X130584181Y-134735228D01*
X130591250Y-134748676D01*
X131315052Y-135472478D01*
X131328996Y-135480092D01*
X131330829Y-135479961D01*
X131337444Y-135475710D01*
X132065200Y-134747954D01*
X132071630Y-134736179D01*
X132062334Y-134724164D01*
X132004430Y-134683619D01*
X131994935Y-134678136D01*
X131792560Y-134583768D01*
X131782268Y-134580022D01*
X131566582Y-134522229D01*
X131555787Y-134520326D01*
X131333339Y-134500864D01*
X131322389Y-134500864D01*
X131099941Y-134520326D01*
X131089146Y-134522229D01*
X130873460Y-134580022D01*
X130863168Y-134583768D01*
X130660794Y-134678136D01*
X130651298Y-134683619D01*
X130592556Y-134724751D01*
X130584181Y-134735228D01*
X128854700Y-134735228D01*
X128854700Y-130856579D01*
X128855492Y-130844500D01*
X129983247Y-130844500D01*
X130003675Y-131077990D01*
X130064337Y-131304386D01*
X130066659Y-131309366D01*
X130066660Y-131309368D01*
X130161066Y-131511821D01*
X130161069Y-131511826D01*
X130163392Y-131516808D01*
X130166548Y-131521315D01*
X130166549Y-131521316D01*
X130297828Y-131708803D01*
X130463561Y-131874536D01*
X130468069Y-131877693D01*
X130468072Y-131877695D01*
X130548216Y-131933812D01*
X130655555Y-132008972D01*
X130660537Y-132011295D01*
X130660542Y-132011298D01*
X130862996Y-132105704D01*
X130867978Y-132108027D01*
X130873286Y-132109449D01*
X130873288Y-132109450D01*
X131089059Y-132167265D01*
X131089060Y-132167265D01*
X131094374Y-132168689D01*
X131327864Y-132189117D01*
X131561354Y-132168689D01*
X131566668Y-132167265D01*
X131566669Y-132167265D01*
X131782440Y-132109450D01*
X131782442Y-132109449D01*
X131787750Y-132108027D01*
X131792732Y-132105704D01*
X131995186Y-132011298D01*
X131995191Y-132011295D01*
X132000173Y-132008972D01*
X132107512Y-131933812D01*
X132187656Y-131877695D01*
X132187659Y-131877693D01*
X132192167Y-131874536D01*
X132357900Y-131708803D01*
X132489180Y-131521316D01*
X132489180Y-131521315D01*
X132492336Y-131516808D01*
X132494659Y-131511826D01*
X132494662Y-131511821D01*
X132589068Y-131309368D01*
X132589069Y-131309366D01*
X132591391Y-131304386D01*
X132652053Y-131077990D01*
X132672481Y-130844500D01*
X132652053Y-130611010D01*
X132591391Y-130384614D01*
X132584324Y-130369458D01*
X132494662Y-130177179D01*
X132494659Y-130177174D01*
X132492336Y-130172192D01*
X132489180Y-130167685D01*
X132489179Y-130167683D01*
X132361059Y-129984708D01*
X132361057Y-129984705D01*
X132357900Y-129980197D01*
X132192167Y-129814464D01*
X132187659Y-129811307D01*
X132187656Y-129811305D01*
X132096497Y-129747475D01*
X132000173Y-129680028D01*
X131995191Y-129677705D01*
X131995186Y-129677702D01*
X131792732Y-129583296D01*
X131792730Y-129583295D01*
X131787750Y-129580973D01*
X131782442Y-129579551D01*
X131782440Y-129579550D01*
X131566669Y-129521735D01*
X131566668Y-129521735D01*
X131561354Y-129520311D01*
X131327864Y-129499883D01*
X131094374Y-129520311D01*
X131089060Y-129521735D01*
X131089059Y-129521735D01*
X130873288Y-129579550D01*
X130873286Y-129579551D01*
X130867978Y-129580973D01*
X130862998Y-129583295D01*
X130862996Y-129583296D01*
X130660543Y-129677702D01*
X130660538Y-129677705D01*
X130655556Y-129680028D01*
X130651049Y-129683184D01*
X130651047Y-129683185D01*
X130468072Y-129811305D01*
X130468069Y-129811307D01*
X130463561Y-129814464D01*
X130297828Y-129980197D01*
X130294671Y-129984705D01*
X130294669Y-129984708D01*
X130166549Y-130167683D01*
X130166548Y-130167685D01*
X130163392Y-130172192D01*
X130161069Y-130177174D01*
X130161066Y-130177179D01*
X130071404Y-130369458D01*
X130064337Y-130384614D01*
X130003675Y-130611010D01*
X129983247Y-130844500D01*
X128855492Y-130844500D01*
X128855778Y-130840133D01*
X128858667Y-130818188D01*
X128859745Y-130810000D01*
X128839650Y-130657363D01*
X128780734Y-130515128D01*
X128687013Y-130392987D01*
X128656349Y-130369458D01*
X128564873Y-130299266D01*
X128509725Y-130276423D01*
X128462955Y-130257050D01*
X128422078Y-130229736D01*
X126147832Y-127955490D01*
X126113806Y-127893178D01*
X126115220Y-127833784D01*
X126150717Y-127701305D01*
X126150717Y-127701304D01*
X126152141Y-127695990D01*
X126172569Y-127462500D01*
X126152141Y-127229010D01*
X126091479Y-127002614D01*
X125994867Y-126795430D01*
X125994750Y-126795179D01*
X125994747Y-126795174D01*
X125992424Y-126790192D01*
X125857988Y-126598197D01*
X125692255Y-126432464D01*
X125687747Y-126429307D01*
X125687744Y-126429305D01*
X125580453Y-126354179D01*
X125500261Y-126298028D01*
X125495279Y-126295705D01*
X125495274Y-126295702D01*
X125292820Y-126201296D01*
X125292818Y-126201295D01*
X125287838Y-126198973D01*
X125282530Y-126197551D01*
X125282528Y-126197550D01*
X125066757Y-126139735D01*
X125066756Y-126139735D01*
X125061442Y-126138311D01*
X124827952Y-126117883D01*
X124594462Y-126138311D01*
X124589148Y-126139735D01*
X124589147Y-126139735D01*
X124373376Y-126197550D01*
X124373374Y-126197551D01*
X124368066Y-126198973D01*
X124363086Y-126201295D01*
X124363084Y-126201296D01*
X124160631Y-126295702D01*
X124160626Y-126295705D01*
X124155644Y-126298028D01*
X124151137Y-126301184D01*
X124151135Y-126301185D01*
X123968160Y-126429305D01*
X123968157Y-126429307D01*
X123963649Y-126432464D01*
X123797916Y-126598197D01*
X123663480Y-126790192D01*
X123661157Y-126795174D01*
X123661154Y-126795179D01*
X123661037Y-126795430D01*
X123564425Y-127002614D01*
X123503763Y-127229010D01*
X123483335Y-127462500D01*
X123503763Y-127695990D01*
X123564425Y-127922386D01*
X123566747Y-127927366D01*
X123566748Y-127927368D01*
X123661154Y-128129821D01*
X123661157Y-128129826D01*
X123663480Y-128134808D01*
X123666636Y-128139315D01*
X123666637Y-128139317D01*
X123787003Y-128311217D01*
X123797916Y-128326803D01*
X123963649Y-128492536D01*
X123968157Y-128495693D01*
X123968160Y-128495695D01*
X124013554Y-128527480D01*
X124155643Y-128626972D01*
X124160625Y-128629295D01*
X124160630Y-128629298D01*
X124362072Y-128723232D01*
X124368066Y-128726027D01*
X124373374Y-128727449D01*
X124373376Y-128727450D01*
X124589147Y-128785265D01*
X124589148Y-128785265D01*
X124594462Y-128786689D01*
X124827952Y-128807117D01*
X125061442Y-128786689D01*
X125066756Y-128785265D01*
X125066757Y-128785265D01*
X125199236Y-128749768D01*
X125270213Y-128751458D01*
X125320942Y-128782380D01*
X127648395Y-131109833D01*
X127682421Y-131172145D01*
X127685300Y-131198928D01*
X127685300Y-148549619D01*
X127665298Y-148617740D01*
X127648395Y-148638714D01*
X126286715Y-150000395D01*
X126224403Y-150034420D01*
X126197620Y-150037300D01*
X100116381Y-150037300D01*
X100048260Y-150017298D01*
X100027286Y-150000395D01*
X98665605Y-148638715D01*
X98631580Y-148576403D01*
X98628700Y-148549620D01*
X98628700Y-146241780D01*
X98648702Y-146173659D01*
X98702358Y-146127166D01*
X98772632Y-146117062D01*
X98837212Y-146146556D01*
X98843778Y-146152669D01*
X99629624Y-146938515D01*
X99640483Y-146950898D01*
X99658987Y-146975013D01*
X99689651Y-146998542D01*
X99781127Y-147068734D01*
X99840043Y-147093138D01*
X99915733Y-147124490D01*
X99915736Y-147124491D01*
X99923363Y-147127650D01*
X99931551Y-147128728D01*
X100037676Y-147142700D01*
X100037681Y-147142700D01*
X100076000Y-147147745D01*
X100084188Y-147146667D01*
X100084189Y-147146667D01*
X100106133Y-147143778D01*
X100122579Y-147142700D01*
X122635421Y-147142700D01*
X122651868Y-147143778D01*
X122682000Y-147147745D01*
X122690188Y-147146667D01*
X122826449Y-147128728D01*
X122834637Y-147127650D01*
X122976872Y-147068734D01*
X123099013Y-146975013D01*
X123169474Y-146883186D01*
X123192734Y-146852873D01*
X123235078Y-146750646D01*
X123248490Y-146718267D01*
X123248491Y-146718264D01*
X123251650Y-146710637D01*
X123258339Y-146659825D01*
X123287061Y-146594899D01*
X123294166Y-146587176D01*
X124334962Y-145546380D01*
X124397274Y-145512354D01*
X124456668Y-145513768D01*
X124589147Y-145549265D01*
X124589148Y-145549265D01*
X124594462Y-145550689D01*
X124827952Y-145571117D01*
X125061442Y-145550689D01*
X125066756Y-145549265D01*
X125066757Y-145549265D01*
X125282528Y-145491450D01*
X125282530Y-145491449D01*
X125287838Y-145490027D01*
X125293832Y-145487232D01*
X125495274Y-145393298D01*
X125495279Y-145393295D01*
X125500261Y-145390972D01*
X125607600Y-145315812D01*
X125687744Y-145259695D01*
X125687747Y-145259693D01*
X125692255Y-145256536D01*
X125857988Y-145090803D01*
X125992424Y-144898808D01*
X125994747Y-144893826D01*
X125994750Y-144893821D01*
X126089156Y-144691368D01*
X126089157Y-144691366D01*
X126091479Y-144686386D01*
X126152141Y-144459990D01*
X126172569Y-144226500D01*
X126152141Y-143993010D01*
X126136618Y-143935078D01*
X126092902Y-143771924D01*
X126092901Y-143771922D01*
X126091479Y-143766614D01*
X126066626Y-143713317D01*
X125994750Y-143559179D01*
X125994747Y-143559174D01*
X125992424Y-143554192D01*
X125989267Y-143549683D01*
X125861147Y-143366708D01*
X125861145Y-143366705D01*
X125857988Y-143362197D01*
X125692255Y-143196464D01*
X125687747Y-143193307D01*
X125687744Y-143193305D01*
X125580453Y-143118179D01*
X125500261Y-143062028D01*
X125495279Y-143059705D01*
X125495274Y-143059702D01*
X125292820Y-142965296D01*
X125292818Y-142965295D01*
X125287838Y-142962973D01*
X125282530Y-142961551D01*
X125282528Y-142961550D01*
X125066757Y-142903735D01*
X125066756Y-142903735D01*
X125061442Y-142902311D01*
X124827952Y-142881883D01*
X124594462Y-142902311D01*
X124589148Y-142903735D01*
X124589147Y-142903735D01*
X124373376Y-142961550D01*
X124373374Y-142961551D01*
X124368066Y-142962973D01*
X124363086Y-142965295D01*
X124363084Y-142965296D01*
X124160631Y-143059702D01*
X124160626Y-143059705D01*
X124155644Y-143062028D01*
X124151137Y-143065184D01*
X124151135Y-143065185D01*
X123968160Y-143193305D01*
X123968157Y-143193307D01*
X123963649Y-143196464D01*
X123797916Y-143362197D01*
X123794759Y-143366705D01*
X123794757Y-143366708D01*
X123666637Y-143549683D01*
X123663480Y-143554192D01*
X123661157Y-143559174D01*
X123661154Y-143559179D01*
X123589278Y-143713317D01*
X123564425Y-143766614D01*
X123563003Y-143771922D01*
X123563002Y-143771924D01*
X123519286Y-143935078D01*
X123503763Y-143993010D01*
X123483335Y-144226500D01*
X123503763Y-144459990D01*
X123505187Y-144465304D01*
X123505187Y-144465305D01*
X123540684Y-144597784D01*
X123538994Y-144668761D01*
X123508072Y-144719490D01*
X122301497Y-145926065D01*
X122289103Y-145936934D01*
X122275640Y-145947264D01*
X122209420Y-145972863D01*
X122198939Y-145973300D01*
X100370381Y-145973300D01*
X100302260Y-145953298D01*
X100281286Y-145936395D01*
X99679711Y-145334821D01*
X118084186Y-145334821D01*
X118093482Y-145346836D01*
X118151386Y-145387381D01*
X118160881Y-145392864D01*
X118363256Y-145487232D01*
X118373548Y-145490978D01*
X118589234Y-145548771D01*
X118600029Y-145550674D01*
X118822477Y-145570136D01*
X118833427Y-145570136D01*
X119055875Y-145550674D01*
X119066670Y-145548771D01*
X119282356Y-145490978D01*
X119292648Y-145487232D01*
X119495023Y-145392864D01*
X119504518Y-145387381D01*
X119563259Y-145346250D01*
X119571635Y-145335771D01*
X119564567Y-145322325D01*
X118840764Y-144598522D01*
X118826820Y-144590908D01*
X118824987Y-144591039D01*
X118818372Y-144595290D01*
X118090616Y-145323046D01*
X118084186Y-145334821D01*
X99679711Y-145334821D01*
X99173605Y-144828715D01*
X99139580Y-144766403D01*
X99136700Y-144739620D01*
X99136700Y-144231975D01*
X117484316Y-144231975D01*
X117503778Y-144454423D01*
X117505681Y-144465218D01*
X117563474Y-144680904D01*
X117567220Y-144691196D01*
X117661588Y-144893570D01*
X117667071Y-144903066D01*
X117708203Y-144961808D01*
X117718680Y-144970183D01*
X117732128Y-144963114D01*
X118455930Y-144239312D01*
X118462308Y-144227632D01*
X119192360Y-144227632D01*
X119192491Y-144229465D01*
X119196742Y-144236080D01*
X119924498Y-144963836D01*
X119936273Y-144970266D01*
X119948288Y-144960970D01*
X119988833Y-144903066D01*
X119994316Y-144893570D01*
X120088684Y-144691196D01*
X120092430Y-144680904D01*
X120150223Y-144465218D01*
X120152126Y-144454423D01*
X120171588Y-144231975D01*
X120171588Y-144221025D01*
X120152126Y-143998577D01*
X120150223Y-143987782D01*
X120092430Y-143772096D01*
X120088684Y-143761804D01*
X119994316Y-143559430D01*
X119988833Y-143549934D01*
X119947701Y-143491192D01*
X119937224Y-143482817D01*
X119923776Y-143489886D01*
X119199974Y-144213688D01*
X119192360Y-144227632D01*
X118462308Y-144227632D01*
X118463544Y-144225368D01*
X118463413Y-144223535D01*
X118459162Y-144216920D01*
X117731406Y-143489164D01*
X117719631Y-143482734D01*
X117707616Y-143492030D01*
X117667071Y-143549934D01*
X117661588Y-143559430D01*
X117567220Y-143761804D01*
X117563474Y-143772096D01*
X117505681Y-143987782D01*
X117503778Y-143998577D01*
X117484316Y-144221025D01*
X117484316Y-144231975D01*
X99136700Y-144231975D01*
X99136700Y-143117228D01*
X118084269Y-143117228D01*
X118091338Y-143130676D01*
X118815140Y-143854478D01*
X118829084Y-143862092D01*
X118830917Y-143861961D01*
X118837532Y-143857710D01*
X119565288Y-143129954D01*
X119571718Y-143118179D01*
X119562422Y-143106164D01*
X119504518Y-143065619D01*
X119495023Y-143060136D01*
X119292648Y-142965768D01*
X119282356Y-142962022D01*
X119066670Y-142904229D01*
X119055875Y-142902326D01*
X118833427Y-142882864D01*
X118822477Y-142882864D01*
X118600029Y-142902326D01*
X118589234Y-142904229D01*
X118373548Y-142962022D01*
X118363256Y-142965768D01*
X118160882Y-143060136D01*
X118151386Y-143065619D01*
X118092644Y-143106751D01*
X118084269Y-143117228D01*
X99136700Y-143117228D01*
X99136700Y-139226500D01*
X117483335Y-139226500D01*
X117503763Y-139459990D01*
X117505187Y-139465304D01*
X117505187Y-139465305D01*
X117532128Y-139565849D01*
X117564425Y-139686386D01*
X117566747Y-139691366D01*
X117566748Y-139691368D01*
X117661154Y-139893821D01*
X117661157Y-139893826D01*
X117663480Y-139898808D01*
X117797916Y-140090803D01*
X117963649Y-140256536D01*
X117968157Y-140259693D01*
X117968160Y-140259695D01*
X118048304Y-140315812D01*
X118155643Y-140390972D01*
X118160625Y-140393295D01*
X118160630Y-140393298D01*
X118363084Y-140487704D01*
X118368066Y-140490027D01*
X118373374Y-140491449D01*
X118373376Y-140491450D01*
X118589147Y-140549265D01*
X118589148Y-140549265D01*
X118594462Y-140550689D01*
X118827952Y-140571117D01*
X119061442Y-140550689D01*
X119066756Y-140549265D01*
X119066757Y-140549265D01*
X119282528Y-140491450D01*
X119282530Y-140491449D01*
X119287838Y-140490027D01*
X119292820Y-140487704D01*
X119495274Y-140393298D01*
X119495279Y-140393295D01*
X119500261Y-140390972D01*
X119607600Y-140315812D01*
X119687744Y-140259695D01*
X119687747Y-140259693D01*
X119692255Y-140256536D01*
X119857988Y-140090803D01*
X119992424Y-139898808D01*
X119994747Y-139893826D01*
X119994750Y-139893821D01*
X120089156Y-139691368D01*
X120089157Y-139691366D01*
X120091479Y-139686386D01*
X120123777Y-139565849D01*
X120150717Y-139465305D01*
X120150717Y-139465304D01*
X120152141Y-139459990D01*
X120172569Y-139226500D01*
X120152141Y-138993010D01*
X120091479Y-138766614D01*
X120089156Y-138761632D01*
X119994750Y-138559179D01*
X119994747Y-138559174D01*
X119992424Y-138554192D01*
X119857988Y-138362197D01*
X119692255Y-138196464D01*
X119687747Y-138193307D01*
X119687744Y-138193305D01*
X119607600Y-138137188D01*
X119500261Y-138062028D01*
X119495279Y-138059705D01*
X119495274Y-138059702D01*
X119292820Y-137965296D01*
X119292818Y-137965295D01*
X119287838Y-137962973D01*
X119282530Y-137961551D01*
X119282528Y-137961550D01*
X119066757Y-137903735D01*
X119066756Y-137903735D01*
X119061442Y-137902311D01*
X118827952Y-137881883D01*
X118594462Y-137902311D01*
X118589148Y-137903735D01*
X118589147Y-137903735D01*
X118373376Y-137961550D01*
X118373374Y-137961551D01*
X118368066Y-137962973D01*
X118363086Y-137965295D01*
X118363084Y-137965296D01*
X118160631Y-138059702D01*
X118160626Y-138059705D01*
X118155644Y-138062028D01*
X118151137Y-138065184D01*
X118151135Y-138065185D01*
X117968160Y-138193305D01*
X117968157Y-138193307D01*
X117963649Y-138196464D01*
X117797916Y-138362197D01*
X117663480Y-138554192D01*
X117661157Y-138559174D01*
X117661154Y-138559179D01*
X117566748Y-138761632D01*
X117564425Y-138766614D01*
X117503763Y-138993010D01*
X117483335Y-139226500D01*
X99136700Y-139226500D01*
X99136700Y-137097780D01*
X99156702Y-137029659D01*
X99210358Y-136983166D01*
X99280632Y-136973062D01*
X99345212Y-137002556D01*
X99351778Y-137008669D01*
X100137624Y-137794515D01*
X100148483Y-137806898D01*
X100166987Y-137831013D01*
X100173537Y-137836039D01*
X100197651Y-137854542D01*
X100259281Y-137901832D01*
X100289127Y-137924734D01*
X100348043Y-137949138D01*
X100423733Y-137980490D01*
X100423736Y-137980491D01*
X100431363Y-137983650D01*
X100439551Y-137984728D01*
X100545676Y-137998700D01*
X100545681Y-137998700D01*
X100584000Y-138003745D01*
X100592188Y-138002667D01*
X100592189Y-138002667D01*
X100614133Y-137999778D01*
X100630579Y-137998700D01*
X110711836Y-137998700D01*
X110728283Y-137999778D01*
X110758414Y-138003745D01*
X110796733Y-137998700D01*
X110796738Y-137998700D01*
X110902863Y-137984728D01*
X110911051Y-137983650D01*
X111011627Y-137941990D01*
X111053287Y-137924734D01*
X111109131Y-137881883D01*
X111175427Y-137831013D01*
X111180453Y-137824463D01*
X111180457Y-137824459D01*
X111193937Y-137806891D01*
X111204805Y-137794499D01*
X111834924Y-137164380D01*
X111897236Y-137130354D01*
X111956630Y-137131768D01*
X112089109Y-137167265D01*
X112089110Y-137167265D01*
X112094424Y-137168689D01*
X112327914Y-137189117D01*
X112561404Y-137168689D01*
X112566718Y-137167265D01*
X112566719Y-137167265D01*
X112782490Y-137109450D01*
X112782492Y-137109449D01*
X112787800Y-137108027D01*
X112809775Y-137097780D01*
X112995236Y-137011298D01*
X112995241Y-137011295D01*
X113000223Y-137008972D01*
X113107562Y-136933812D01*
X113187706Y-136877695D01*
X113187709Y-136877693D01*
X113192217Y-136874536D01*
X113357950Y-136708803D01*
X113365303Y-136698303D01*
X113489229Y-136521317D01*
X113489230Y-136521315D01*
X113492386Y-136516808D01*
X113494709Y-136511826D01*
X113494712Y-136511821D01*
X113589118Y-136309368D01*
X113589119Y-136309366D01*
X113591441Y-136304386D01*
X113634530Y-136143576D01*
X113650679Y-136083305D01*
X113650679Y-136083304D01*
X113652103Y-136077990D01*
X113672531Y-135844500D01*
X113652103Y-135611010D01*
X113591441Y-135384614D01*
X113494829Y-135177430D01*
X113494712Y-135177179D01*
X113494709Y-135177174D01*
X113492386Y-135172192D01*
X113357950Y-134980197D01*
X113192217Y-134814464D01*
X113187709Y-134811307D01*
X113187706Y-134811305D01*
X113080415Y-134736179D01*
X113000223Y-134680028D01*
X112995241Y-134677705D01*
X112995236Y-134677702D01*
X112792782Y-134583296D01*
X112792780Y-134583295D01*
X112787800Y-134580973D01*
X112782492Y-134579551D01*
X112782490Y-134579550D01*
X112566719Y-134521735D01*
X112566718Y-134521735D01*
X112561404Y-134520311D01*
X112327914Y-134499883D01*
X112094424Y-134520311D01*
X112089110Y-134521735D01*
X112089109Y-134521735D01*
X111873338Y-134579550D01*
X111873336Y-134579551D01*
X111868028Y-134580973D01*
X111863048Y-134583295D01*
X111863046Y-134583296D01*
X111660593Y-134677702D01*
X111660588Y-134677705D01*
X111655606Y-134680028D01*
X111651099Y-134683184D01*
X111651097Y-134683185D01*
X111468122Y-134811305D01*
X111468119Y-134811307D01*
X111463611Y-134814464D01*
X111297878Y-134980197D01*
X111163442Y-135172192D01*
X111161119Y-135177174D01*
X111161116Y-135177179D01*
X111160999Y-135177430D01*
X111064387Y-135384614D01*
X111003725Y-135611010D01*
X110983297Y-135844500D01*
X111003725Y-136077990D01*
X111005149Y-136083304D01*
X111005149Y-136083305D01*
X111040646Y-136215784D01*
X111038956Y-136286761D01*
X111008034Y-136337490D01*
X110553129Y-136792395D01*
X110490817Y-136826421D01*
X110464034Y-136829300D01*
X107515011Y-136829300D01*
X107446890Y-136809298D01*
X107400397Y-136755642D01*
X107390293Y-136685368D01*
X107411798Y-136631029D01*
X107488795Y-136521066D01*
X107494278Y-136511570D01*
X107588646Y-136309196D01*
X107592392Y-136298904D01*
X107650185Y-136083218D01*
X107652088Y-136072423D01*
X107671550Y-135849975D01*
X107671550Y-135839025D01*
X107652088Y-135616577D01*
X107650185Y-135605782D01*
X107592392Y-135390096D01*
X107588646Y-135379804D01*
X107494278Y-135177430D01*
X107488795Y-135167934D01*
X107447663Y-135109192D01*
X107437186Y-135100817D01*
X107423738Y-135107886D01*
X106417009Y-136114615D01*
X106354697Y-136148641D01*
X106283882Y-136143576D01*
X106238819Y-136114615D01*
X105231368Y-135107164D01*
X105219593Y-135100734D01*
X105207578Y-135110030D01*
X105167033Y-135167934D01*
X105161550Y-135177430D01*
X105067182Y-135379804D01*
X105063436Y-135390096D01*
X105005643Y-135605782D01*
X105003740Y-135616577D01*
X104984278Y-135839025D01*
X104984278Y-135849975D01*
X105003740Y-136072423D01*
X105005643Y-136083218D01*
X105063436Y-136298904D01*
X105067182Y-136309196D01*
X105161550Y-136511570D01*
X105167033Y-136521066D01*
X105244030Y-136631029D01*
X105266718Y-136698303D01*
X105249433Y-136767164D01*
X105197663Y-136815748D01*
X105140817Y-136829300D01*
X100878381Y-136829300D01*
X100810260Y-136809298D01*
X100789286Y-136792395D01*
X99681605Y-135684715D01*
X99647580Y-135622403D01*
X99644700Y-135595620D01*
X99644700Y-134735228D01*
X105584231Y-134735228D01*
X105591300Y-134748676D01*
X106315102Y-135472478D01*
X106329046Y-135480092D01*
X106330879Y-135479961D01*
X106337494Y-135475710D01*
X107065250Y-134747954D01*
X107071680Y-134736179D01*
X107062384Y-134724164D01*
X107004480Y-134683619D01*
X106994985Y-134678136D01*
X106792610Y-134583768D01*
X106782318Y-134580022D01*
X106566632Y-134522229D01*
X106555837Y-134520326D01*
X106333389Y-134500864D01*
X106322439Y-134500864D01*
X106099991Y-134520326D01*
X106089196Y-134522229D01*
X105873510Y-134580022D01*
X105863218Y-134583768D01*
X105660844Y-134678136D01*
X105651348Y-134683619D01*
X105592606Y-134724751D01*
X105584231Y-134735228D01*
X99644700Y-134735228D01*
X99644700Y-130844500D01*
X104983297Y-130844500D01*
X105003725Y-131077990D01*
X105064387Y-131304386D01*
X105066709Y-131309366D01*
X105066710Y-131309368D01*
X105161116Y-131511821D01*
X105161119Y-131511826D01*
X105163442Y-131516808D01*
X105166598Y-131521315D01*
X105166599Y-131521316D01*
X105297878Y-131708803D01*
X105463611Y-131874536D01*
X105468119Y-131877693D01*
X105468122Y-131877695D01*
X105548266Y-131933812D01*
X105655605Y-132008972D01*
X105660587Y-132011295D01*
X105660592Y-132011298D01*
X105863046Y-132105704D01*
X105868028Y-132108027D01*
X105873336Y-132109449D01*
X105873338Y-132109450D01*
X106089109Y-132167265D01*
X106089110Y-132167265D01*
X106094424Y-132168689D01*
X106327914Y-132189117D01*
X106561404Y-132168689D01*
X106566718Y-132167265D01*
X106566719Y-132167265D01*
X106782490Y-132109450D01*
X106782492Y-132109449D01*
X106787800Y-132108027D01*
X106792782Y-132105704D01*
X106995236Y-132011298D01*
X106995241Y-132011295D01*
X107000223Y-132008972D01*
X107107562Y-131933812D01*
X107187706Y-131877695D01*
X107187709Y-131877693D01*
X107192217Y-131874536D01*
X107357950Y-131708803D01*
X107489230Y-131521316D01*
X107489230Y-131521315D01*
X107492386Y-131516808D01*
X107494709Y-131511826D01*
X107494712Y-131511821D01*
X107589118Y-131309368D01*
X107589119Y-131309366D01*
X107591441Y-131304386D01*
X107652103Y-131077990D01*
X107672531Y-130844500D01*
X107652103Y-130611010D01*
X107591441Y-130384614D01*
X107584374Y-130369458D01*
X107494712Y-130177179D01*
X107494709Y-130177174D01*
X107492386Y-130172192D01*
X107489230Y-130167685D01*
X107489229Y-130167683D01*
X107361109Y-129984708D01*
X107361107Y-129984705D01*
X107357950Y-129980197D01*
X107192217Y-129814464D01*
X107187709Y-129811307D01*
X107187706Y-129811305D01*
X107096547Y-129747475D01*
X107000223Y-129680028D01*
X106995241Y-129677705D01*
X106995236Y-129677702D01*
X106792782Y-129583296D01*
X106792780Y-129583295D01*
X106787800Y-129580973D01*
X106782492Y-129579551D01*
X106782490Y-129579550D01*
X106566719Y-129521735D01*
X106566718Y-129521735D01*
X106561404Y-129520311D01*
X106327914Y-129499883D01*
X106094424Y-129520311D01*
X106089110Y-129521735D01*
X106089109Y-129521735D01*
X105873338Y-129579550D01*
X105873336Y-129579551D01*
X105868028Y-129580973D01*
X105863048Y-129583295D01*
X105863046Y-129583296D01*
X105660593Y-129677702D01*
X105660588Y-129677705D01*
X105655606Y-129680028D01*
X105651099Y-129683184D01*
X105651097Y-129683185D01*
X105468122Y-129811305D01*
X105468119Y-129811307D01*
X105463611Y-129814464D01*
X105297878Y-129980197D01*
X105294721Y-129984705D01*
X105294719Y-129984708D01*
X105166599Y-130167683D01*
X105166598Y-130167685D01*
X105163442Y-130172192D01*
X105161119Y-130177174D01*
X105161116Y-130177179D01*
X105071454Y-130369458D01*
X105064387Y-130384614D01*
X105003725Y-130611010D01*
X104983297Y-130844500D01*
X99644700Y-130844500D01*
X99644700Y-121857780D01*
X99664702Y-121789659D01*
X99718358Y-121743166D01*
X99788632Y-121733062D01*
X99853212Y-121762556D01*
X99859795Y-121768685D01*
X100137613Y-122046503D01*
X100148480Y-122058894D01*
X100166987Y-122083013D01*
X100244614Y-122142577D01*
X100289127Y-122176734D01*
X100330787Y-122193990D01*
X100431363Y-122235650D01*
X100439551Y-122236728D01*
X100545676Y-122250700D01*
X100545681Y-122250700D01*
X100584000Y-122255745D01*
X100592188Y-122254667D01*
X100614133Y-122251778D01*
X100630579Y-122250700D01*
X109681422Y-122250700D01*
X109697869Y-122251778D01*
X109728000Y-122255745D01*
X109766319Y-122250700D01*
X109766324Y-122250700D01*
X109872449Y-122236728D01*
X109880637Y-122235650D01*
X109981213Y-122193990D01*
X110022873Y-122176734D01*
X110067386Y-122142577D01*
X110145013Y-122083013D01*
X110150039Y-122076463D01*
X110150043Y-122076459D01*
X110163523Y-122058891D01*
X110174391Y-122046499D01*
X111587358Y-120633532D01*
X111599738Y-120622673D01*
X111608189Y-120616188D01*
X111685816Y-120556624D01*
X111690842Y-120550074D01*
X111690846Y-120550070D01*
X111704326Y-120532502D01*
X111715194Y-120520110D01*
X111834924Y-120400380D01*
X111897236Y-120366354D01*
X111956630Y-120367768D01*
X112089109Y-120403265D01*
X112089110Y-120403265D01*
X112094424Y-120404689D01*
X112327914Y-120425117D01*
X112561404Y-120404689D01*
X112566718Y-120403265D01*
X112566719Y-120403265D01*
X112782490Y-120345450D01*
X112782492Y-120345449D01*
X112787800Y-120344027D01*
X112793794Y-120341232D01*
X112995236Y-120247298D01*
X112995241Y-120247295D01*
X113000223Y-120244972D01*
X113107562Y-120169812D01*
X113187706Y-120113695D01*
X113187709Y-120113693D01*
X113192217Y-120110536D01*
X113357950Y-119944803D01*
X113435483Y-119834075D01*
X113486087Y-119761804D01*
X113541544Y-119717476D01*
X113612163Y-119710167D01*
X113675524Y-119742197D01*
X113711509Y-119803399D01*
X113715300Y-119834075D01*
X113715300Y-128067300D01*
X113695298Y-128135421D01*
X113641642Y-128181914D01*
X113589300Y-128193300D01*
X113076586Y-128193300D01*
X113060139Y-128192222D01*
X113038188Y-128189332D01*
X113030000Y-128188254D01*
X113021812Y-128189332D01*
X113004731Y-128191581D01*
X112877363Y-128208350D01*
X112735128Y-128267266D01*
X112612987Y-128360987D01*
X112607961Y-128367537D01*
X112607960Y-128367538D01*
X112594483Y-128385102D01*
X112583616Y-128397493D01*
X111947408Y-129033702D01*
X111935015Y-129044570D01*
X111910901Y-129063073D01*
X111851337Y-129140700D01*
X111828210Y-129170838D01*
X111828209Y-129170840D01*
X111817180Y-129185213D01*
X111817180Y-129185214D01*
X111758264Y-129327449D01*
X111743214Y-129441765D01*
X111738169Y-129480086D01*
X111739247Y-129488274D01*
X111742136Y-129510219D01*
X111743214Y-129526665D01*
X111743214Y-129558905D01*
X111723212Y-129627026D01*
X111670465Y-129673099D01*
X111660595Y-129677701D01*
X111660590Y-129677704D01*
X111655606Y-129680028D01*
X111548709Y-129754878D01*
X111468122Y-129811305D01*
X111468119Y-129811307D01*
X111463611Y-129814464D01*
X111297878Y-129980197D01*
X111294721Y-129984705D01*
X111294719Y-129984708D01*
X111166599Y-130167683D01*
X111166598Y-130167685D01*
X111163442Y-130172192D01*
X111161119Y-130177174D01*
X111161116Y-130177179D01*
X111071454Y-130369458D01*
X111064387Y-130384614D01*
X111003725Y-130611010D01*
X110983297Y-130844500D01*
X111003725Y-131077990D01*
X111064387Y-131304386D01*
X111066709Y-131309366D01*
X111066710Y-131309368D01*
X111161116Y-131511821D01*
X111161119Y-131511826D01*
X111163442Y-131516808D01*
X111166598Y-131521315D01*
X111166599Y-131521316D01*
X111297878Y-131708803D01*
X111463611Y-131874536D01*
X111468119Y-131877693D01*
X111468122Y-131877695D01*
X111548266Y-131933812D01*
X111655605Y-132008972D01*
X111660587Y-132011295D01*
X111660592Y-132011298D01*
X111863046Y-132105704D01*
X111868028Y-132108027D01*
X111873336Y-132109449D01*
X111873338Y-132109450D01*
X112089109Y-132167265D01*
X112089110Y-132167265D01*
X112094424Y-132168689D01*
X112327914Y-132189117D01*
X112561404Y-132168689D01*
X112566718Y-132167265D01*
X112566719Y-132167265D01*
X112782490Y-132109450D01*
X112782492Y-132109449D01*
X112787800Y-132108027D01*
X112792782Y-132105704D01*
X112995236Y-132011298D01*
X112995241Y-132011295D01*
X113000223Y-132008972D01*
X113107562Y-131933812D01*
X113187706Y-131877695D01*
X113187709Y-131877693D01*
X113192217Y-131874536D01*
X113357950Y-131708803D01*
X113489230Y-131521316D01*
X113489230Y-131521315D01*
X113492386Y-131516808D01*
X113494709Y-131511826D01*
X113494712Y-131511821D01*
X113589118Y-131309368D01*
X113589119Y-131309366D01*
X113591441Y-131304386D01*
X113652103Y-131077990D01*
X113672531Y-130844500D01*
X113652103Y-130611010D01*
X113591441Y-130384614D01*
X113584374Y-130369458D01*
X113494712Y-130177179D01*
X113494709Y-130177174D01*
X113492386Y-130172192D01*
X113489230Y-130167685D01*
X113489229Y-130167683D01*
X113361109Y-129984708D01*
X113361107Y-129984705D01*
X113357950Y-129980197D01*
X113192217Y-129814464D01*
X113187709Y-129811307D01*
X113187706Y-129811305D01*
X113096548Y-129747475D01*
X113052220Y-129692017D01*
X113044911Y-129621398D01*
X113079724Y-129555167D01*
X113235286Y-129399605D01*
X113297598Y-129365579D01*
X113324381Y-129362700D01*
X114253421Y-129362700D01*
X114269868Y-129363778D01*
X114300000Y-129367745D01*
X114308188Y-129366667D01*
X114330133Y-129363778D01*
X114346579Y-129362700D01*
X116799620Y-129362700D01*
X116867741Y-129382702D01*
X116888715Y-129399605D01*
X124206347Y-136717238D01*
X124240373Y-136779550D01*
X124243252Y-136806333D01*
X124243252Y-137940905D01*
X124223250Y-138009026D01*
X124170503Y-138055099D01*
X124160633Y-138059701D01*
X124160628Y-138059704D01*
X124155644Y-138062028D01*
X124048747Y-138136878D01*
X123968160Y-138193305D01*
X123968157Y-138193307D01*
X123963649Y-138196464D01*
X123797916Y-138362197D01*
X123663480Y-138554192D01*
X123661157Y-138559174D01*
X123661154Y-138559179D01*
X123566748Y-138761632D01*
X123564425Y-138766614D01*
X123503763Y-138993010D01*
X123483335Y-139226500D01*
X123503763Y-139459990D01*
X123505187Y-139465304D01*
X123505187Y-139465305D01*
X123532128Y-139565849D01*
X123564425Y-139686386D01*
X123566747Y-139691366D01*
X123566748Y-139691368D01*
X123661154Y-139893821D01*
X123661157Y-139893826D01*
X123663480Y-139898808D01*
X123797916Y-140090803D01*
X123963649Y-140256536D01*
X123968157Y-140259693D01*
X123968160Y-140259695D01*
X124048304Y-140315812D01*
X124155643Y-140390972D01*
X124160625Y-140393295D01*
X124160630Y-140393298D01*
X124363084Y-140487704D01*
X124368066Y-140490027D01*
X124373374Y-140491449D01*
X124373376Y-140491450D01*
X124589147Y-140549265D01*
X124589148Y-140549265D01*
X124594462Y-140550689D01*
X124827952Y-140571117D01*
X125061442Y-140550689D01*
X125066756Y-140549265D01*
X125066757Y-140549265D01*
X125282528Y-140491450D01*
X125282530Y-140491449D01*
X125287838Y-140490027D01*
X125292820Y-140487704D01*
X125495274Y-140393298D01*
X125495279Y-140393295D01*
X125500261Y-140390972D01*
X125607600Y-140315812D01*
X125687744Y-140259695D01*
X125687747Y-140259693D01*
X125692255Y-140256536D01*
X125857988Y-140090803D01*
X125992424Y-139898808D01*
X125994747Y-139893826D01*
X125994750Y-139893821D01*
X126089156Y-139691368D01*
X126089157Y-139691366D01*
X126091479Y-139686386D01*
X126123777Y-139565849D01*
X126150717Y-139465305D01*
X126150717Y-139465304D01*
X126152141Y-139459990D01*
X126172569Y-139226500D01*
X126152141Y-138993010D01*
X126091479Y-138766614D01*
X126089156Y-138761632D01*
X125994750Y-138559179D01*
X125994747Y-138559174D01*
X125992424Y-138554192D01*
X125857988Y-138362197D01*
X125692255Y-138196464D01*
X125687747Y-138193307D01*
X125687744Y-138193305D01*
X125607600Y-138137188D01*
X125500261Y-138062028D01*
X125495280Y-138059705D01*
X125495269Y-138059699D01*
X125485401Y-138055098D01*
X125432116Y-138008181D01*
X125412652Y-137940904D01*
X125412652Y-136558538D01*
X125413730Y-136542091D01*
X125416620Y-136520140D01*
X125417698Y-136511952D01*
X125397602Y-136359315D01*
X125338686Y-136217079D01*
X125268495Y-136125604D01*
X125268494Y-136125603D01*
X125244965Y-136094939D01*
X125220845Y-136076431D01*
X125208455Y-136065564D01*
X122502845Y-133359954D01*
X117885144Y-128742254D01*
X117851118Y-128679942D01*
X117856183Y-128609127D01*
X117898730Y-128552291D01*
X117965250Y-128527480D01*
X118034624Y-128542571D01*
X118046510Y-128549946D01*
X118151386Y-128623381D01*
X118160881Y-128628864D01*
X118363256Y-128723232D01*
X118373548Y-128726978D01*
X118589234Y-128784771D01*
X118600029Y-128786674D01*
X118822477Y-128806136D01*
X118833427Y-128806136D01*
X119055875Y-128786674D01*
X119066670Y-128784771D01*
X119282356Y-128726978D01*
X119292648Y-128723232D01*
X119495023Y-128628864D01*
X119504518Y-128623381D01*
X119563259Y-128582250D01*
X119571635Y-128571771D01*
X119564567Y-128558325D01*
X118469874Y-127463632D01*
X119192360Y-127463632D01*
X119192491Y-127465465D01*
X119196742Y-127472080D01*
X119924498Y-128199836D01*
X119936273Y-128206266D01*
X119948288Y-128196970D01*
X119988833Y-128139066D01*
X119994316Y-128129570D01*
X120088684Y-127927196D01*
X120092430Y-127916904D01*
X120150223Y-127701218D01*
X120152126Y-127690423D01*
X120171588Y-127467975D01*
X120171588Y-127457025D01*
X120152126Y-127234577D01*
X120150223Y-127223782D01*
X120092430Y-127008096D01*
X120088684Y-126997804D01*
X119994316Y-126795430D01*
X119988833Y-126785934D01*
X119947701Y-126727192D01*
X119937224Y-126718817D01*
X119923776Y-126725886D01*
X119199974Y-127449688D01*
X119192360Y-127463632D01*
X118469874Y-127463632D01*
X117731406Y-126725164D01*
X117719631Y-126718734D01*
X117707616Y-126728030D01*
X117667071Y-126785934D01*
X117661588Y-126795430D01*
X117567220Y-126997804D01*
X117563474Y-127008096D01*
X117505681Y-127223782D01*
X117503778Y-127234577D01*
X117484316Y-127457025D01*
X117484316Y-127467975D01*
X117503778Y-127690423D01*
X117505681Y-127701218D01*
X117563474Y-127916904D01*
X117567220Y-127927196D01*
X117661588Y-128129570D01*
X117667071Y-128139066D01*
X117740507Y-128243943D01*
X117763195Y-128311217D01*
X117745910Y-128380078D01*
X117694140Y-128428662D01*
X117624322Y-128441545D01*
X117558623Y-128414636D01*
X117548199Y-128405309D01*
X117540387Y-128397497D01*
X117529519Y-128385105D01*
X117516039Y-128367537D01*
X117511013Y-128360987D01*
X117433386Y-128301423D01*
X117388873Y-128267266D01*
X117347213Y-128250010D01*
X117246637Y-128208350D01*
X117238449Y-128207272D01*
X117132324Y-128193300D01*
X117132319Y-128193300D01*
X117094000Y-128188255D01*
X117085812Y-128189333D01*
X117063867Y-128192222D01*
X117047421Y-128193300D01*
X115010700Y-128193300D01*
X114942579Y-128173298D01*
X114896086Y-128119642D01*
X114884700Y-128067300D01*
X114884700Y-126353228D01*
X118084269Y-126353228D01*
X118091338Y-126366676D01*
X118815140Y-127090478D01*
X118829084Y-127098092D01*
X118830917Y-127097961D01*
X118837532Y-127093710D01*
X119565288Y-126365954D01*
X119571718Y-126354179D01*
X119562422Y-126342164D01*
X119504518Y-126301619D01*
X119495023Y-126296136D01*
X119292648Y-126201768D01*
X119282356Y-126198022D01*
X119066670Y-126140229D01*
X119055875Y-126138326D01*
X118833427Y-126118864D01*
X118822477Y-126118864D01*
X118600029Y-126138326D01*
X118589234Y-126140229D01*
X118373548Y-126198022D01*
X118363256Y-126201768D01*
X118160882Y-126296136D01*
X118151386Y-126301619D01*
X118092644Y-126342751D01*
X118084269Y-126353228D01*
X114884700Y-126353228D01*
X114884700Y-122462500D01*
X117483335Y-122462500D01*
X117503763Y-122695990D01*
X117564425Y-122922386D01*
X117566747Y-122927366D01*
X117566748Y-122927368D01*
X117661154Y-123129821D01*
X117661157Y-123129826D01*
X117663480Y-123134808D01*
X117797916Y-123326803D01*
X117963649Y-123492536D01*
X117968157Y-123495693D01*
X117968160Y-123495695D01*
X118048304Y-123551812D01*
X118155643Y-123626972D01*
X118160625Y-123629295D01*
X118160630Y-123629298D01*
X118363084Y-123723704D01*
X118368066Y-123726027D01*
X118373374Y-123727449D01*
X118373376Y-123727450D01*
X118589147Y-123785265D01*
X118589148Y-123785265D01*
X118594462Y-123786689D01*
X118827952Y-123807117D01*
X119061442Y-123786689D01*
X119066756Y-123785265D01*
X119066757Y-123785265D01*
X119282528Y-123727450D01*
X119282530Y-123727449D01*
X119287838Y-123726027D01*
X119292820Y-123723704D01*
X119495274Y-123629298D01*
X119495279Y-123629295D01*
X119500261Y-123626972D01*
X119607600Y-123551812D01*
X119687744Y-123495695D01*
X119687747Y-123495693D01*
X119692255Y-123492536D01*
X119857988Y-123326803D01*
X119992424Y-123134808D01*
X119994747Y-123129826D01*
X119994750Y-123129821D01*
X120089156Y-122927368D01*
X120089157Y-122927366D01*
X120091479Y-122922386D01*
X120152141Y-122695990D01*
X120172569Y-122462500D01*
X120152141Y-122229010D01*
X120091479Y-122002614D01*
X120089156Y-121997632D01*
X119994750Y-121795179D01*
X119994747Y-121795174D01*
X119992424Y-121790192D01*
X119959496Y-121743166D01*
X119861147Y-121602708D01*
X119861145Y-121602705D01*
X119857988Y-121598197D01*
X119692255Y-121432464D01*
X119687747Y-121429307D01*
X119687744Y-121429305D01*
X119607600Y-121373188D01*
X119500261Y-121298028D01*
X119495279Y-121295705D01*
X119495274Y-121295702D01*
X119292820Y-121201296D01*
X119292818Y-121201295D01*
X119287838Y-121198973D01*
X119282530Y-121197551D01*
X119282528Y-121197550D01*
X119066757Y-121139735D01*
X119066756Y-121139735D01*
X119061442Y-121138311D01*
X118827952Y-121117883D01*
X118594462Y-121138311D01*
X118589148Y-121139735D01*
X118589147Y-121139735D01*
X118373376Y-121197550D01*
X118373374Y-121197551D01*
X118368066Y-121198973D01*
X118363086Y-121201295D01*
X118363084Y-121201296D01*
X118160631Y-121295702D01*
X118160626Y-121295705D01*
X118155644Y-121298028D01*
X118151137Y-121301184D01*
X118151135Y-121301185D01*
X117968160Y-121429305D01*
X117968157Y-121429307D01*
X117963649Y-121432464D01*
X117797916Y-121598197D01*
X117794759Y-121602705D01*
X117794757Y-121602708D01*
X117696408Y-121743166D01*
X117663480Y-121790192D01*
X117661157Y-121795174D01*
X117661154Y-121795179D01*
X117566748Y-121997632D01*
X117564425Y-122002614D01*
X117503763Y-122229010D01*
X117483335Y-122462500D01*
X114884700Y-122462500D01*
X114884700Y-118566700D01*
X114904702Y-118498579D01*
X114958358Y-118452086D01*
X115010700Y-118440700D01*
X123403619Y-118440700D01*
X123471740Y-118460702D01*
X123492715Y-118477605D01*
X124206348Y-119191239D01*
X124240373Y-119253551D01*
X124243252Y-119280334D01*
X124243252Y-121176905D01*
X124223250Y-121245026D01*
X124170503Y-121291099D01*
X124160633Y-121295701D01*
X124160628Y-121295704D01*
X124155644Y-121298028D01*
X124048747Y-121372878D01*
X123968160Y-121429305D01*
X123968157Y-121429307D01*
X123963649Y-121432464D01*
X123797916Y-121598197D01*
X123794759Y-121602705D01*
X123794757Y-121602708D01*
X123696408Y-121743166D01*
X123663480Y-121790192D01*
X123661157Y-121795174D01*
X123661154Y-121795179D01*
X123566748Y-121997632D01*
X123564425Y-122002614D01*
X123503763Y-122229010D01*
X123483335Y-122462500D01*
X123503763Y-122695990D01*
X123564425Y-122922386D01*
X123566747Y-122927366D01*
X123566748Y-122927368D01*
X123661154Y-123129821D01*
X123661157Y-123129826D01*
X123663480Y-123134808D01*
X123797916Y-123326803D01*
X123963649Y-123492536D01*
X123968157Y-123495693D01*
X123968160Y-123495695D01*
X124048304Y-123551812D01*
X124155643Y-123626972D01*
X124160625Y-123629295D01*
X124160630Y-123629298D01*
X124363084Y-123723704D01*
X124368066Y-123726027D01*
X124373374Y-123727449D01*
X124373376Y-123727450D01*
X124589147Y-123785265D01*
X124589148Y-123785265D01*
X124594462Y-123786689D01*
X124827952Y-123807117D01*
X125061442Y-123786689D01*
X125066756Y-123785265D01*
X125066757Y-123785265D01*
X125282528Y-123727450D01*
X125282530Y-123727449D01*
X125287838Y-123726027D01*
X125292820Y-123723704D01*
X125495274Y-123629298D01*
X125495279Y-123629295D01*
X125500261Y-123626972D01*
X125607600Y-123551812D01*
X125687744Y-123495695D01*
X125687747Y-123495693D01*
X125692255Y-123492536D01*
X125857988Y-123326803D01*
X125992424Y-123134808D01*
X125994747Y-123129826D01*
X125994750Y-123129821D01*
X126089156Y-122927368D01*
X126089157Y-122927366D01*
X126091479Y-122922386D01*
X126152141Y-122695990D01*
X126172569Y-122462500D01*
X126152141Y-122229010D01*
X126091479Y-122002614D01*
X126089156Y-121997632D01*
X125994750Y-121795179D01*
X125994747Y-121795174D01*
X125992424Y-121790192D01*
X125959496Y-121743166D01*
X125861147Y-121602708D01*
X125861145Y-121602705D01*
X125857988Y-121598197D01*
X125692255Y-121432464D01*
X125687747Y-121429307D01*
X125687744Y-121429305D01*
X125607600Y-121373188D01*
X125500261Y-121298028D01*
X125495280Y-121295705D01*
X125495269Y-121295699D01*
X125485401Y-121291098D01*
X125432116Y-121244181D01*
X125412652Y-121176904D01*
X125412652Y-120188821D01*
X130584098Y-120188821D01*
X130593394Y-120200836D01*
X130651298Y-120241381D01*
X130660793Y-120246864D01*
X130863168Y-120341232D01*
X130873460Y-120344978D01*
X131089146Y-120402771D01*
X131099941Y-120404674D01*
X131322389Y-120424136D01*
X131333339Y-120424136D01*
X131555787Y-120404674D01*
X131566582Y-120402771D01*
X131782268Y-120344978D01*
X131792560Y-120341232D01*
X131994935Y-120246864D01*
X132004430Y-120241381D01*
X132063171Y-120200250D01*
X132071547Y-120189771D01*
X132064479Y-120176325D01*
X131340676Y-119452522D01*
X131326732Y-119444908D01*
X131324899Y-119445039D01*
X131318284Y-119449290D01*
X130590528Y-120177046D01*
X130584098Y-120188821D01*
X125412652Y-120188821D01*
X125412652Y-119085975D01*
X129984228Y-119085975D01*
X130003690Y-119308423D01*
X130005593Y-119319218D01*
X130063386Y-119534904D01*
X130067132Y-119545196D01*
X130161500Y-119747570D01*
X130166983Y-119757066D01*
X130208115Y-119815808D01*
X130218592Y-119824183D01*
X130232040Y-119817114D01*
X130955842Y-119093312D01*
X130962220Y-119081632D01*
X131692272Y-119081632D01*
X131692403Y-119083465D01*
X131696654Y-119090080D01*
X132424410Y-119817836D01*
X132436185Y-119824266D01*
X132448200Y-119814970D01*
X132488745Y-119757066D01*
X132494228Y-119747570D01*
X132588596Y-119545196D01*
X132592342Y-119534904D01*
X132650135Y-119319218D01*
X132652038Y-119308423D01*
X132671500Y-119085975D01*
X132671500Y-119075025D01*
X132652038Y-118852577D01*
X132650135Y-118841782D01*
X132592342Y-118626096D01*
X132588596Y-118615804D01*
X132494228Y-118413430D01*
X132488745Y-118403934D01*
X132447613Y-118345192D01*
X132437136Y-118336817D01*
X132423688Y-118343886D01*
X131699886Y-119067688D01*
X131692272Y-119081632D01*
X130962220Y-119081632D01*
X130963456Y-119079368D01*
X130963325Y-119077535D01*
X130959074Y-119070920D01*
X130231318Y-118343164D01*
X130219543Y-118336734D01*
X130207528Y-118346030D01*
X130166983Y-118403934D01*
X130161500Y-118413430D01*
X130067132Y-118615804D01*
X130063386Y-118626096D01*
X130005593Y-118841782D01*
X130003690Y-118852577D01*
X129984228Y-119075025D01*
X129984228Y-119085975D01*
X125412652Y-119085975D01*
X125412652Y-119032530D01*
X125413730Y-119016083D01*
X125416619Y-118994140D01*
X125417697Y-118985952D01*
X125410049Y-118927863D01*
X125397602Y-118833315D01*
X125363090Y-118749995D01*
X125338686Y-118691079D01*
X125268494Y-118599603D01*
X125244965Y-118568939D01*
X125220850Y-118550435D01*
X125208459Y-118539567D01*
X124640120Y-117971228D01*
X130584181Y-117971228D01*
X130591250Y-117984676D01*
X131315052Y-118708478D01*
X131328996Y-118716092D01*
X131330829Y-118715961D01*
X131337444Y-118711710D01*
X132065200Y-117983954D01*
X132071630Y-117972179D01*
X132062334Y-117960164D01*
X132004430Y-117919619D01*
X131994935Y-117914136D01*
X131792560Y-117819768D01*
X131782268Y-117816022D01*
X131566582Y-117758229D01*
X131555787Y-117756326D01*
X131333339Y-117736864D01*
X131322389Y-117736864D01*
X131099941Y-117756326D01*
X131089146Y-117758229D01*
X130873460Y-117816022D01*
X130863168Y-117819768D01*
X130660794Y-117914136D01*
X130651298Y-117919619D01*
X130592556Y-117960751D01*
X130584181Y-117971228D01*
X124640120Y-117971228D01*
X124613986Y-117945094D01*
X124579960Y-117882782D01*
X124585025Y-117811967D01*
X124613986Y-117766904D01*
X126656904Y-115723986D01*
X126719216Y-115689960D01*
X126790031Y-115695025D01*
X126835094Y-115723986D01*
X127061619Y-115950511D01*
X127072487Y-115962903D01*
X127090987Y-115987013D01*
X127121651Y-116010542D01*
X127121652Y-116010543D01*
X127213127Y-116080734D01*
X127355363Y-116139650D01*
X127482731Y-116156419D01*
X127499805Y-116158667D01*
X127508000Y-116159746D01*
X127516196Y-116158667D01*
X127538138Y-116155778D01*
X127554585Y-116154700D01*
X132893300Y-116154700D01*
X132961421Y-116174702D01*
X133007914Y-116228358D01*
X133019300Y-116280700D01*
X133019300Y-130763421D01*
X133018222Y-130779867D01*
X133014255Y-130810000D01*
X133015333Y-130818188D01*
X133018222Y-130840131D01*
X133019300Y-130856578D01*
X133019300Y-139266058D01*
X133018222Y-139282505D01*
X133014255Y-139312636D01*
X133019300Y-139350955D01*
X133019300Y-139350957D01*
X133034350Y-139465273D01*
X133076010Y-139565849D01*
X133093266Y-139607509D01*
X133120893Y-139643513D01*
X133186987Y-139729649D01*
X133193537Y-139734675D01*
X133193541Y-139734679D01*
X133211109Y-139748159D01*
X133223501Y-139759027D01*
X136007984Y-142543510D01*
X136042010Y-142605822D01*
X136040596Y-142665216D01*
X136003675Y-142803010D01*
X135983247Y-143036500D01*
X136003675Y-143269990D01*
X136005099Y-143275304D01*
X136005099Y-143275305D01*
X136028382Y-143362197D01*
X136064337Y-143496386D01*
X136066659Y-143501366D01*
X136066660Y-143501368D01*
X136161066Y-143703821D01*
X136161069Y-143703826D01*
X136163392Y-143708808D01*
X136166548Y-143713315D01*
X136166549Y-143713317D01*
X136270631Y-143861961D01*
X136297828Y-143900803D01*
X136463561Y-144066536D01*
X136468069Y-144069693D01*
X136468072Y-144069695D01*
X136514270Y-144102043D01*
X136655555Y-144200972D01*
X136660537Y-144203295D01*
X136660542Y-144203298D01*
X136862996Y-144297704D01*
X136867978Y-144300027D01*
X136873286Y-144301449D01*
X136873288Y-144301450D01*
X137089059Y-144359265D01*
X137089060Y-144359265D01*
X137094374Y-144360689D01*
X137327864Y-144381117D01*
X137561354Y-144360689D01*
X137566668Y-144359265D01*
X137566669Y-144359265D01*
X137782440Y-144301450D01*
X137782442Y-144301449D01*
X137787750Y-144300027D01*
X137792732Y-144297704D01*
X137995186Y-144203298D01*
X137995191Y-144203295D01*
X138000173Y-144200972D01*
X138141458Y-144102043D01*
X138187656Y-144069695D01*
X138187659Y-144069693D01*
X138192167Y-144066536D01*
X138357900Y-143900803D01*
X138385098Y-143861961D01*
X138489179Y-143713317D01*
X138489180Y-143713315D01*
X138492336Y-143708808D01*
X138494659Y-143703826D01*
X138494662Y-143703821D01*
X138589068Y-143501368D01*
X138589069Y-143501366D01*
X138591391Y-143496386D01*
X138627347Y-143362197D01*
X138650629Y-143275305D01*
X138650629Y-143275304D01*
X138652053Y-143269990D01*
X138672481Y-143036500D01*
X138652053Y-142803010D01*
X138591391Y-142576614D01*
X138575954Y-142543510D01*
X138494662Y-142369179D01*
X138494659Y-142369174D01*
X138492336Y-142364192D01*
X138357900Y-142172197D01*
X138192167Y-142006464D01*
X138187659Y-142003307D01*
X138187656Y-142003305D01*
X138107512Y-141947188D01*
X138000173Y-141872028D01*
X137995191Y-141869705D01*
X137995186Y-141869702D01*
X137792732Y-141775296D01*
X137792730Y-141775295D01*
X137787750Y-141772973D01*
X137782442Y-141771551D01*
X137782440Y-141771550D01*
X137566669Y-141713735D01*
X137566668Y-141713735D01*
X137561354Y-141712311D01*
X137327864Y-141691883D01*
X137094374Y-141712311D01*
X137089060Y-141713735D01*
X137089059Y-141713735D01*
X136956580Y-141749232D01*
X136885603Y-141747542D01*
X136834874Y-141716620D01*
X134225605Y-139107351D01*
X134191579Y-139045039D01*
X134188700Y-139018256D01*
X134188700Y-131555200D01*
X134208702Y-131487079D01*
X134262358Y-131440586D01*
X134314700Y-131429200D01*
X136042269Y-131429200D01*
X136110390Y-131449202D01*
X136156463Y-131501949D01*
X136161065Y-131511819D01*
X136161066Y-131511821D01*
X136163392Y-131516808D01*
X136297828Y-131708803D01*
X136463561Y-131874536D01*
X136468069Y-131877693D01*
X136468072Y-131877695D01*
X136548216Y-131933812D01*
X136655555Y-132008972D01*
X136660537Y-132011295D01*
X136660542Y-132011298D01*
X136862996Y-132105704D01*
X136867978Y-132108027D01*
X136873286Y-132109449D01*
X136873288Y-132109450D01*
X137089059Y-132167265D01*
X137089060Y-132167265D01*
X137094374Y-132168689D01*
X137327864Y-132189117D01*
X137561354Y-132168689D01*
X137566668Y-132167265D01*
X137566669Y-132167265D01*
X137782440Y-132109450D01*
X137782442Y-132109449D01*
X137787750Y-132108027D01*
X137792732Y-132105704D01*
X137995186Y-132011298D01*
X137995191Y-132011295D01*
X138000173Y-132008972D01*
X138107512Y-131933812D01*
X138187656Y-131877695D01*
X138187659Y-131877693D01*
X138192167Y-131874536D01*
X138357900Y-131708803D01*
X138489180Y-131521316D01*
X138489180Y-131521315D01*
X138492336Y-131516808D01*
X138494659Y-131511826D01*
X138494662Y-131511821D01*
X138589068Y-131309368D01*
X138589069Y-131309366D01*
X138591391Y-131304386D01*
X138652053Y-131077990D01*
X138672481Y-130844500D01*
X138652053Y-130611010D01*
X138591391Y-130384614D01*
X138584324Y-130369458D01*
X138494662Y-130177179D01*
X138494659Y-130177174D01*
X138492336Y-130172192D01*
X138489180Y-130167685D01*
X138489179Y-130167683D01*
X138361059Y-129984708D01*
X138361057Y-129984705D01*
X138357900Y-129980197D01*
X138192167Y-129814464D01*
X138187659Y-129811307D01*
X138187656Y-129811305D01*
X138096497Y-129747475D01*
X138000173Y-129680028D01*
X137995191Y-129677705D01*
X137995186Y-129677702D01*
X137792732Y-129583296D01*
X137792730Y-129583295D01*
X137787750Y-129580973D01*
X137782442Y-129579551D01*
X137782440Y-129579550D01*
X137566669Y-129521735D01*
X137566668Y-129521735D01*
X137561354Y-129520311D01*
X137327864Y-129499883D01*
X137094374Y-129520311D01*
X137089060Y-129521735D01*
X137089059Y-129521735D01*
X136873288Y-129579550D01*
X136873286Y-129579551D01*
X136867978Y-129580973D01*
X136862998Y-129583295D01*
X136862996Y-129583296D01*
X136660543Y-129677702D01*
X136660538Y-129677705D01*
X136655556Y-129680028D01*
X136651049Y-129683184D01*
X136651047Y-129683185D01*
X136468072Y-129811305D01*
X136468069Y-129811307D01*
X136463561Y-129814464D01*
X136297828Y-129980197D01*
X136163392Y-130172192D01*
X136161068Y-130177176D01*
X136161065Y-130177181D01*
X136156463Y-130187051D01*
X136109546Y-130240336D01*
X136042269Y-130259800D01*
X134314700Y-130259800D01*
X134246579Y-130239798D01*
X134200086Y-130186142D01*
X134188700Y-130133800D01*
X134188700Y-116280700D01*
X134208702Y-116212579D01*
X134262358Y-116166086D01*
X134314700Y-116154700D01*
X135791786Y-116154700D01*
X135808233Y-116155778D01*
X135838364Y-116159745D01*
X135876683Y-116154700D01*
X135876688Y-116154700D01*
X135982813Y-116140728D01*
X135991001Y-116139650D01*
X136091577Y-116097990D01*
X136133237Y-116080734D01*
X136177750Y-116046577D01*
X136255377Y-115987013D01*
X136260403Y-115980463D01*
X136260407Y-115980459D01*
X136273887Y-115962891D01*
X136284755Y-115950499D01*
X136834874Y-115400380D01*
X136897186Y-115366354D01*
X136956580Y-115367768D01*
X137089059Y-115403265D01*
X137089060Y-115403265D01*
X137094374Y-115404689D01*
X137327864Y-115425117D01*
X137561354Y-115404689D01*
X137566668Y-115403265D01*
X137566669Y-115403265D01*
X137782440Y-115345450D01*
X137782442Y-115345449D01*
X137787750Y-115344027D01*
X137792732Y-115341704D01*
X137995186Y-115247298D01*
X137995191Y-115247295D01*
X138000173Y-115244972D01*
X138107512Y-115169812D01*
X138187656Y-115113695D01*
X138187659Y-115113693D01*
X138192167Y-115110536D01*
X138357900Y-114944803D01*
X138373053Y-114923163D01*
X138489179Y-114757317D01*
X138489180Y-114757315D01*
X138492336Y-114752808D01*
X138494659Y-114747826D01*
X138494662Y-114747821D01*
X138589068Y-114545368D01*
X138589069Y-114545366D01*
X138591391Y-114540386D01*
X138652053Y-114313990D01*
X138672481Y-114080500D01*
X138652053Y-113847010D01*
X138591391Y-113620614D01*
X138589068Y-113615632D01*
X138494662Y-113413179D01*
X138494659Y-113413174D01*
X138492336Y-113408192D01*
X138357900Y-113216197D01*
X138192167Y-113050464D01*
X138187659Y-113047307D01*
X138187656Y-113047305D01*
X138107512Y-112991188D01*
X138000173Y-112916028D01*
X137995191Y-112913705D01*
X137995186Y-112913702D01*
X137792732Y-112819296D01*
X137792730Y-112819295D01*
X137787750Y-112816973D01*
X137782442Y-112815551D01*
X137782440Y-112815550D01*
X137566669Y-112757735D01*
X137566668Y-112757735D01*
X137561354Y-112756311D01*
X137327864Y-112735883D01*
X137094374Y-112756311D01*
X137089060Y-112757735D01*
X137089059Y-112757735D01*
X136873288Y-112815550D01*
X136873286Y-112815551D01*
X136867978Y-112816973D01*
X136862998Y-112819295D01*
X136862996Y-112819296D01*
X136660543Y-112913702D01*
X136660538Y-112913705D01*
X136655556Y-112916028D01*
X136651049Y-112919184D01*
X136651047Y-112919185D01*
X136468072Y-113047305D01*
X136468069Y-113047307D01*
X136463561Y-113050464D01*
X136297828Y-113216197D01*
X136163392Y-113408192D01*
X136161069Y-113413174D01*
X136161066Y-113413179D01*
X136066660Y-113615632D01*
X136064337Y-113620614D01*
X136003675Y-113847010D01*
X135983247Y-114080500D01*
X136003675Y-114313990D01*
X136005099Y-114319304D01*
X136005099Y-114319305D01*
X136040596Y-114451784D01*
X136038906Y-114522761D01*
X136007984Y-114573490D01*
X135633079Y-114948395D01*
X135570767Y-114982421D01*
X135543984Y-114985300D01*
X133650579Y-114985300D01*
X133634133Y-114984222D01*
X133612188Y-114981333D01*
X133604000Y-114980255D01*
X133595812Y-114981333D01*
X133573867Y-114984222D01*
X133557421Y-114985300D01*
X132571587Y-114985300D01*
X132503466Y-114965298D01*
X132456973Y-114911642D01*
X132446869Y-114841368D01*
X132468374Y-114787029D01*
X132492336Y-114752808D01*
X132494659Y-114747826D01*
X132494662Y-114747821D01*
X132589068Y-114545368D01*
X132589069Y-114545366D01*
X132591391Y-114540386D01*
X132652053Y-114313990D01*
X132672481Y-114080500D01*
X132652053Y-113847010D01*
X132591391Y-113620614D01*
X132589068Y-113615632D01*
X132494662Y-113413179D01*
X132494659Y-113413174D01*
X132492336Y-113408192D01*
X132357900Y-113216197D01*
X132192167Y-113050464D01*
X132187659Y-113047307D01*
X132187656Y-113047305D01*
X132107512Y-112991188D01*
X132000173Y-112916028D01*
X131995191Y-112913705D01*
X131995186Y-112913702D01*
X131792732Y-112819296D01*
X131792730Y-112819295D01*
X131787750Y-112816973D01*
X131782442Y-112815551D01*
X131782440Y-112815550D01*
X131566669Y-112757735D01*
X131566668Y-112757735D01*
X131561354Y-112756311D01*
X131327864Y-112735883D01*
X131094374Y-112756311D01*
X131089060Y-112757735D01*
X131089059Y-112757735D01*
X130873288Y-112815550D01*
X130873286Y-112815551D01*
X130867978Y-112816973D01*
X130862998Y-112819295D01*
X130862996Y-112819296D01*
X130660543Y-112913702D01*
X130660538Y-112913705D01*
X130655556Y-112916028D01*
X130651049Y-112919184D01*
X130651047Y-112919185D01*
X130468072Y-113047305D01*
X130468069Y-113047307D01*
X130463561Y-113050464D01*
X130297828Y-113216197D01*
X130163392Y-113408192D01*
X130161069Y-113413174D01*
X130161066Y-113413179D01*
X130066660Y-113615632D01*
X130064337Y-113620614D01*
X130003675Y-113847010D01*
X129983247Y-114080500D01*
X130003675Y-114313990D01*
X130064337Y-114540386D01*
X130066659Y-114545366D01*
X130066660Y-114545368D01*
X130161066Y-114747821D01*
X130161069Y-114747826D01*
X130163392Y-114752808D01*
X130187354Y-114787029D01*
X130210042Y-114854303D01*
X130192757Y-114923163D01*
X130140988Y-114971748D01*
X130084141Y-114985300D01*
X127802382Y-114985300D01*
X127734261Y-114965298D01*
X127713287Y-114948396D01*
X127367605Y-114602715D01*
X127333580Y-114540402D01*
X127330700Y-114513619D01*
X127330700Y-107663138D01*
X127331778Y-107646691D01*
X127334667Y-107624748D01*
X127335745Y-107616560D01*
X127330700Y-107578239D01*
X127315650Y-107463923D01*
X127256734Y-107321688D01*
X127256734Y-107321687D01*
X127186542Y-107230211D01*
X127163013Y-107199547D01*
X127138893Y-107181039D01*
X127126503Y-107170172D01*
X126147820Y-106191490D01*
X126113795Y-106129178D01*
X126115208Y-106069784D01*
X126150705Y-105937305D01*
X126150705Y-105937304D01*
X126152129Y-105931990D01*
X126172557Y-105698500D01*
X126152129Y-105465010D01*
X126091467Y-105238614D01*
X126089144Y-105233632D01*
X125994738Y-105031179D01*
X125994735Y-105031174D01*
X125992412Y-105026192D01*
X125857976Y-104834197D01*
X125692243Y-104668464D01*
X125687735Y-104665307D01*
X125687732Y-104665305D01*
X125607588Y-104609188D01*
X125500249Y-104534028D01*
X125495268Y-104531705D01*
X125495257Y-104531699D01*
X125485389Y-104527098D01*
X125432104Y-104480181D01*
X125412640Y-104412904D01*
X125412640Y-72604457D01*
X128054936Y-72604457D01*
X128068080Y-72832419D01*
X128069217Y-72837465D01*
X128069218Y-72837471D01*
X128089581Y-72927826D01*
X128118280Y-73055174D01*
X128204188Y-73266739D01*
X128323496Y-73461432D01*
X128326877Y-73465335D01*
X128469615Y-73630117D01*
X128469619Y-73630121D01*
X128473000Y-73634024D01*
X128648685Y-73779881D01*
X128845834Y-73895085D01*
X128850659Y-73896927D01*
X128850660Y-73896928D01*
X128911996Y-73920350D01*
X129059151Y-73976543D01*
X129064217Y-73977574D01*
X129064218Y-73977574D01*
X129106233Y-73986122D01*
X129282909Y-74022067D01*
X129411018Y-74026765D01*
X129505932Y-74030246D01*
X129505937Y-74030246D01*
X129511096Y-74030435D01*
X129516217Y-74029779D01*
X129732459Y-74002078D01*
X129732460Y-74002078D01*
X129737587Y-74001421D01*
X129956297Y-73935804D01*
X129960936Y-73933531D01*
X129960942Y-73933529D01*
X130156719Y-73837619D01*
X130156722Y-73837617D01*
X130161354Y-73835348D01*
X130347250Y-73702750D01*
X130508993Y-73541570D01*
X130642239Y-73356138D01*
X130684247Y-73271143D01*
X130741117Y-73156075D01*
X130741118Y-73156073D01*
X130743411Y-73151433D01*
X130809790Y-72932953D01*
X130839595Y-72706566D01*
X130841258Y-72638500D01*
X130835053Y-72563023D01*
X130822972Y-72416078D01*
X130822971Y-72416072D01*
X130822548Y-72410927D01*
X130766921Y-72189465D01*
X130675870Y-71980062D01*
X130666712Y-71965905D01*
X130554649Y-71792683D01*
X130554647Y-71792680D01*
X130551841Y-71788343D01*
X130398164Y-71619454D01*
X130394113Y-71616255D01*
X130394109Y-71616251D01*
X130223023Y-71481135D01*
X130223019Y-71481133D01*
X130218968Y-71477933D01*
X130191104Y-71462551D01*
X130100624Y-71412604D01*
X130019063Y-71367580D01*
X130014194Y-71365856D01*
X130014190Y-71365854D01*
X129808694Y-71293084D01*
X129808690Y-71293083D01*
X129803819Y-71291358D01*
X129798726Y-71290451D01*
X129798723Y-71290450D01*
X129703466Y-71273482D01*
X129579017Y-71251315D01*
X129493861Y-71250274D01*
X129355862Y-71248588D01*
X129355860Y-71248588D01*
X129350692Y-71248525D01*
X129124979Y-71283064D01*
X129018305Y-71317930D01*
X128912855Y-71352396D01*
X128912849Y-71352398D01*
X128907937Y-71354004D01*
X128903351Y-71356391D01*
X128903347Y-71356393D01*
X128795368Y-71412604D01*
X128705396Y-71459441D01*
X128701254Y-71462551D01*
X128610902Y-71530389D01*
X128522795Y-71596541D01*
X128365038Y-71761624D01*
X128236362Y-71950257D01*
X128234188Y-71954941D01*
X128234186Y-71954944D01*
X128224054Y-71976773D01*
X128140222Y-72157372D01*
X128079200Y-72377409D01*
X128054936Y-72604457D01*
X125412640Y-72604457D01*
X125412640Y-43106440D01*
X125432642Y-43038319D01*
X125449545Y-43017345D01*
X128462585Y-40004305D01*
X128524897Y-39970279D01*
X128551680Y-39967400D01*
X128613486Y-39967400D01*
X128619939Y-39966028D01*
X128619943Y-39966028D01*
X128701016Y-39948795D01*
X128788546Y-39930190D01*
X128794577Y-39927505D01*
X128946015Y-39860081D01*
X128946017Y-39860080D01*
X128952045Y-39857396D01*
X129096836Y-39752199D01*
X129143828Y-39700009D01*
X129212172Y-39624105D01*
X129212173Y-39624104D01*
X129216591Y-39619197D01*
X129306077Y-39464203D01*
X129361382Y-39293991D01*
X129380090Y-39116000D01*
X129374887Y-39066495D01*
X129362072Y-38944573D01*
X129362072Y-38944572D01*
X129361382Y-38938009D01*
X129306077Y-38767797D01*
X129216591Y-38612803D01*
X129182028Y-38574416D01*
X129101258Y-38484712D01*
X129101257Y-38484711D01*
X129096836Y-38479801D01*
X129052399Y-38447515D01*
X128957387Y-38378485D01*
X128957386Y-38378484D01*
X128952045Y-38374604D01*
X128946017Y-38371920D01*
X128946015Y-38371919D01*
X128794577Y-38304495D01*
X128794576Y-38304495D01*
X128788546Y-38301810D01*
X128701016Y-38283205D01*
X128619943Y-38265972D01*
X128619939Y-38265972D01*
X128613486Y-38264600D01*
X128434514Y-38264600D01*
X128428061Y-38265972D01*
X128428057Y-38265972D01*
X128346984Y-38283205D01*
X128259454Y-38301810D01*
X128253424Y-38304495D01*
X128253423Y-38304495D01*
X128101985Y-38371919D01*
X128101983Y-38371920D01*
X128095955Y-38374604D01*
X128090614Y-38378484D01*
X128090613Y-38378485D01*
X127995602Y-38447515D01*
X127951164Y-38479801D01*
X127946743Y-38484711D01*
X127946742Y-38484712D01*
X127865973Y-38574416D01*
X127831409Y-38612803D01*
X127741923Y-38767797D01*
X127686618Y-38938009D01*
X127685928Y-38944572D01*
X127685928Y-38944573D01*
X127669144Y-39104257D01*
X127642130Y-39169914D01*
X127632929Y-39180181D01*
X124447437Y-42365673D01*
X124435046Y-42376540D01*
X124410927Y-42395047D01*
X124351363Y-42472674D01*
X124328236Y-42502812D01*
X124328235Y-42502814D01*
X124317206Y-42517187D01*
X124317206Y-42517188D01*
X124258290Y-42659423D01*
X124243240Y-42773739D01*
X124238195Y-42812060D01*
X124239273Y-42820248D01*
X124242162Y-42842193D01*
X124243240Y-42858639D01*
X124243240Y-104412905D01*
X124223238Y-104481026D01*
X124170491Y-104527099D01*
X124160621Y-104531701D01*
X124160616Y-104531704D01*
X124155632Y-104534028D01*
X124048735Y-104608878D01*
X123968148Y-104665305D01*
X123968145Y-104665307D01*
X123963637Y-104668464D01*
X123797904Y-104834197D01*
X123663468Y-105026192D01*
X123661145Y-105031174D01*
X123661142Y-105031179D01*
X123566736Y-105233632D01*
X123564413Y-105238614D01*
X123503751Y-105465010D01*
X123483323Y-105698500D01*
X123503751Y-105931990D01*
X123564413Y-106158386D01*
X123566735Y-106163366D01*
X123566736Y-106163368D01*
X123661142Y-106365821D01*
X123661145Y-106365826D01*
X123663468Y-106370808D01*
X123797904Y-106562803D01*
X123963637Y-106728536D01*
X123968145Y-106731693D01*
X123968148Y-106731695D01*
X124048292Y-106787812D01*
X124155631Y-106862972D01*
X124160613Y-106865295D01*
X124160618Y-106865298D01*
X124363072Y-106959704D01*
X124368054Y-106962027D01*
X124373362Y-106963449D01*
X124373364Y-106963450D01*
X124589135Y-107021265D01*
X124589136Y-107021265D01*
X124594450Y-107022689D01*
X124827940Y-107043117D01*
X125061430Y-107022689D01*
X125066744Y-107021265D01*
X125066745Y-107021265D01*
X125199223Y-106985768D01*
X125270200Y-106987458D01*
X125320930Y-107018380D01*
X126124396Y-107821847D01*
X126158421Y-107884159D01*
X126161300Y-107910942D01*
X126161300Y-109867768D01*
X126141298Y-109935889D01*
X126087642Y-109982382D01*
X126017368Y-109992486D01*
X125952788Y-109962992D01*
X125932087Y-109940038D01*
X125861139Y-109838713D01*
X125861134Y-109838707D01*
X125857976Y-109834197D01*
X125692243Y-109668464D01*
X125687735Y-109665307D01*
X125687732Y-109665305D01*
X125591125Y-109597660D01*
X125500249Y-109534028D01*
X125495267Y-109531705D01*
X125495262Y-109531702D01*
X125292808Y-109437296D01*
X125292806Y-109437295D01*
X125287826Y-109434973D01*
X125282518Y-109433551D01*
X125282516Y-109433550D01*
X125066745Y-109375735D01*
X125066744Y-109375735D01*
X125061430Y-109374311D01*
X124827940Y-109353883D01*
X124594450Y-109374311D01*
X124589136Y-109375735D01*
X124589135Y-109375735D01*
X124456656Y-109411232D01*
X124385679Y-109409542D01*
X124334950Y-109378620D01*
X123795827Y-108839497D01*
X123784959Y-108827105D01*
X123771479Y-108809537D01*
X123766453Y-108802987D01*
X123688826Y-108743423D01*
X123644313Y-108709266D01*
X123602653Y-108692010D01*
X123502077Y-108650350D01*
X123493889Y-108649272D01*
X123387764Y-108635300D01*
X123387759Y-108635300D01*
X123349440Y-108630255D01*
X123341252Y-108631333D01*
X123319307Y-108634222D01*
X123302861Y-108635300D01*
X101132382Y-108635300D01*
X101064261Y-108615298D01*
X101043287Y-108598396D01*
X100697605Y-108252715D01*
X100663580Y-108190402D01*
X100660700Y-108163619D01*
X100660700Y-105698500D01*
X117483323Y-105698500D01*
X117503751Y-105931990D01*
X117564413Y-106158386D01*
X117566735Y-106163366D01*
X117566736Y-106163368D01*
X117661142Y-106365821D01*
X117661145Y-106365826D01*
X117663468Y-106370808D01*
X117797904Y-106562803D01*
X117963637Y-106728536D01*
X117968145Y-106731693D01*
X117968148Y-106731695D01*
X118048292Y-106787812D01*
X118155631Y-106862972D01*
X118160613Y-106865295D01*
X118160618Y-106865298D01*
X118363072Y-106959704D01*
X118368054Y-106962027D01*
X118373362Y-106963449D01*
X118373364Y-106963450D01*
X118589135Y-107021265D01*
X118589136Y-107021265D01*
X118594450Y-107022689D01*
X118827940Y-107043117D01*
X119061430Y-107022689D01*
X119066744Y-107021265D01*
X119066745Y-107021265D01*
X119282516Y-106963450D01*
X119282518Y-106963449D01*
X119287826Y-106962027D01*
X119292808Y-106959704D01*
X119495262Y-106865298D01*
X119495267Y-106865295D01*
X119500249Y-106862972D01*
X119607588Y-106787812D01*
X119687732Y-106731695D01*
X119687735Y-106731693D01*
X119692243Y-106728536D01*
X119857976Y-106562803D01*
X119992412Y-106370808D01*
X119994735Y-106365826D01*
X119994738Y-106365821D01*
X120089144Y-106163368D01*
X120089145Y-106163366D01*
X120091467Y-106158386D01*
X120152129Y-105931990D01*
X120172557Y-105698500D01*
X120152129Y-105465010D01*
X120091467Y-105238614D01*
X120089144Y-105233632D01*
X119994738Y-105031179D01*
X119994735Y-105031174D01*
X119992412Y-105026192D01*
X119857976Y-104834197D01*
X119692243Y-104668464D01*
X119687735Y-104665307D01*
X119687732Y-104665305D01*
X119607588Y-104609188D01*
X119500249Y-104534028D01*
X119495267Y-104531705D01*
X119495262Y-104531702D01*
X119292808Y-104437296D01*
X119292806Y-104437295D01*
X119287826Y-104434973D01*
X119282518Y-104433551D01*
X119282516Y-104433550D01*
X119066745Y-104375735D01*
X119066744Y-104375735D01*
X119061430Y-104374311D01*
X118827940Y-104353883D01*
X118594450Y-104374311D01*
X118589136Y-104375735D01*
X118589135Y-104375735D01*
X118373364Y-104433550D01*
X118373362Y-104433551D01*
X118368054Y-104434973D01*
X118363074Y-104437295D01*
X118363072Y-104437296D01*
X118160619Y-104531702D01*
X118160614Y-104531705D01*
X118155632Y-104534028D01*
X118151125Y-104537184D01*
X118151123Y-104537185D01*
X117968148Y-104665305D01*
X117968145Y-104665307D01*
X117963637Y-104668464D01*
X117797904Y-104834197D01*
X117663468Y-105026192D01*
X117661145Y-105031174D01*
X117661142Y-105031179D01*
X117566736Y-105233632D01*
X117564413Y-105238614D01*
X117503751Y-105465010D01*
X117483323Y-105698500D01*
X100660700Y-105698500D01*
X100660700Y-83350123D01*
X100680702Y-83282002D01*
X100734358Y-83235509D01*
X100804632Y-83225405D01*
X100869212Y-83254899D01*
X100895818Y-83287121D01*
X100907409Y-83307197D01*
X100911827Y-83312104D01*
X100911828Y-83312105D01*
X101019010Y-83431143D01*
X101027164Y-83440199D01*
X101032506Y-83444080D01*
X101032508Y-83444082D01*
X101166613Y-83541515D01*
X101171955Y-83545396D01*
X101177983Y-83548080D01*
X101177985Y-83548081D01*
X101329423Y-83615505D01*
X101335454Y-83618190D01*
X101422984Y-83636795D01*
X101504057Y-83654028D01*
X101504061Y-83654028D01*
X101510514Y-83655400D01*
X101689486Y-83655400D01*
X101695939Y-83654028D01*
X101695943Y-83654028D01*
X101777016Y-83636795D01*
X101864546Y-83618190D01*
X101870577Y-83615505D01*
X102022015Y-83548081D01*
X102022017Y-83548080D01*
X102028045Y-83545396D01*
X102033387Y-83541515D01*
X102167492Y-83444082D01*
X102167494Y-83444080D01*
X102172836Y-83440199D01*
X102186620Y-83424891D01*
X102247065Y-83387650D01*
X102280256Y-83383200D01*
X112866943Y-83383200D01*
X112935064Y-83403202D01*
X112974376Y-83443365D01*
X113034523Y-83541515D01*
X113083496Y-83621432D01*
X113086877Y-83625335D01*
X113229615Y-83790117D01*
X113229619Y-83790121D01*
X113233000Y-83794024D01*
X113408685Y-83939881D01*
X113441282Y-83958929D01*
X113490004Y-84010567D01*
X113503075Y-84080350D01*
X113476343Y-84146122D01*
X113453369Y-84168471D01*
X113282795Y-84296541D01*
X113125038Y-84461624D01*
X112996362Y-84650257D01*
X112994188Y-84654941D01*
X112994186Y-84654944D01*
X112984541Y-84675724D01*
X112900222Y-84857372D01*
X112839200Y-85077409D01*
X112814936Y-85304457D01*
X112815233Y-85309609D01*
X112815233Y-85309613D01*
X112818181Y-85360739D01*
X112828080Y-85532419D01*
X112829217Y-85537465D01*
X112829218Y-85537471D01*
X112849581Y-85627826D01*
X112878280Y-85755174D01*
X112964188Y-85966739D01*
X113083496Y-86161432D01*
X113086877Y-86165335D01*
X113229615Y-86330117D01*
X113229619Y-86330121D01*
X113233000Y-86334024D01*
X113408685Y-86479881D01*
X113605834Y-86595085D01*
X113610659Y-86596927D01*
X113610660Y-86596928D01*
X113671996Y-86620350D01*
X113819151Y-86676543D01*
X113824217Y-86677574D01*
X113824218Y-86677574D01*
X113866233Y-86686122D01*
X114042909Y-86722067D01*
X114171018Y-86726765D01*
X114265932Y-86730246D01*
X114265937Y-86730246D01*
X114271096Y-86730435D01*
X114276217Y-86729779D01*
X114492459Y-86702078D01*
X114492460Y-86702078D01*
X114497587Y-86701421D01*
X114716297Y-86635804D01*
X114720936Y-86633531D01*
X114720942Y-86633529D01*
X114916719Y-86537619D01*
X114916722Y-86537617D01*
X114921354Y-86535348D01*
X114972413Y-86498928D01*
X115103046Y-86405749D01*
X115103048Y-86405747D01*
X115107250Y-86402750D01*
X115268993Y-86241570D01*
X115402239Y-86056138D01*
X115422565Y-86015013D01*
X115501117Y-85856075D01*
X115501118Y-85856073D01*
X115503411Y-85851433D01*
X115569790Y-85632953D01*
X115599595Y-85406566D01*
X115601258Y-85338500D01*
X115595053Y-85263023D01*
X115582972Y-85116078D01*
X115582971Y-85116072D01*
X115582548Y-85110927D01*
X115526921Y-84889465D01*
X115435870Y-84680062D01*
X115419621Y-84654944D01*
X115314649Y-84492683D01*
X115314647Y-84492680D01*
X115311841Y-84488343D01*
X115158164Y-84319454D01*
X115154113Y-84316255D01*
X115154109Y-84316251D01*
X114983023Y-84181135D01*
X114983019Y-84181133D01*
X114978968Y-84177933D01*
X114974446Y-84175437D01*
X114970134Y-84172572D01*
X114971253Y-84170888D01*
X114927380Y-84126599D01*
X114912616Y-84057154D01*
X114937740Y-83990752D01*
X114965081Y-83964158D01*
X115107250Y-83862750D01*
X115268993Y-83701570D01*
X115302170Y-83655400D01*
X115399221Y-83520338D01*
X115402239Y-83516138D01*
X115437852Y-83444082D01*
X115501117Y-83316075D01*
X115501118Y-83316073D01*
X115503411Y-83311433D01*
X115569790Y-83092953D01*
X115599595Y-82866566D01*
X115601258Y-82798500D01*
X115584188Y-82590873D01*
X115582972Y-82576078D01*
X115582971Y-82576072D01*
X115582548Y-82570927D01*
X115532047Y-82369871D01*
X115528180Y-82354476D01*
X115528179Y-82354472D01*
X115526921Y-82349465D01*
X115520336Y-82334321D01*
X115437930Y-82144799D01*
X115437928Y-82144796D01*
X115435870Y-82140062D01*
X115433061Y-82135719D01*
X115314649Y-81952683D01*
X115314647Y-81952680D01*
X115311841Y-81948343D01*
X115158164Y-81779454D01*
X115154113Y-81776255D01*
X115154109Y-81776251D01*
X114983023Y-81641135D01*
X114983019Y-81641133D01*
X114978968Y-81637933D01*
X114974446Y-81635437D01*
X114970134Y-81632572D01*
X114971253Y-81630888D01*
X114927380Y-81586599D01*
X114912616Y-81517154D01*
X114937740Y-81450752D01*
X114965081Y-81424158D01*
X115107250Y-81322750D01*
X115268993Y-81161570D01*
X115402239Y-80976138D01*
X115444247Y-80891143D01*
X115501117Y-80776075D01*
X115501118Y-80776073D01*
X115503411Y-80771433D01*
X115569790Y-80552953D01*
X115599595Y-80326566D01*
X115601258Y-80258500D01*
X115595053Y-80183023D01*
X115582972Y-80036078D01*
X115582971Y-80036072D01*
X115582548Y-80030927D01*
X115526921Y-79809465D01*
X115435870Y-79600062D01*
X115419621Y-79574944D01*
X115314649Y-79412683D01*
X115314647Y-79412680D01*
X115311841Y-79408343D01*
X115158164Y-79239454D01*
X115154113Y-79236255D01*
X115154109Y-79236251D01*
X114983023Y-79101135D01*
X114983019Y-79101133D01*
X114978968Y-79097933D01*
X114974446Y-79095437D01*
X114970134Y-79092572D01*
X114971253Y-79090888D01*
X114927380Y-79046599D01*
X114912616Y-78977154D01*
X114937740Y-78910752D01*
X114965081Y-78884158D01*
X115107250Y-78782750D01*
X115268993Y-78621570D01*
X115402239Y-78436138D01*
X115444247Y-78351143D01*
X115501117Y-78236075D01*
X115501118Y-78236073D01*
X115503411Y-78231433D01*
X115569790Y-78012953D01*
X115599595Y-77786566D01*
X115601258Y-77718500D01*
X115583962Y-77508123D01*
X115582972Y-77496078D01*
X115582971Y-77496072D01*
X115582548Y-77490927D01*
X115526921Y-77269465D01*
X115515134Y-77242356D01*
X115437930Y-77064799D01*
X115437928Y-77064796D01*
X115435870Y-77060062D01*
X115419621Y-77034944D01*
X115314649Y-76872683D01*
X115314647Y-76872680D01*
X115311841Y-76868343D01*
X115158164Y-76699454D01*
X115154113Y-76696255D01*
X115154109Y-76696251D01*
X114983023Y-76561135D01*
X114983019Y-76561133D01*
X114978968Y-76557933D01*
X114974446Y-76555437D01*
X114970134Y-76552572D01*
X114971253Y-76550888D01*
X114927380Y-76506599D01*
X114912616Y-76437154D01*
X114937740Y-76370752D01*
X114965081Y-76344158D01*
X115107250Y-76242750D01*
X115268993Y-76081570D01*
X115402239Y-75896138D01*
X115444247Y-75811143D01*
X115501117Y-75696075D01*
X115501118Y-75696073D01*
X115503411Y-75691433D01*
X115569790Y-75472953D01*
X115599595Y-75246566D01*
X115601258Y-75178500D01*
X115595053Y-75103023D01*
X115582972Y-74956078D01*
X115582971Y-74956072D01*
X115582548Y-74950927D01*
X115526921Y-74729465D01*
X115435870Y-74520062D01*
X115419621Y-74494944D01*
X115314649Y-74332683D01*
X115314647Y-74332680D01*
X115311841Y-74328343D01*
X115158164Y-74159454D01*
X115154113Y-74156255D01*
X115154109Y-74156251D01*
X114983023Y-74021135D01*
X114983019Y-74021133D01*
X114978968Y-74017933D01*
X114974446Y-74015437D01*
X114970134Y-74012572D01*
X114971253Y-74010888D01*
X114927380Y-73966599D01*
X114912616Y-73897154D01*
X114937740Y-73830752D01*
X114965081Y-73804158D01*
X115107250Y-73702750D01*
X115268993Y-73541570D01*
X115402239Y-73356138D01*
X115444247Y-73271143D01*
X115501117Y-73156075D01*
X115501118Y-73156073D01*
X115503411Y-73151433D01*
X115569790Y-72932953D01*
X115599595Y-72706566D01*
X115601258Y-72638500D01*
X115595053Y-72563023D01*
X115582972Y-72416078D01*
X115582971Y-72416072D01*
X115582548Y-72410927D01*
X115526921Y-72189465D01*
X115435870Y-71980062D01*
X115426712Y-71965905D01*
X115314649Y-71792683D01*
X115314647Y-71792680D01*
X115311841Y-71788343D01*
X115158164Y-71619454D01*
X115154113Y-71616255D01*
X115154109Y-71616251D01*
X114983023Y-71481135D01*
X114983019Y-71481133D01*
X114978968Y-71477933D01*
X114951104Y-71462551D01*
X114925717Y-71448537D01*
X114857695Y-71410987D01*
X114807725Y-71360555D01*
X114792589Y-71300679D01*
X114792589Y-40321431D01*
X114809470Y-40258431D01*
X114824773Y-40231926D01*
X114824774Y-40231925D01*
X114828077Y-40226203D01*
X114883382Y-40055991D01*
X114892694Y-39967400D01*
X114901400Y-39884565D01*
X114902090Y-39878000D01*
X114883382Y-39700009D01*
X114828077Y-39529797D01*
X114800718Y-39482409D01*
X114741892Y-39380521D01*
X114738591Y-39374803D01*
X114671482Y-39300270D01*
X114623258Y-39246712D01*
X114623257Y-39246711D01*
X114618836Y-39241801D01*
X114534024Y-39180181D01*
X114479387Y-39140485D01*
X114479386Y-39140484D01*
X114474045Y-39136604D01*
X114468017Y-39133920D01*
X114468015Y-39133919D01*
X114316577Y-39066495D01*
X114316576Y-39066495D01*
X114310546Y-39063810D01*
X114223016Y-39045205D01*
X114141943Y-39027972D01*
X114141939Y-39027972D01*
X114135486Y-39026600D01*
X113956514Y-39026600D01*
X113950061Y-39027972D01*
X113950057Y-39027972D01*
X113868984Y-39045205D01*
X113781454Y-39063810D01*
X113775424Y-39066495D01*
X113775423Y-39066495D01*
X113623985Y-39133919D01*
X113623983Y-39133920D01*
X113617955Y-39136604D01*
X113612614Y-39140484D01*
X113612613Y-39140485D01*
X113557977Y-39180181D01*
X113473164Y-39241801D01*
X113468743Y-39246711D01*
X113468742Y-39246712D01*
X113420519Y-39300270D01*
X113353409Y-39374803D01*
X113350108Y-39380521D01*
X113291283Y-39482409D01*
X113263923Y-39529797D01*
X113208618Y-39700009D01*
X113189910Y-39878000D01*
X113190600Y-39884565D01*
X113199307Y-39967400D01*
X113208618Y-40055991D01*
X113263923Y-40226203D01*
X113353409Y-40381197D01*
X113473164Y-40514199D01*
X113536356Y-40560111D01*
X113571250Y-40585463D01*
X113614604Y-40641686D01*
X113623189Y-40687399D01*
X113623189Y-71300841D01*
X113603187Y-71368962D01*
X113555369Y-71412604D01*
X113465396Y-71459441D01*
X113461263Y-71462544D01*
X113461260Y-71462546D01*
X113359996Y-71538577D01*
X113282795Y-71596541D01*
X113125038Y-71761624D01*
X112996362Y-71950257D01*
X112994188Y-71954941D01*
X112994186Y-71954944D01*
X112984054Y-71976773D01*
X112900222Y-72157372D01*
X112839200Y-72377409D01*
X112814936Y-72604457D01*
X112828080Y-72832419D01*
X112829217Y-72837465D01*
X112829218Y-72837471D01*
X112849581Y-72927826D01*
X112878280Y-73055174D01*
X112964188Y-73266739D01*
X113083496Y-73461432D01*
X113086877Y-73465335D01*
X113229615Y-73630117D01*
X113229619Y-73630121D01*
X113233000Y-73634024D01*
X113408685Y-73779881D01*
X113441282Y-73798929D01*
X113490004Y-73850567D01*
X113503075Y-73920350D01*
X113476343Y-73986122D01*
X113453369Y-74008471D01*
X113282795Y-74136541D01*
X113125038Y-74301624D01*
X112996362Y-74490257D01*
X112994188Y-74494941D01*
X112994186Y-74494944D01*
X112984541Y-74515724D01*
X112900222Y-74697372D01*
X112839200Y-74917409D01*
X112814936Y-75144457D01*
X112828080Y-75372419D01*
X112829217Y-75377465D01*
X112829218Y-75377471D01*
X112849581Y-75467826D01*
X112878280Y-75595174D01*
X112964188Y-75806739D01*
X113083496Y-76001432D01*
X113086877Y-76005335D01*
X113229615Y-76170117D01*
X113229619Y-76170121D01*
X113233000Y-76174024D01*
X113408685Y-76319881D01*
X113441282Y-76338929D01*
X113490004Y-76390567D01*
X113503075Y-76460350D01*
X113476343Y-76526122D01*
X113453369Y-76548471D01*
X113282795Y-76676541D01*
X113279223Y-76680279D01*
X113186097Y-76777730D01*
X113125038Y-76841624D01*
X112996362Y-77030257D01*
X112994188Y-77034941D01*
X112994186Y-77034944D01*
X112948472Y-77133427D01*
X112900222Y-77237372D01*
X112839200Y-77457409D01*
X112814936Y-77684457D01*
X112828080Y-77912419D01*
X112829217Y-77917465D01*
X112829218Y-77917471D01*
X112849581Y-78007826D01*
X112878280Y-78135174D01*
X112964188Y-78346739D01*
X113083496Y-78541432D01*
X113086877Y-78545335D01*
X113229615Y-78710117D01*
X113229619Y-78710121D01*
X113233000Y-78714024D01*
X113408685Y-78859881D01*
X113441282Y-78878929D01*
X113490004Y-78930567D01*
X113503075Y-79000350D01*
X113476343Y-79066122D01*
X113453369Y-79088471D01*
X113282795Y-79216541D01*
X113125038Y-79381624D01*
X112996362Y-79570257D01*
X112994188Y-79574941D01*
X112994186Y-79574944D01*
X112984541Y-79595724D01*
X112900222Y-79777372D01*
X112839200Y-79997409D01*
X112814936Y-80224457D01*
X112828080Y-80452419D01*
X112829217Y-80457465D01*
X112829218Y-80457471D01*
X112849581Y-80547826D01*
X112878280Y-80675174D01*
X112964188Y-80886739D01*
X113083496Y-81081432D01*
X113086877Y-81085335D01*
X113229615Y-81250117D01*
X113229619Y-81250121D01*
X113233000Y-81254024D01*
X113408685Y-81399881D01*
X113441282Y-81418929D01*
X113490004Y-81470567D01*
X113503075Y-81540350D01*
X113476343Y-81606122D01*
X113453369Y-81628471D01*
X113282795Y-81756541D01*
X113125038Y-81921624D01*
X112996362Y-82110257D01*
X112994189Y-82114938D01*
X112994184Y-82114947D01*
X112982160Y-82140851D01*
X112935336Y-82194218D01*
X112867873Y-82213800D01*
X102270353Y-82213800D01*
X102202232Y-82193798D01*
X102182361Y-82176908D01*
X102182163Y-82177128D01*
X102177254Y-82172708D01*
X102172836Y-82167801D01*
X102144680Y-82147344D01*
X102033387Y-82066485D01*
X102033386Y-82066484D01*
X102028045Y-82062604D01*
X102022017Y-82059920D01*
X102022015Y-82059919D01*
X101870577Y-81992495D01*
X101870576Y-81992495D01*
X101864546Y-81989810D01*
X101777016Y-81971205D01*
X101695943Y-81953972D01*
X101695939Y-81953972D01*
X101689486Y-81952600D01*
X101510514Y-81952600D01*
X101504061Y-81953972D01*
X101504057Y-81953972D01*
X101422984Y-81971205D01*
X101335454Y-81989810D01*
X101329424Y-81992495D01*
X101329423Y-81992495D01*
X101177985Y-82059919D01*
X101177983Y-82059920D01*
X101171955Y-82062604D01*
X101166614Y-82066484D01*
X101166613Y-82066485D01*
X101055321Y-82147344D01*
X101027164Y-82167801D01*
X101022743Y-82172711D01*
X101022742Y-82172712D01*
X100946060Y-82257877D01*
X100907409Y-82300803D01*
X100897843Y-82317372D01*
X100895819Y-82320878D01*
X100844435Y-82369871D01*
X100774722Y-82383306D01*
X100708811Y-82356919D01*
X100667629Y-82299086D01*
X100660700Y-82257877D01*
X100660700Y-32298380D01*
X100680702Y-32230259D01*
X100697605Y-32209285D01*
X100725785Y-32181105D01*
X100788097Y-32147079D01*
X100814880Y-32144200D01*
X102807671Y-32144200D01*
X102875792Y-32164202D01*
X102915103Y-32204365D01*
X103028178Y-32388885D01*
X103178855Y-32562831D01*
X103182830Y-32566131D01*
X103182834Y-32566135D01*
X103256258Y-32627092D01*
X103355918Y-32709832D01*
X103554613Y-32825940D01*
X103769603Y-32908037D01*
X103774665Y-32909067D01*
X103774669Y-32909068D01*
X103924392Y-32939529D01*
X103995115Y-32953917D01*
X104124727Y-32958670D01*
X104219928Y-32962161D01*
X104219932Y-32962161D01*
X104225092Y-32962350D01*
X104230212Y-32961694D01*
X104230214Y-32961694D01*
X104448232Y-32933766D01*
X104448235Y-32933765D01*
X104453359Y-32933109D01*
X104533492Y-32909068D01*
X104668831Y-32868464D01*
X104673784Y-32866978D01*
X104678423Y-32864705D01*
X104678429Y-32864703D01*
X104875814Y-32768005D01*
X104875817Y-32768003D01*
X104880449Y-32765734D01*
X104958821Y-32709832D01*
X105063599Y-32635095D01*
X105063601Y-32635093D01*
X105067803Y-32632096D01*
X105230814Y-32469652D01*
X105328945Y-32333089D01*
X105384939Y-32289441D01*
X105455643Y-32282995D01*
X105518607Y-32315798D01*
X105538699Y-32340780D01*
X105568178Y-32388885D01*
X105718855Y-32562831D01*
X105722830Y-32566131D01*
X105722834Y-32566135D01*
X105796258Y-32627092D01*
X105895918Y-32709832D01*
X106094613Y-32825940D01*
X106309603Y-32908037D01*
X106314665Y-32909067D01*
X106314669Y-32909068D01*
X106464392Y-32939529D01*
X106535115Y-32953917D01*
X106664727Y-32958670D01*
X106759928Y-32962161D01*
X106759932Y-32962161D01*
X106765092Y-32962350D01*
X106770212Y-32961694D01*
X106770214Y-32961694D01*
X106988232Y-32933766D01*
X106988235Y-32933765D01*
X106993359Y-32933109D01*
X107011935Y-32927536D01*
X107117232Y-32895945D01*
X107188228Y-32895528D01*
X107242535Y-32927536D01*
X111525501Y-37210503D01*
X111536369Y-37222894D01*
X111541103Y-37229063D01*
X111554876Y-37247013D01*
X111585540Y-37270542D01*
X111585541Y-37270543D01*
X111677017Y-37340734D01*
X111819252Y-37399650D01*
X111971889Y-37419746D01*
X112002027Y-37415778D01*
X112018474Y-37414700D01*
X135326341Y-37414700D01*
X135394462Y-37434702D01*
X135440955Y-37488358D01*
X135451059Y-37558632D01*
X135449588Y-37566895D01*
X135411588Y-37745675D01*
X135411588Y-37935325D01*
X135451018Y-38120831D01*
X135453702Y-38126860D01*
X135453703Y-38126862D01*
X135525468Y-38288047D01*
X135528156Y-38294085D01*
X135532036Y-38299426D01*
X135532037Y-38299427D01*
X135533769Y-38301810D01*
X135639629Y-38447515D01*
X135644539Y-38451936D01*
X135644540Y-38451937D01*
X135680941Y-38484712D01*
X135780567Y-38574416D01*
X135944809Y-38669241D01*
X135951095Y-38671283D01*
X135951094Y-38671283D01*
X136118898Y-38725806D01*
X136118899Y-38725806D01*
X136125177Y-38727846D01*
X136131740Y-38728536D01*
X136131741Y-38728536D01*
X136155175Y-38730999D01*
X136266502Y-38742700D01*
X136361074Y-38742700D01*
X136472401Y-38730999D01*
X136495835Y-38728536D01*
X136495836Y-38728536D01*
X136502399Y-38727846D01*
X136508677Y-38725806D01*
X136508678Y-38725806D01*
X136676482Y-38671283D01*
X136676481Y-38671283D01*
X136682767Y-38669241D01*
X136847009Y-38574416D01*
X136946636Y-38484712D01*
X136983036Y-38451937D01*
X136983037Y-38451936D01*
X136987947Y-38447515D01*
X137092565Y-38303520D01*
X137148787Y-38260166D01*
X137219523Y-38254091D01*
X137283596Y-38288486D01*
X139586395Y-40591286D01*
X139620421Y-40653598D01*
X139623300Y-40680381D01*
X139623300Y-76415877D01*
X139603298Y-76483998D01*
X139549642Y-76530491D01*
X139479368Y-76540595D01*
X139414788Y-76511101D01*
X139388181Y-76478878D01*
X139379892Y-76464521D01*
X139376591Y-76458803D01*
X139337941Y-76415877D01*
X139261258Y-76330712D01*
X139261257Y-76330711D01*
X139256836Y-76325801D01*
X139142527Y-76242750D01*
X139117387Y-76224485D01*
X139117386Y-76224484D01*
X139112045Y-76220604D01*
X139106017Y-76217920D01*
X139106015Y-76217919D01*
X138954577Y-76150495D01*
X138954576Y-76150495D01*
X138948546Y-76147810D01*
X138861016Y-76129205D01*
X138779943Y-76111972D01*
X138779939Y-76111972D01*
X138773486Y-76110600D01*
X138594514Y-76110600D01*
X138588061Y-76111972D01*
X138588057Y-76111972D01*
X138506984Y-76129205D01*
X138419454Y-76147810D01*
X138413424Y-76150495D01*
X138413423Y-76150495D01*
X138261985Y-76217919D01*
X138261983Y-76217920D01*
X138255955Y-76220604D01*
X138250614Y-76224484D01*
X138250613Y-76224485D01*
X138225474Y-76242750D01*
X138111164Y-76325801D01*
X138106743Y-76330711D01*
X138106742Y-76330712D01*
X138030060Y-76415877D01*
X137991409Y-76458803D01*
X137901923Y-76613797D01*
X137846618Y-76784009D01*
X137827910Y-76962000D01*
X137846618Y-77139991D01*
X137901923Y-77310203D01*
X137905226Y-77315925D01*
X137905227Y-77315926D01*
X137986913Y-77457409D01*
X137991409Y-77465197D01*
X137995829Y-77470106D01*
X138066937Y-77549080D01*
X138097654Y-77613088D01*
X138099300Y-77633390D01*
X138099300Y-85292618D01*
X138079298Y-85360739D01*
X138062396Y-85381713D01*
X137789998Y-85654112D01*
X137777607Y-85664979D01*
X137753487Y-85683487D01*
X137748465Y-85690032D01*
X137734980Y-85707606D01*
X137724112Y-85719997D01*
X136945182Y-86498928D01*
X136187215Y-87256895D01*
X136124903Y-87290920D01*
X136098120Y-87293800D01*
X130790337Y-87293800D01*
X130722216Y-87273798D01*
X130679294Y-87227344D01*
X130677931Y-87224801D01*
X130675870Y-87220062D01*
X130673064Y-87215725D01*
X130673061Y-87215719D01*
X130554649Y-87032683D01*
X130554647Y-87032680D01*
X130551841Y-87028343D01*
X130398164Y-86859454D01*
X130394113Y-86856255D01*
X130394109Y-86856251D01*
X130223023Y-86721135D01*
X130223019Y-86721133D01*
X130218968Y-86717933D01*
X130214446Y-86715437D01*
X130210134Y-86712572D01*
X130211253Y-86710888D01*
X130167380Y-86666599D01*
X130152616Y-86597154D01*
X130177740Y-86530752D01*
X130205081Y-86504158D01*
X130347250Y-86402750D01*
X130508993Y-86241570D01*
X130642239Y-86056138D01*
X130662565Y-86015013D01*
X130741117Y-85856075D01*
X130741118Y-85856073D01*
X130743411Y-85851433D01*
X130809790Y-85632953D01*
X130839595Y-85406566D01*
X130841258Y-85338500D01*
X130835053Y-85263023D01*
X130822972Y-85116078D01*
X130822971Y-85116072D01*
X130822548Y-85110927D01*
X130766921Y-84889465D01*
X130675870Y-84680062D01*
X130659621Y-84654944D01*
X130554649Y-84492683D01*
X130554647Y-84492680D01*
X130551841Y-84488343D01*
X130398164Y-84319454D01*
X130394113Y-84316255D01*
X130394109Y-84316251D01*
X130223023Y-84181135D01*
X130223019Y-84181133D01*
X130218968Y-84177933D01*
X130214446Y-84175437D01*
X130210134Y-84172572D01*
X130211253Y-84170888D01*
X130167380Y-84126599D01*
X130152616Y-84057154D01*
X130177740Y-83990752D01*
X130205081Y-83964158D01*
X130347250Y-83862750D01*
X130508993Y-83701570D01*
X130542170Y-83655400D01*
X130639221Y-83520338D01*
X130642239Y-83516138D01*
X130673260Y-83453372D01*
X130721372Y-83401166D01*
X130786216Y-83383200D01*
X135293647Y-83383200D01*
X135310094Y-83384278D01*
X135382000Y-83393745D01*
X135390188Y-83392667D01*
X135526449Y-83374728D01*
X135534637Y-83373650D01*
X135542264Y-83370491D01*
X135542267Y-83370490D01*
X135605755Y-83344192D01*
X135676873Y-83314734D01*
X135799013Y-83221013D01*
X135804036Y-83214467D01*
X135804039Y-83214464D01*
X135817523Y-83196891D01*
X135828391Y-83184499D01*
X136270504Y-82742386D01*
X136282897Y-82731517D01*
X136300464Y-82718038D01*
X136307013Y-82713013D01*
X136354319Y-82651362D01*
X136400734Y-82590873D01*
X136415872Y-82554327D01*
X136436872Y-82503628D01*
X136456490Y-82456266D01*
X136456490Y-82456265D01*
X136459650Y-82448637D01*
X136474700Y-82334321D01*
X136474700Y-82334319D01*
X136479745Y-82296000D01*
X136475778Y-82265867D01*
X136474700Y-82249421D01*
X136474700Y-77633390D01*
X136494702Y-77565269D01*
X136507063Y-77549080D01*
X136578171Y-77470106D01*
X136582591Y-77465197D01*
X136587088Y-77457409D01*
X136668773Y-77315926D01*
X136668774Y-77315925D01*
X136672077Y-77310203D01*
X136727382Y-77139991D01*
X136746090Y-76962000D01*
X136727382Y-76784009D01*
X136672077Y-76613797D01*
X136582591Y-76458803D01*
X136543941Y-76415877D01*
X136467258Y-76330712D01*
X136467257Y-76330711D01*
X136462836Y-76325801D01*
X136348527Y-76242750D01*
X136323387Y-76224485D01*
X136323386Y-76224484D01*
X136318045Y-76220604D01*
X136312017Y-76217920D01*
X136312015Y-76217919D01*
X136160577Y-76150495D01*
X136160576Y-76150495D01*
X136154546Y-76147810D01*
X136067016Y-76129205D01*
X135985943Y-76111972D01*
X135985939Y-76111972D01*
X135979486Y-76110600D01*
X135800514Y-76110600D01*
X135794061Y-76111972D01*
X135794057Y-76111972D01*
X135712984Y-76129205D01*
X135625454Y-76147810D01*
X135619424Y-76150495D01*
X135619423Y-76150495D01*
X135467985Y-76217919D01*
X135467983Y-76217920D01*
X135461955Y-76220604D01*
X135456614Y-76224484D01*
X135456613Y-76224485D01*
X135431474Y-76242750D01*
X135317164Y-76325801D01*
X135312743Y-76330711D01*
X135312742Y-76330712D01*
X135236060Y-76415877D01*
X135197409Y-76458803D01*
X135107923Y-76613797D01*
X135052618Y-76784009D01*
X135033910Y-76962000D01*
X135052618Y-77139991D01*
X135107923Y-77310203D01*
X135111226Y-77315925D01*
X135111227Y-77315926D01*
X135192913Y-77457409D01*
X135197409Y-77465197D01*
X135201829Y-77470106D01*
X135272937Y-77549080D01*
X135303654Y-77613088D01*
X135305300Y-77633390D01*
X135305300Y-82001618D01*
X135285298Y-82069739D01*
X135268396Y-82090713D01*
X135182215Y-82176895D01*
X135119903Y-82210920D01*
X135093119Y-82213800D01*
X130790337Y-82213800D01*
X130722216Y-82193798D01*
X130679294Y-82147344D01*
X130677931Y-82144801D01*
X130675870Y-82140062D01*
X130673064Y-82135724D01*
X130673061Y-82135719D01*
X130554649Y-81952683D01*
X130554647Y-81952680D01*
X130551841Y-81948343D01*
X130398164Y-81779454D01*
X130394113Y-81776255D01*
X130394109Y-81776251D01*
X130223023Y-81641135D01*
X130223019Y-81641133D01*
X130218968Y-81637933D01*
X130214446Y-81635437D01*
X130210134Y-81632572D01*
X130211253Y-81630888D01*
X130167380Y-81586599D01*
X130152616Y-81517154D01*
X130177740Y-81450752D01*
X130205081Y-81424158D01*
X130347250Y-81322750D01*
X130508993Y-81161570D01*
X130642239Y-80976138D01*
X130684247Y-80891143D01*
X130741117Y-80776075D01*
X130741118Y-80776073D01*
X130743411Y-80771433D01*
X130809790Y-80552953D01*
X130839595Y-80326566D01*
X130841258Y-80258500D01*
X130835053Y-80183023D01*
X130822972Y-80036078D01*
X130822971Y-80036072D01*
X130822548Y-80030927D01*
X130766921Y-79809465D01*
X130675870Y-79600062D01*
X130659621Y-79574944D01*
X130554649Y-79412683D01*
X130554647Y-79412680D01*
X130551841Y-79408343D01*
X130398164Y-79239454D01*
X130394113Y-79236255D01*
X130394109Y-79236251D01*
X130223023Y-79101135D01*
X130223019Y-79101133D01*
X130218968Y-79097933D01*
X130214446Y-79095437D01*
X130210134Y-79092572D01*
X130211253Y-79090888D01*
X130167380Y-79046599D01*
X130152616Y-78977154D01*
X130177740Y-78910752D01*
X130205081Y-78884158D01*
X130347250Y-78782750D01*
X130508993Y-78621570D01*
X130642239Y-78436138D01*
X130684247Y-78351143D01*
X130741117Y-78236075D01*
X130741118Y-78236073D01*
X130743411Y-78231433D01*
X130809790Y-78012953D01*
X130839595Y-77786566D01*
X130841258Y-77718500D01*
X130823962Y-77508123D01*
X130822972Y-77496078D01*
X130822971Y-77496072D01*
X130822548Y-77490927D01*
X130775669Y-77304291D01*
X130778473Y-77233350D01*
X130808778Y-77184501D01*
X136016507Y-71976773D01*
X136028899Y-71965905D01*
X136046463Y-71952428D01*
X136053013Y-71947402D01*
X136146734Y-71825261D01*
X136205650Y-71683026D01*
X136225746Y-71530389D01*
X136221778Y-71500249D01*
X136220700Y-71483803D01*
X136220700Y-62119954D01*
X136240702Y-62051833D01*
X136253064Y-62035644D01*
X136306667Y-61976111D01*
X136306669Y-61976108D01*
X136311091Y-61971197D01*
X136400577Y-61816203D01*
X136455882Y-61645991D01*
X136474590Y-61468000D01*
X136455882Y-61290009D01*
X136400577Y-61119797D01*
X136311091Y-60964803D01*
X136191336Y-60831801D01*
X136046545Y-60726604D01*
X136040517Y-60723920D01*
X136040515Y-60723919D01*
X135889077Y-60656495D01*
X135889076Y-60656495D01*
X135883046Y-60653810D01*
X135795516Y-60635205D01*
X135714443Y-60617972D01*
X135714439Y-60617972D01*
X135707986Y-60616600D01*
X135529014Y-60616600D01*
X135522561Y-60617972D01*
X135522557Y-60617972D01*
X135441484Y-60635205D01*
X135353954Y-60653810D01*
X135347924Y-60656495D01*
X135347923Y-60656495D01*
X135196485Y-60723919D01*
X135196483Y-60723920D01*
X135190455Y-60726604D01*
X135045664Y-60831801D01*
X134925909Y-60964803D01*
X134836423Y-61119797D01*
X134781118Y-61290009D01*
X134762410Y-61468000D01*
X134781118Y-61645991D01*
X134836423Y-61816203D01*
X134925909Y-61971197D01*
X134930327Y-61976104D01*
X134930328Y-61976105D01*
X134957252Y-62006008D01*
X135016301Y-62071587D01*
X135018936Y-62074514D01*
X135049654Y-62138521D01*
X135051300Y-62158824D01*
X135051300Y-71236008D01*
X135031298Y-71304129D01*
X135014395Y-71325103D01*
X132488932Y-73850567D01*
X129981384Y-76358115D01*
X129919072Y-76392141D01*
X129850231Y-76387793D01*
X129803819Y-76371358D01*
X129798730Y-76370451D01*
X129798728Y-76370451D01*
X129729429Y-76358107D01*
X129579017Y-76331315D01*
X129493861Y-76330274D01*
X129355862Y-76328588D01*
X129355860Y-76328588D01*
X129350692Y-76328525D01*
X129124979Y-76363064D01*
X129018305Y-76397930D01*
X128912855Y-76432396D01*
X128912849Y-76432398D01*
X128907937Y-76434004D01*
X128903351Y-76436391D01*
X128903347Y-76436393D01*
X128811900Y-76483998D01*
X128705396Y-76539441D01*
X128701254Y-76542551D01*
X128597992Y-76620082D01*
X128522795Y-76676541D01*
X128519223Y-76680279D01*
X128426097Y-76777730D01*
X128365038Y-76841624D01*
X128236362Y-77030257D01*
X128234188Y-77034941D01*
X128234186Y-77034944D01*
X128188472Y-77133427D01*
X128140222Y-77237372D01*
X128079200Y-77457409D01*
X128054936Y-77684457D01*
X128068080Y-77912419D01*
X128069217Y-77917465D01*
X128069218Y-77917471D01*
X128089581Y-78007826D01*
X128118280Y-78135174D01*
X128204188Y-78346739D01*
X128323496Y-78541432D01*
X128326877Y-78545335D01*
X128469615Y-78710117D01*
X128469619Y-78710121D01*
X128473000Y-78714024D01*
X128648685Y-78859881D01*
X128681282Y-78878929D01*
X128730004Y-78930567D01*
X128743075Y-79000350D01*
X128716343Y-79066122D01*
X128693369Y-79088471D01*
X128522795Y-79216541D01*
X128365038Y-79381624D01*
X128236362Y-79570257D01*
X128234188Y-79574941D01*
X128234186Y-79574944D01*
X128224541Y-79595724D01*
X128140222Y-79777372D01*
X128079200Y-79997409D01*
X128054936Y-80224457D01*
X128068080Y-80452419D01*
X128069217Y-80457465D01*
X128069218Y-80457471D01*
X128089581Y-80547826D01*
X128118280Y-80675174D01*
X128204188Y-80886739D01*
X128323496Y-81081432D01*
X128326877Y-81085335D01*
X128469615Y-81250117D01*
X128469619Y-81250121D01*
X128473000Y-81254024D01*
X128648685Y-81399881D01*
X128681282Y-81418929D01*
X128730004Y-81470567D01*
X128743075Y-81540350D01*
X128716343Y-81606122D01*
X128693369Y-81628471D01*
X128522795Y-81756541D01*
X128365038Y-81921624D01*
X128236362Y-82110257D01*
X128234188Y-82114941D01*
X128234186Y-82114944D01*
X128146342Y-82304188D01*
X128140222Y-82317372D01*
X128079200Y-82537409D01*
X128054936Y-82764457D01*
X128068080Y-82992419D01*
X128069217Y-82997465D01*
X128069218Y-82997471D01*
X128089581Y-83087826D01*
X128118280Y-83215174D01*
X128120222Y-83219956D01*
X128120223Y-83219960D01*
X128202244Y-83421952D01*
X128204188Y-83426739D01*
X128323496Y-83621432D01*
X128326877Y-83625335D01*
X128469615Y-83790117D01*
X128469619Y-83790121D01*
X128473000Y-83794024D01*
X128648685Y-83939881D01*
X128681282Y-83958929D01*
X128730004Y-84010567D01*
X128743075Y-84080350D01*
X128716343Y-84146122D01*
X128693369Y-84168471D01*
X128522795Y-84296541D01*
X128365038Y-84461624D01*
X128236362Y-84650257D01*
X128234188Y-84654941D01*
X128234186Y-84654944D01*
X128224541Y-84675724D01*
X128140222Y-84857372D01*
X128079200Y-85077409D01*
X128054936Y-85304457D01*
X128055233Y-85309609D01*
X128055233Y-85309613D01*
X128058181Y-85360739D01*
X128068080Y-85532419D01*
X128069217Y-85537465D01*
X128069218Y-85537471D01*
X128089581Y-85627826D01*
X128118280Y-85755174D01*
X128204188Y-85966739D01*
X128323496Y-86161432D01*
X128326877Y-86165335D01*
X128469615Y-86330117D01*
X128469619Y-86330121D01*
X128473000Y-86334024D01*
X128648685Y-86479881D01*
X128681282Y-86498929D01*
X128730004Y-86550567D01*
X128743075Y-86620350D01*
X128716343Y-86686122D01*
X128693369Y-86708471D01*
X128522795Y-86836541D01*
X128365038Y-87001624D01*
X128236362Y-87190257D01*
X128234188Y-87194941D01*
X128234186Y-87194944D01*
X128188299Y-87293800D01*
X128140222Y-87397372D01*
X128079200Y-87617409D01*
X128054936Y-87844457D01*
X128068080Y-88072419D01*
X128069217Y-88077465D01*
X128069218Y-88077471D01*
X128100964Y-88218336D01*
X128118280Y-88295174D01*
X128120222Y-88299956D01*
X128120223Y-88299960D01*
X128186946Y-88464278D01*
X128204188Y-88506739D01*
X128323496Y-88701432D01*
X128326877Y-88705335D01*
X128469615Y-88870117D01*
X128469619Y-88870121D01*
X128473000Y-88874024D01*
X128648685Y-89019881D01*
X128681282Y-89038929D01*
X128730004Y-89090567D01*
X128743075Y-89160350D01*
X128716343Y-89226122D01*
X128693369Y-89248471D01*
X128522795Y-89376541D01*
X128365038Y-89541624D01*
X128236362Y-89730257D01*
X128234188Y-89734941D01*
X128234186Y-89734944D01*
X128145259Y-89926521D01*
X128140222Y-89937372D01*
X128079200Y-90157409D01*
X128054936Y-90384457D01*
X128055233Y-90389609D01*
X128055233Y-90389613D01*
X128066322Y-90581921D01*
X128068080Y-90612419D01*
X128069217Y-90617465D01*
X128069218Y-90617471D01*
X128100964Y-90758336D01*
X128118280Y-90835174D01*
X128120222Y-90839956D01*
X128120223Y-90839960D01*
X128202244Y-91041952D01*
X128204188Y-91046739D01*
X128323496Y-91241432D01*
X128326877Y-91245335D01*
X128469615Y-91410117D01*
X128469619Y-91410121D01*
X128473000Y-91414024D01*
X128648685Y-91559881D01*
X128845834Y-91675085D01*
X129059151Y-91756543D01*
X129064217Y-91757574D01*
X129064218Y-91757574D01*
X129163196Y-91777711D01*
X129282909Y-91802067D01*
X129411018Y-91806765D01*
X129505932Y-91810246D01*
X129505937Y-91810246D01*
X129511096Y-91810435D01*
X129516217Y-91809779D01*
X129732459Y-91782078D01*
X129732460Y-91782078D01*
X129737587Y-91781421D01*
X129956297Y-91715804D01*
X129960936Y-91713531D01*
X129960942Y-91713529D01*
X130156719Y-91617619D01*
X130156722Y-91617617D01*
X130161354Y-91615348D01*
X130347250Y-91482750D01*
X130508993Y-91321570D01*
X130542170Y-91275400D01*
X130639221Y-91140338D01*
X130642239Y-91136138D01*
X130673260Y-91073372D01*
X130721372Y-91021166D01*
X130786216Y-91003200D01*
X137241744Y-91003200D01*
X137309865Y-91023202D01*
X137335380Y-91044890D01*
X137349164Y-91060199D01*
X137354506Y-91064080D01*
X137354508Y-91064082D01*
X137488613Y-91161515D01*
X137493955Y-91165396D01*
X137499983Y-91168080D01*
X137499985Y-91168081D01*
X137651423Y-91235505D01*
X137657454Y-91238190D01*
X137744984Y-91256795D01*
X137826057Y-91274028D01*
X137826061Y-91274028D01*
X137832514Y-91275400D01*
X138011486Y-91275400D01*
X138017939Y-91274028D01*
X138017943Y-91274028D01*
X138099016Y-91256795D01*
X138186546Y-91238190D01*
X138192577Y-91235505D01*
X138344015Y-91168081D01*
X138344017Y-91168080D01*
X138350045Y-91165396D01*
X138355387Y-91161515D01*
X138489492Y-91064082D01*
X138489494Y-91064080D01*
X138494836Y-91060199D01*
X138502990Y-91051143D01*
X138610172Y-90932105D01*
X138610173Y-90932104D01*
X138614591Y-90927197D01*
X138704077Y-90772203D01*
X138759382Y-90601991D01*
X138778090Y-90424000D01*
X138759382Y-90246009D01*
X138704077Y-90075797D01*
X138614591Y-89920803D01*
X138536254Y-89833800D01*
X138499258Y-89792712D01*
X138499257Y-89792711D01*
X138494836Y-89787801D01*
X138466680Y-89767344D01*
X138355387Y-89686485D01*
X138355386Y-89686484D01*
X138350045Y-89682604D01*
X138344017Y-89679920D01*
X138344015Y-89679919D01*
X138192577Y-89612495D01*
X138192576Y-89612495D01*
X138186546Y-89609810D01*
X138099016Y-89591205D01*
X138017943Y-89573972D01*
X138017939Y-89573972D01*
X138011486Y-89572600D01*
X137832514Y-89572600D01*
X137826061Y-89573972D01*
X137826057Y-89573972D01*
X137744984Y-89591205D01*
X137657454Y-89609810D01*
X137651424Y-89612495D01*
X137651423Y-89612495D01*
X137499985Y-89679919D01*
X137499983Y-89679920D01*
X137493955Y-89682604D01*
X137488614Y-89686484D01*
X137488613Y-89686485D01*
X137377321Y-89767344D01*
X137349164Y-89787801D01*
X137344746Y-89792708D01*
X137339837Y-89797128D01*
X137338875Y-89796059D01*
X137284835Y-89829351D01*
X137251647Y-89833800D01*
X130790337Y-89833800D01*
X130722216Y-89813798D01*
X130679294Y-89767344D01*
X130677931Y-89764801D01*
X130675870Y-89760062D01*
X130673064Y-89755725D01*
X130673061Y-89755719D01*
X130554649Y-89572683D01*
X130554647Y-89572680D01*
X130551841Y-89568343D01*
X130398164Y-89399454D01*
X130394113Y-89396255D01*
X130394109Y-89396251D01*
X130223023Y-89261135D01*
X130223019Y-89261133D01*
X130218968Y-89257933D01*
X130214446Y-89255437D01*
X130210134Y-89252572D01*
X130211253Y-89250888D01*
X130167380Y-89206599D01*
X130152616Y-89137154D01*
X130177740Y-89070752D01*
X130205081Y-89044158D01*
X130347250Y-88942750D01*
X130508993Y-88781570D01*
X130642239Y-88596138D01*
X130673260Y-88533372D01*
X130721372Y-88481166D01*
X130786216Y-88463200D01*
X136345922Y-88463200D01*
X136362369Y-88464278D01*
X136392500Y-88468245D01*
X136430819Y-88463200D01*
X136430824Y-88463200D01*
X136536949Y-88449228D01*
X136545137Y-88448150D01*
X136645713Y-88406490D01*
X136687373Y-88389234D01*
X136731886Y-88355077D01*
X136809513Y-88295513D01*
X136814539Y-88288963D01*
X136814543Y-88288959D01*
X136828023Y-88271391D01*
X136838891Y-88258999D01*
X138514734Y-86583157D01*
X138527126Y-86572289D01*
X138575269Y-86535348D01*
X138598513Y-86517513D01*
X138617020Y-86493394D01*
X138627888Y-86481002D01*
X139064507Y-86044384D01*
X139076898Y-86033517D01*
X139094462Y-86020040D01*
X139094463Y-86020039D01*
X139101013Y-86015013D01*
X139138055Y-85966739D01*
X139194734Y-85892873D01*
X139223016Y-85824593D01*
X139253650Y-85750637D01*
X139258454Y-85714152D01*
X139268700Y-85636321D01*
X139268700Y-85636319D01*
X139272667Y-85606188D01*
X139273745Y-85598000D01*
X139273021Y-85592504D01*
X139273746Y-85587000D01*
X139269778Y-85556862D01*
X139268700Y-85540415D01*
X139268700Y-77633390D01*
X139288702Y-77565269D01*
X139301063Y-77549080D01*
X139372171Y-77470106D01*
X139376591Y-77465197D01*
X139388182Y-77445121D01*
X139439565Y-77396129D01*
X139509278Y-77382694D01*
X139575189Y-77409081D01*
X139616371Y-77466914D01*
X139623300Y-77508123D01*
X139623300Y-117815620D01*
X139603298Y-117883741D01*
X139586395Y-117904715D01*
X139032215Y-118458895D01*
X138969903Y-118492921D01*
X138943120Y-118495800D01*
X138613459Y-118495800D01*
X138545338Y-118475798D01*
X138499265Y-118423051D01*
X138494663Y-118413181D01*
X138494660Y-118413176D01*
X138492336Y-118408192D01*
X138357900Y-118216197D01*
X138192167Y-118050464D01*
X138187659Y-118047307D01*
X138187656Y-118047305D01*
X138080365Y-117972179D01*
X138000173Y-117916028D01*
X137995191Y-117913705D01*
X137995186Y-117913702D01*
X137792732Y-117819296D01*
X137792730Y-117819295D01*
X137787750Y-117816973D01*
X137782442Y-117815551D01*
X137782440Y-117815550D01*
X137566669Y-117757735D01*
X137566668Y-117757735D01*
X137561354Y-117756311D01*
X137327864Y-117735883D01*
X137094374Y-117756311D01*
X137089060Y-117757735D01*
X137089059Y-117757735D01*
X136873288Y-117815550D01*
X136873286Y-117815551D01*
X136867978Y-117816973D01*
X136862998Y-117819295D01*
X136862996Y-117819296D01*
X136660543Y-117913702D01*
X136660538Y-117913705D01*
X136655556Y-117916028D01*
X136651049Y-117919184D01*
X136651047Y-117919185D01*
X136468072Y-118047305D01*
X136468069Y-118047307D01*
X136463561Y-118050464D01*
X136297828Y-118216197D01*
X136294671Y-118220705D01*
X136294669Y-118220708D01*
X136166549Y-118403683D01*
X136166548Y-118403685D01*
X136163392Y-118408192D01*
X136161069Y-118413174D01*
X136161066Y-118413179D01*
X136066660Y-118615632D01*
X136064337Y-118620614D01*
X136062915Y-118625922D01*
X136062914Y-118625924D01*
X136005099Y-118841695D01*
X136003675Y-118847010D01*
X135983247Y-119080500D01*
X136003675Y-119313990D01*
X136005099Y-119319304D01*
X136005099Y-119319305D01*
X136043066Y-119460999D01*
X136064337Y-119540386D01*
X136066659Y-119545366D01*
X136066660Y-119545368D01*
X136161066Y-119747821D01*
X136161069Y-119747826D01*
X136163392Y-119752808D01*
X136166548Y-119757315D01*
X136166549Y-119757317D01*
X136220296Y-119834075D01*
X136297828Y-119944803D01*
X136463561Y-120110536D01*
X136468069Y-120113693D01*
X136468072Y-120113695D01*
X136548216Y-120169812D01*
X136655555Y-120244972D01*
X136660537Y-120247295D01*
X136660542Y-120247298D01*
X136861984Y-120341232D01*
X136867978Y-120344027D01*
X136873286Y-120345449D01*
X136873288Y-120345450D01*
X137089059Y-120403265D01*
X137089060Y-120403265D01*
X137094374Y-120404689D01*
X137327864Y-120425117D01*
X137561354Y-120404689D01*
X137566668Y-120403265D01*
X137566669Y-120403265D01*
X137782440Y-120345450D01*
X137782442Y-120345449D01*
X137787750Y-120344027D01*
X137793744Y-120341232D01*
X137995186Y-120247298D01*
X137995191Y-120247295D01*
X138000173Y-120244972D01*
X138107512Y-120169812D01*
X138187656Y-120113695D01*
X138187659Y-120113693D01*
X138192167Y-120110536D01*
X138357900Y-119944803D01*
X138492336Y-119752808D01*
X138494662Y-119747821D01*
X138494663Y-119747819D01*
X138499265Y-119737949D01*
X138546182Y-119684664D01*
X138613459Y-119665200D01*
X139190922Y-119665200D01*
X139207369Y-119666278D01*
X139237500Y-119670245D01*
X139275819Y-119665200D01*
X139275824Y-119665200D01*
X139381949Y-119651228D01*
X139390137Y-119650150D01*
X139490713Y-119608490D01*
X139524745Y-119594394D01*
X139524747Y-119594393D01*
X139532373Y-119591234D01*
X139586284Y-119549866D01*
X139654513Y-119497513D01*
X139659539Y-119490963D01*
X139659543Y-119490959D01*
X139673023Y-119473391D01*
X139683891Y-119460999D01*
X139916205Y-119228685D01*
X139978517Y-119194659D01*
X140049332Y-119199724D01*
X140106168Y-119242271D01*
X140130979Y-119308791D01*
X140131300Y-119317780D01*
X140131300Y-132161984D01*
X140111298Y-132230105D01*
X140094395Y-132251079D01*
X137820854Y-134524620D01*
X137758542Y-134558646D01*
X137699148Y-134557232D01*
X137566669Y-134521735D01*
X137566668Y-134521735D01*
X137561354Y-134520311D01*
X137327864Y-134499883D01*
X137094374Y-134520311D01*
X137089060Y-134521735D01*
X137089059Y-134521735D01*
X136873288Y-134579550D01*
X136873286Y-134579551D01*
X136867978Y-134580973D01*
X136862998Y-134583295D01*
X136862996Y-134583296D01*
X136660543Y-134677702D01*
X136660538Y-134677705D01*
X136655556Y-134680028D01*
X136651049Y-134683184D01*
X136651047Y-134683185D01*
X136468072Y-134811305D01*
X136468069Y-134811307D01*
X136463561Y-134814464D01*
X136297828Y-134980197D01*
X136163392Y-135172192D01*
X136161069Y-135177174D01*
X136161066Y-135177179D01*
X136160949Y-135177430D01*
X136064337Y-135384614D01*
X136003675Y-135611010D01*
X135983247Y-135844500D01*
X136003675Y-136077990D01*
X136005099Y-136083304D01*
X136005099Y-136083305D01*
X136021249Y-136143576D01*
X136064337Y-136304386D01*
X136066659Y-136309366D01*
X136066660Y-136309368D01*
X136161066Y-136511821D01*
X136161069Y-136511826D01*
X136163392Y-136516808D01*
X136166548Y-136521315D01*
X136166549Y-136521317D01*
X136290476Y-136698303D01*
X136297828Y-136708803D01*
X136463561Y-136874536D01*
X136468069Y-136877693D01*
X136468072Y-136877695D01*
X136548216Y-136933812D01*
X136655555Y-137008972D01*
X136660537Y-137011295D01*
X136660542Y-137011298D01*
X136846003Y-137097780D01*
X136867978Y-137108027D01*
X136873286Y-137109449D01*
X136873288Y-137109450D01*
X137089059Y-137167265D01*
X137089060Y-137167265D01*
X137094374Y-137168689D01*
X137327864Y-137189117D01*
X137561354Y-137168689D01*
X137566668Y-137167265D01*
X137566669Y-137167265D01*
X137782440Y-137109450D01*
X137782442Y-137109449D01*
X137787750Y-137108027D01*
X137809725Y-137097780D01*
X137995186Y-137011298D01*
X137995191Y-137011295D01*
X138000173Y-137008972D01*
X138107512Y-136933812D01*
X138187656Y-136877695D01*
X138187659Y-136877693D01*
X138192167Y-136874536D01*
X138357900Y-136708803D01*
X138365253Y-136698303D01*
X138489179Y-136521317D01*
X138489180Y-136521315D01*
X138492336Y-136516808D01*
X138494659Y-136511826D01*
X138494662Y-136511821D01*
X138589068Y-136309368D01*
X138589069Y-136309366D01*
X138591391Y-136304386D01*
X138634480Y-136143576D01*
X138650629Y-136083305D01*
X138650629Y-136083304D01*
X138652053Y-136077990D01*
X138672481Y-135844500D01*
X138652053Y-135611010D01*
X138615132Y-135473216D01*
X138616822Y-135402239D01*
X138647744Y-135351510D01*
X140424205Y-133575049D01*
X140486517Y-133541023D01*
X140557332Y-133546088D01*
X140614168Y-133588635D01*
X140638979Y-133655155D01*
X140639300Y-133664144D01*
X140639300Y-143845983D01*
X140619298Y-143914104D01*
X140602395Y-143935078D01*
X137820854Y-146716620D01*
X137758542Y-146750646D01*
X137699148Y-146749232D01*
X137566669Y-146713735D01*
X137566668Y-146713735D01*
X137561354Y-146712311D01*
X137327864Y-146691883D01*
X137094374Y-146712311D01*
X137089060Y-146713735D01*
X137089059Y-146713735D01*
X136873288Y-146771550D01*
X136873286Y-146771551D01*
X136867978Y-146772973D01*
X136862998Y-146775295D01*
X136862996Y-146775296D01*
X136660543Y-146869702D01*
X136660538Y-146869705D01*
X136655556Y-146872028D01*
X136651049Y-146875184D01*
X136651047Y-146875185D01*
X136468072Y-147003305D01*
X136468069Y-147003307D01*
X136463561Y-147006464D01*
X136297828Y-147172197D01*
X136163392Y-147364192D01*
X136161069Y-147369174D01*
X136161066Y-147369179D01*
X136160949Y-147369430D01*
X136064337Y-147576614D01*
X136003675Y-147803010D01*
X135983247Y-148036500D01*
X136003675Y-148269990D01*
X136064337Y-148496386D01*
X136066659Y-148501366D01*
X136066660Y-148501368D01*
X136161066Y-148703821D01*
X136161069Y-148703826D01*
X136163392Y-148708808D01*
X136166548Y-148713315D01*
X136166549Y-148713317D01*
X136284887Y-148882321D01*
X136297828Y-148900803D01*
X136463561Y-149066536D01*
X136468069Y-149069693D01*
X136468072Y-149069695D01*
X136507372Y-149097213D01*
X136655555Y-149200972D01*
X136660537Y-149203295D01*
X136660542Y-149203298D01*
X136861984Y-149297232D01*
X136867978Y-149300027D01*
X136873286Y-149301449D01*
X136873288Y-149301450D01*
X137089059Y-149359265D01*
X137089060Y-149359265D01*
X137094374Y-149360689D01*
X137327864Y-149381117D01*
X137561354Y-149360689D01*
X137566668Y-149359265D01*
X137566669Y-149359265D01*
X137782440Y-149301450D01*
X137782442Y-149301449D01*
X137787750Y-149300027D01*
X137793744Y-149297232D01*
X137995186Y-149203298D01*
X137995191Y-149203295D01*
X138000173Y-149200972D01*
X138148356Y-149097213D01*
X138187656Y-149069695D01*
X138187659Y-149069693D01*
X138192167Y-149066536D01*
X138357900Y-148900803D01*
X138370842Y-148882321D01*
X138489179Y-148713317D01*
X138489180Y-148713315D01*
X138492336Y-148708808D01*
X138494659Y-148703826D01*
X138494662Y-148703821D01*
X138589068Y-148501368D01*
X138589069Y-148501366D01*
X138591391Y-148496386D01*
X138652053Y-148269990D01*
X138672481Y-148036500D01*
X138652053Y-147803010D01*
X138615132Y-147665216D01*
X138616822Y-147594239D01*
X138647744Y-147543510D01*
X141604507Y-144586748D01*
X141616899Y-144575880D01*
X141634460Y-144562405D01*
X141641013Y-144557377D01*
X141712394Y-144464351D01*
X141734734Y-144435237D01*
X141759138Y-144376321D01*
X141766203Y-144359265D01*
X141790490Y-144300631D01*
X141790491Y-144300628D01*
X141793650Y-144293001D01*
X141808700Y-144178685D01*
X141808700Y-144178683D01*
X141813745Y-144140364D01*
X141809778Y-144110231D01*
X141808700Y-144093785D01*
X141808700Y-35860586D01*
X141809778Y-35844139D01*
X141812668Y-35822188D01*
X141813746Y-35814000D01*
X141793650Y-35661363D01*
X141734734Y-35519127D01*
X141664543Y-35427652D01*
X141664542Y-35427651D01*
X141641013Y-35396987D01*
X141616893Y-35378479D01*
X141604503Y-35367612D01*
X139892387Y-33655497D01*
X139881519Y-33643105D01*
X139868039Y-33625537D01*
X139863013Y-33618987D01*
X139785386Y-33559423D01*
X139740873Y-33525266D01*
X139699213Y-33508010D01*
X139598637Y-33466350D01*
X139590449Y-33465272D01*
X139484324Y-33451300D01*
X139484319Y-33451300D01*
X139446000Y-33446255D01*
X139437812Y-33447333D01*
X139415867Y-33450222D01*
X139399421Y-33451300D01*
X137605298Y-33451300D01*
X137537177Y-33431298D01*
X137490684Y-33377642D01*
X137480580Y-33307368D01*
X137491103Y-33272050D01*
X137521885Y-33206039D01*
X137521886Y-33206038D01*
X137524208Y-33201057D01*
X137570635Y-33027792D01*
X137580897Y-32989492D01*
X137580897Y-32989490D01*
X137582321Y-32984177D01*
X137601890Y-32760500D01*
X137582321Y-32536823D01*
X137542681Y-32388885D01*
X137525631Y-32325253D01*
X137525630Y-32325251D01*
X137524208Y-32319943D01*
X137504711Y-32278131D01*
X137431643Y-32121436D01*
X137431640Y-32121431D01*
X137429317Y-32116449D01*
X137300531Y-31932524D01*
X137141764Y-31773757D01*
X137137256Y-31770600D01*
X137137253Y-31770598D01*
X137060636Y-31716951D01*
X136957839Y-31644971D01*
X136952857Y-31642648D01*
X136952852Y-31642645D01*
X136871467Y-31604695D01*
X136818182Y-31557778D01*
X136798721Y-31489500D01*
X136819263Y-31421540D01*
X136871467Y-31376305D01*
X136952852Y-31338355D01*
X136952857Y-31338352D01*
X136957839Y-31336029D01*
X137060636Y-31264049D01*
X137137253Y-31210402D01*
X137137256Y-31210400D01*
X137141764Y-31207243D01*
X137300531Y-31048476D01*
X137341582Y-30989850D01*
X137410404Y-30891561D01*
X137429317Y-30864551D01*
X137431640Y-30859569D01*
X137431643Y-30859564D01*
X137521885Y-30666039D01*
X137521886Y-30666038D01*
X137524208Y-30661057D01*
X137582321Y-30444177D01*
X137601890Y-30220500D01*
X137582321Y-29996823D01*
X137524208Y-29779943D01*
X137514153Y-29758380D01*
X137431643Y-29581436D01*
X137431640Y-29581431D01*
X137429317Y-29576449D01*
X137300531Y-29392524D01*
X137141764Y-29233757D01*
X137137256Y-29230600D01*
X137137253Y-29230598D01*
X137040104Y-29162574D01*
X136957839Y-29104971D01*
X136952857Y-29102648D01*
X136952852Y-29102645D01*
X136759327Y-29012403D01*
X136759326Y-29012402D01*
X136754345Y-29010080D01*
X136749037Y-29008658D01*
X136749035Y-29008657D01*
X136542780Y-28953391D01*
X136542778Y-28953391D01*
X136537465Y-28951967D01*
X136313788Y-28932398D01*
X136090111Y-28951967D01*
X136084798Y-28953391D01*
X136084796Y-28953391D01*
X135878541Y-29008657D01*
X135878539Y-29008658D01*
X135873231Y-29010080D01*
X135868250Y-29012402D01*
X135868249Y-29012403D01*
X135674724Y-29102645D01*
X135674719Y-29102648D01*
X135669737Y-29104971D01*
X135587472Y-29162574D01*
X135490323Y-29230598D01*
X135490320Y-29230600D01*
X135485812Y-29233757D01*
X135327045Y-29392524D01*
X135198259Y-29576449D01*
X135195936Y-29581431D01*
X135195933Y-29581436D01*
X135113423Y-29758380D01*
X135103368Y-29779943D01*
X135045255Y-29996823D01*
X135025686Y-30220500D01*
X135045255Y-30444177D01*
X135103368Y-30661057D01*
X135105690Y-30666038D01*
X135105691Y-30666039D01*
X135195933Y-30859564D01*
X135195936Y-30859569D01*
X135198259Y-30864551D01*
X135217172Y-30891561D01*
X135285995Y-30989850D01*
X135327045Y-31048476D01*
X135485812Y-31207243D01*
X135490320Y-31210400D01*
X135490323Y-31210402D01*
X135566940Y-31264049D01*
X135669737Y-31336029D01*
X135674719Y-31338352D01*
X135674724Y-31338355D01*
X135756109Y-31376305D01*
X135809394Y-31423222D01*
X135828855Y-31491500D01*
X135808313Y-31559460D01*
X135756109Y-31604695D01*
X135674724Y-31642645D01*
X135674719Y-31642648D01*
X135669737Y-31644971D01*
X135566940Y-31716951D01*
X135490323Y-31770598D01*
X135490320Y-31770600D01*
X135485812Y-31773757D01*
X135327045Y-31932524D01*
X135198259Y-32116449D01*
X135195936Y-32121431D01*
X135195933Y-32121436D01*
X135122865Y-32278131D01*
X135103368Y-32319943D01*
X135101946Y-32325251D01*
X135101945Y-32325253D01*
X135084895Y-32388885D01*
X135045255Y-32536823D01*
X135025686Y-32760500D01*
X135045255Y-32984177D01*
X135046679Y-32989490D01*
X135046679Y-32989492D01*
X135056942Y-33027792D01*
X135103368Y-33201057D01*
X135105690Y-33206038D01*
X135105691Y-33206039D01*
X135136473Y-33272050D01*
X135147134Y-33342241D01*
X135118154Y-33407054D01*
X135058735Y-33445911D01*
X135022278Y-33451300D01*
X134412586Y-33451300D01*
X134396139Y-33450222D01*
X134374188Y-33447332D01*
X134366000Y-33446254D01*
X134357812Y-33447332D01*
X134340731Y-33449581D01*
X134213363Y-33466350D01*
X134071127Y-33525266D01*
X133979652Y-33595457D01*
X133948987Y-33618987D01*
X133943965Y-33625532D01*
X133930480Y-33643106D01*
X133919612Y-33655497D01*
X132382715Y-35192395D01*
X132320403Y-35226420D01*
X132293620Y-35229300D01*
X123527158Y-35229300D01*
X123459037Y-35209298D01*
X123438063Y-35192395D01*
X122562994Y-34317326D01*
X122528968Y-34255014D01*
X122526089Y-34228231D01*
X122526089Y-32910137D01*
X122546091Y-32842016D01*
X122596657Y-32796985D01*
X122655814Y-32768005D01*
X122655817Y-32768003D01*
X122660449Y-32765734D01*
X122738821Y-32709832D01*
X122843599Y-32635095D01*
X122843601Y-32635093D01*
X122847803Y-32632096D01*
X123010814Y-32469652D01*
X123108945Y-32333089D01*
X123164939Y-32289441D01*
X123235643Y-32282995D01*
X123298607Y-32315798D01*
X123318699Y-32340780D01*
X123348178Y-32388885D01*
X123498855Y-32562831D01*
X123502830Y-32566131D01*
X123502834Y-32566135D01*
X123576258Y-32627092D01*
X123675918Y-32709832D01*
X123874613Y-32825940D01*
X124089603Y-32908037D01*
X124094665Y-32909067D01*
X124094669Y-32909068D01*
X124244392Y-32939529D01*
X124315115Y-32953917D01*
X124444727Y-32958670D01*
X124539928Y-32962161D01*
X124539932Y-32962161D01*
X124545092Y-32962350D01*
X124550212Y-32961694D01*
X124550214Y-32961694D01*
X124768232Y-32933766D01*
X124768235Y-32933765D01*
X124773359Y-32933109D01*
X124853492Y-32909068D01*
X124988831Y-32868464D01*
X124993784Y-32866978D01*
X124998423Y-32864705D01*
X124998429Y-32864703D01*
X125195814Y-32768005D01*
X125195817Y-32768003D01*
X125200449Y-32765734D01*
X125278821Y-32709832D01*
X125383599Y-32635095D01*
X125383601Y-32635093D01*
X125387803Y-32632096D01*
X125550814Y-32469652D01*
X125648945Y-32333089D01*
X125704939Y-32289441D01*
X125775643Y-32282995D01*
X125838607Y-32315798D01*
X125858699Y-32340780D01*
X125888178Y-32388885D01*
X126038855Y-32562831D01*
X126042830Y-32566131D01*
X126042834Y-32566135D01*
X126116258Y-32627092D01*
X126215918Y-32709832D01*
X126414613Y-32825940D01*
X126629603Y-32908037D01*
X126634665Y-32909067D01*
X126634669Y-32909068D01*
X126784392Y-32939529D01*
X126855115Y-32953917D01*
X126984727Y-32958670D01*
X127079928Y-32962161D01*
X127079932Y-32962161D01*
X127085092Y-32962350D01*
X127090212Y-32961694D01*
X127090214Y-32961694D01*
X127308232Y-32933766D01*
X127308235Y-32933765D01*
X127313359Y-32933109D01*
X127393492Y-32909068D01*
X127528831Y-32868464D01*
X127533784Y-32866978D01*
X127538423Y-32864705D01*
X127538429Y-32864703D01*
X127735814Y-32768005D01*
X127735817Y-32768003D01*
X127740449Y-32765734D01*
X127818821Y-32709832D01*
X127923599Y-32635095D01*
X127923601Y-32635093D01*
X127927803Y-32632096D01*
X128090814Y-32469652D01*
X128146042Y-32392795D01*
X128222088Y-32286967D01*
X128222092Y-32286961D01*
X128225106Y-32282766D01*
X128251057Y-32230259D01*
X128324776Y-32081098D01*
X128324777Y-32081096D01*
X128327070Y-32076456D01*
X128342202Y-32026650D01*
X128392466Y-31861215D01*
X128392467Y-31861209D01*
X128393970Y-31856263D01*
X128406502Y-31761076D01*
X128423571Y-31631422D01*
X128423571Y-31631416D01*
X128424008Y-31628100D01*
X128425685Y-31559500D01*
X128414481Y-31423222D01*
X128407252Y-31335293D01*
X128407251Y-31335287D01*
X128406828Y-31330142D01*
X128350765Y-31106944D01*
X128327037Y-31052373D01*
X128261060Y-30900636D01*
X128261058Y-30900633D01*
X128259000Y-30895899D01*
X128255444Y-30890401D01*
X128136808Y-30707020D01*
X128133998Y-30702676D01*
X128113377Y-30680013D01*
X127982595Y-30536285D01*
X127982593Y-30536283D01*
X127979117Y-30532463D01*
X127975066Y-30529264D01*
X127975062Y-30529260D01*
X127802569Y-30393033D01*
X127802564Y-30393030D01*
X127798515Y-30389832D01*
X127793999Y-30387339D01*
X127793996Y-30387337D01*
X127601564Y-30281109D01*
X127601561Y-30281108D01*
X127597042Y-30278613D01*
X127380110Y-30201794D01*
X127328794Y-30192653D01*
X127158633Y-30162342D01*
X127158629Y-30162342D01*
X127153545Y-30161436D01*
X127080418Y-30160543D01*
X126928600Y-30158688D01*
X126928598Y-30158688D01*
X126923430Y-30158625D01*
X126695946Y-30193435D01*
X126477202Y-30264931D01*
X126273073Y-30371194D01*
X126268940Y-30374297D01*
X126268937Y-30374299D01*
X126093175Y-30506265D01*
X126089040Y-30509370D01*
X125930046Y-30675748D01*
X125855496Y-30785035D01*
X125800587Y-30830035D01*
X125730062Y-30838206D01*
X125666315Y-30806952D01*
X125645618Y-30782468D01*
X125596809Y-30707020D01*
X125596804Y-30707014D01*
X125593998Y-30702676D01*
X125573377Y-30680013D01*
X125442595Y-30536285D01*
X125442593Y-30536283D01*
X125439117Y-30532463D01*
X125435066Y-30529264D01*
X125435062Y-30529260D01*
X125262569Y-30393033D01*
X125262564Y-30393030D01*
X125258515Y-30389832D01*
X125253999Y-30387339D01*
X125253996Y-30387337D01*
X125061564Y-30281109D01*
X125061561Y-30281108D01*
X125057042Y-30278613D01*
X124840110Y-30201794D01*
X124788794Y-30192653D01*
X124618633Y-30162342D01*
X124618629Y-30162342D01*
X124613545Y-30161436D01*
X124540418Y-30160543D01*
X124388600Y-30158688D01*
X124388598Y-30158688D01*
X124383430Y-30158625D01*
X124155946Y-30193435D01*
X123937202Y-30264931D01*
X123733073Y-30371194D01*
X123728940Y-30374297D01*
X123728937Y-30374299D01*
X123553175Y-30506265D01*
X123549040Y-30509370D01*
X123390046Y-30675748D01*
X123315496Y-30785035D01*
X123260587Y-30830035D01*
X123190062Y-30838206D01*
X123126315Y-30806952D01*
X123105618Y-30782468D01*
X123056809Y-30707020D01*
X123056804Y-30707014D01*
X123053998Y-30702676D01*
X123033377Y-30680013D01*
X122902595Y-30536285D01*
X122902593Y-30536283D01*
X122899117Y-30532463D01*
X122895066Y-30529264D01*
X122895062Y-30529260D01*
X122722569Y-30393033D01*
X122722564Y-30393030D01*
X122718515Y-30389832D01*
X122713999Y-30387339D01*
X122713996Y-30387337D01*
X122521564Y-30281109D01*
X122521561Y-30281108D01*
X122517042Y-30278613D01*
X122300110Y-30201794D01*
X122248794Y-30192653D01*
X122078633Y-30162342D01*
X122078629Y-30162342D01*
X122073545Y-30161436D01*
X122000418Y-30160543D01*
X121848600Y-30158688D01*
X121848598Y-30158688D01*
X121843430Y-30158625D01*
X121615946Y-30193435D01*
X121397202Y-30264931D01*
X121193073Y-30371194D01*
X121188940Y-30374297D01*
X121188937Y-30374299D01*
X121013175Y-30506265D01*
X121009040Y-30509370D01*
X120850046Y-30675748D01*
X120775496Y-30785035D01*
X120720587Y-30830035D01*
X120650062Y-30838206D01*
X120586315Y-30806952D01*
X120565618Y-30782468D01*
X120516809Y-30707020D01*
X120516804Y-30707014D01*
X120513998Y-30702676D01*
X120493377Y-30680013D01*
X120362595Y-30536285D01*
X120362593Y-30536283D01*
X120359117Y-30532463D01*
X120355066Y-30529264D01*
X120355062Y-30529260D01*
X120182573Y-30393037D01*
X120178515Y-30389832D01*
X120140425Y-30368805D01*
X120051195Y-30319547D01*
X120001225Y-30269114D01*
X119986089Y-30209239D01*
X119986089Y-28515975D01*
X119987167Y-28499528D01*
X119990057Y-28477577D01*
X119991135Y-28469389D01*
X119971039Y-28316752D01*
X119912123Y-28174516D01*
X119841932Y-28083041D01*
X119841931Y-28083040D01*
X119818402Y-28052376D01*
X119794282Y-28033868D01*
X119781892Y-28023001D01*
X119534216Y-27775325D01*
X135411588Y-27775325D01*
X135451018Y-27960831D01*
X135453702Y-27966860D01*
X135453703Y-27966862D01*
X135505430Y-28083041D01*
X135528156Y-28134085D01*
X135639629Y-28287515D01*
X135780567Y-28414416D01*
X135786285Y-28417717D01*
X135927986Y-28499528D01*
X135944809Y-28509241D01*
X135951095Y-28511283D01*
X135951094Y-28511283D01*
X136118898Y-28565806D01*
X136118899Y-28565806D01*
X136125177Y-28567846D01*
X136131740Y-28568536D01*
X136131741Y-28568536D01*
X136155175Y-28570999D01*
X136266502Y-28582700D01*
X136361074Y-28582700D01*
X136472401Y-28570999D01*
X136495835Y-28568536D01*
X136495836Y-28568536D01*
X136502399Y-28567846D01*
X136508677Y-28565806D01*
X136508678Y-28565806D01*
X136676482Y-28511283D01*
X136676481Y-28511283D01*
X136682767Y-28509241D01*
X136699591Y-28499528D01*
X136841291Y-28417717D01*
X136847009Y-28414416D01*
X136987947Y-28287515D01*
X137099420Y-28134085D01*
X137122147Y-28083041D01*
X137173873Y-27966862D01*
X137173874Y-27966860D01*
X137176558Y-27960831D01*
X137215988Y-27775325D01*
X137951588Y-27775325D01*
X137991018Y-27960831D01*
X137993702Y-27966860D01*
X137993703Y-27966862D01*
X138045430Y-28083041D01*
X138068156Y-28134085D01*
X138179629Y-28287515D01*
X138320567Y-28414416D01*
X138326285Y-28417717D01*
X138467986Y-28499528D01*
X138484809Y-28509241D01*
X138491095Y-28511283D01*
X138491094Y-28511283D01*
X138658898Y-28565806D01*
X138658899Y-28565806D01*
X138665177Y-28567846D01*
X138671740Y-28568536D01*
X138671741Y-28568536D01*
X138695175Y-28570999D01*
X138806502Y-28582700D01*
X138901074Y-28582700D01*
X139012401Y-28570999D01*
X139035835Y-28568536D01*
X139035836Y-28568536D01*
X139042399Y-28567846D01*
X139048677Y-28565806D01*
X139048678Y-28565806D01*
X139216482Y-28511283D01*
X139216481Y-28511283D01*
X139222767Y-28509241D01*
X139239591Y-28499528D01*
X139381291Y-28417717D01*
X139387009Y-28414416D01*
X139527947Y-28287515D01*
X139639420Y-28134085D01*
X139662147Y-28083041D01*
X139713873Y-27966862D01*
X139713874Y-27966860D01*
X139716558Y-27960831D01*
X139755988Y-27775325D01*
X139755988Y-27585675D01*
X139744564Y-27531926D01*
X139717930Y-27406626D01*
X139716558Y-27400169D01*
X139693966Y-27349427D01*
X139642105Y-27232945D01*
X139642104Y-27232943D01*
X139639420Y-27226915D01*
X139608650Y-27184563D01*
X139531830Y-27078829D01*
X139531828Y-27078827D01*
X139527947Y-27073485D01*
X139387009Y-26946584D01*
X139222767Y-26851759D01*
X139147548Y-26827319D01*
X139048678Y-26795194D01*
X139048677Y-26795194D01*
X139042399Y-26793154D01*
X139035836Y-26792464D01*
X139035835Y-26792464D01*
X139012401Y-26790001D01*
X138901074Y-26778300D01*
X138806502Y-26778300D01*
X138695175Y-26790001D01*
X138671741Y-26792464D01*
X138671740Y-26792464D01*
X138665177Y-26793154D01*
X138658899Y-26795194D01*
X138658898Y-26795194D01*
X138560028Y-26827319D01*
X138484809Y-26851759D01*
X138320567Y-26946584D01*
X138179629Y-27073485D01*
X138175748Y-27078827D01*
X138175746Y-27078829D01*
X138098926Y-27184563D01*
X138068156Y-27226915D01*
X138065472Y-27232943D01*
X138065471Y-27232945D01*
X138013610Y-27349427D01*
X137991018Y-27400169D01*
X137989646Y-27406626D01*
X137963013Y-27531926D01*
X137951588Y-27585675D01*
X137951588Y-27775325D01*
X137215988Y-27775325D01*
X137215988Y-27585675D01*
X137204564Y-27531926D01*
X137177930Y-27406626D01*
X137176558Y-27400169D01*
X137153966Y-27349427D01*
X137102105Y-27232945D01*
X137102104Y-27232943D01*
X137099420Y-27226915D01*
X137068650Y-27184563D01*
X136991830Y-27078829D01*
X136991828Y-27078827D01*
X136987947Y-27073485D01*
X136847009Y-26946584D01*
X136682767Y-26851759D01*
X136607548Y-26827319D01*
X136508678Y-26795194D01*
X136508677Y-26795194D01*
X136502399Y-26793154D01*
X136495836Y-26792464D01*
X136495835Y-26792464D01*
X136472401Y-26790001D01*
X136361074Y-26778300D01*
X136266502Y-26778300D01*
X136155175Y-26790001D01*
X136131741Y-26792464D01*
X136131740Y-26792464D01*
X136125177Y-26793154D01*
X136118899Y-26795194D01*
X136118898Y-26795194D01*
X136020028Y-26827319D01*
X135944809Y-26851759D01*
X135780567Y-26946584D01*
X135639629Y-27073485D01*
X135635748Y-27078827D01*
X135635746Y-27078829D01*
X135558926Y-27184563D01*
X135528156Y-27226915D01*
X135525472Y-27232943D01*
X135525471Y-27232945D01*
X135473610Y-27349427D01*
X135451018Y-27400169D01*
X135449646Y-27406626D01*
X135423013Y-27531926D01*
X135411588Y-27585675D01*
X135411588Y-27775325D01*
X119534216Y-27775325D01*
X117540387Y-25781497D01*
X117529519Y-25769105D01*
X117516039Y-25751537D01*
X117511013Y-25744987D01*
X117433386Y-25685423D01*
X117388873Y-25651266D01*
X117347213Y-25634010D01*
X117246637Y-25592350D01*
X117238449Y-25591272D01*
X117132324Y-25577300D01*
X117132319Y-25577300D01*
X117094000Y-25572255D01*
X117085812Y-25573333D01*
X117063867Y-25576222D01*
X117047421Y-25577300D01*
X101392578Y-25577300D01*
X101376131Y-25576222D01*
X101354188Y-25573333D01*
X101346000Y-25572255D01*
X101307681Y-25577300D01*
X101307676Y-25577300D01*
X101201551Y-25591272D01*
X101193363Y-25592350D01*
X101185736Y-25595509D01*
X101185733Y-25595510D01*
X101110043Y-25626862D01*
X101051127Y-25651266D01*
X101006614Y-25685423D01*
X100928987Y-25744987D01*
X100923961Y-25751537D01*
X100923957Y-25751541D01*
X100910477Y-25769109D01*
X100899609Y-25781501D01*
X97663497Y-29017613D01*
X97651106Y-29028480D01*
X97626987Y-29046987D01*
X97582495Y-29104971D01*
X97533266Y-29169127D01*
X97530106Y-29176757D01*
X97516010Y-29210787D01*
X97506496Y-29233757D01*
X97474350Y-29311363D01*
X97464784Y-29384026D01*
X97454255Y-29464000D01*
X97455333Y-29472188D01*
X97458222Y-29494133D01*
X97459300Y-29510579D01*
X97459300Y-148797422D01*
X97458222Y-148813869D01*
X97454255Y-148844000D01*
X97028000Y-148844000D01*
X97028000Y-24256000D01*
X97048002Y-24187879D01*
X97101658Y-24141386D01*
X97154000Y-24130000D01*
X146686000Y-24130000D01*
X146754121Y-24150002D01*
G37*
%TD.AperFunction*%
%TA.AperFunction,Conductor*%
G36*
X100361212Y-109570557D02*
G01*
X100367795Y-109576686D01*
X100391612Y-109600503D01*
X100402479Y-109612893D01*
X100420987Y-109637013D01*
X100451651Y-109660542D01*
X100451652Y-109660543D01*
X100543127Y-109730734D01*
X100685363Y-109789650D01*
X100838000Y-109809746D01*
X100868138Y-109805778D01*
X100884585Y-109804700D01*
X117577124Y-109804700D01*
X117645245Y-109824702D01*
X117691738Y-109878358D01*
X117701842Y-109948632D01*
X117680338Y-110002970D01*
X117667058Y-110021936D01*
X117661576Y-110031430D01*
X117567208Y-110233804D01*
X117563462Y-110244096D01*
X117505669Y-110459782D01*
X117503766Y-110470577D01*
X117484304Y-110693025D01*
X117484304Y-110703975D01*
X117503766Y-110926423D01*
X117505669Y-110937218D01*
X117563462Y-111152904D01*
X117567208Y-111163196D01*
X117661576Y-111365570D01*
X117667059Y-111375066D01*
X117708191Y-111433808D01*
X117718668Y-111442183D01*
X117732116Y-111435114D01*
X118738845Y-110428385D01*
X118801157Y-110394359D01*
X118871972Y-110399424D01*
X118917035Y-110428385D01*
X119924486Y-111435836D01*
X119936261Y-111442266D01*
X119948276Y-111432970D01*
X119988821Y-111375066D01*
X119994304Y-111365570D01*
X120088672Y-111163196D01*
X120092418Y-111152904D01*
X120150211Y-110937218D01*
X120152114Y-110926423D01*
X120171576Y-110703975D01*
X120171576Y-110693025D01*
X120152114Y-110470577D01*
X120150211Y-110459782D01*
X120092418Y-110244096D01*
X120088672Y-110233804D01*
X119994304Y-110031430D01*
X119988822Y-110021936D01*
X119975542Y-110002970D01*
X119952855Y-109935696D01*
X119970141Y-109866835D01*
X120021911Y-109818252D01*
X120078756Y-109804700D01*
X123055060Y-109804700D01*
X123123181Y-109824702D01*
X123144155Y-109841605D01*
X123508060Y-110205510D01*
X123542086Y-110267822D01*
X123540672Y-110327216D01*
X123505175Y-110459695D01*
X123503751Y-110465010D01*
X123483323Y-110698500D01*
X123503751Y-110931990D01*
X123564413Y-111158386D01*
X123566735Y-111163366D01*
X123566736Y-111163368D01*
X123661142Y-111365821D01*
X123661145Y-111365826D01*
X123663468Y-111370808D01*
X123666624Y-111375315D01*
X123666625Y-111375317D01*
X123794742Y-111558287D01*
X123797904Y-111562803D01*
X123963637Y-111728536D01*
X123968145Y-111731693D01*
X123968148Y-111731695D01*
X124048292Y-111787812D01*
X124155631Y-111862972D01*
X124160613Y-111865295D01*
X124160618Y-111865298D01*
X124362060Y-111959232D01*
X124368054Y-111962027D01*
X124373362Y-111963449D01*
X124373364Y-111963450D01*
X124589135Y-112021265D01*
X124589136Y-112021265D01*
X124594450Y-112022689D01*
X124827940Y-112043117D01*
X125061430Y-112022689D01*
X125066744Y-112021265D01*
X125066745Y-112021265D01*
X125282516Y-111963450D01*
X125282518Y-111963449D01*
X125287826Y-111962027D01*
X125293820Y-111959232D01*
X125495262Y-111865298D01*
X125495267Y-111865295D01*
X125500249Y-111862972D01*
X125607588Y-111787812D01*
X125687732Y-111731695D01*
X125687735Y-111731693D01*
X125692243Y-111728536D01*
X125857976Y-111562803D01*
X125861135Y-111558292D01*
X125861139Y-111558287D01*
X125932087Y-111456962D01*
X125987544Y-111412633D01*
X126058163Y-111405324D01*
X126121524Y-111437354D01*
X126157509Y-111498556D01*
X126161300Y-111529232D01*
X126161300Y-114513620D01*
X126141298Y-114581741D01*
X126124395Y-114602715D01*
X123492715Y-117234395D01*
X123430403Y-117268421D01*
X123403620Y-117271300D01*
X115010700Y-117271300D01*
X114942579Y-117251298D01*
X114896086Y-117197642D01*
X114884700Y-117145300D01*
X114884700Y-116099172D01*
X114885778Y-116082725D01*
X114888668Y-116060774D01*
X114889746Y-116052586D01*
X114869650Y-115899949D01*
X114810734Y-115757713D01*
X114740543Y-115666238D01*
X114740542Y-115666237D01*
X114717013Y-115635573D01*
X114692893Y-115617065D01*
X114680503Y-115606198D01*
X113647794Y-114573490D01*
X113613769Y-114511178D01*
X113615182Y-114451784D01*
X113650679Y-114319305D01*
X113650679Y-114319304D01*
X113652103Y-114313990D01*
X113672531Y-114080500D01*
X113652103Y-113847010D01*
X113591441Y-113620614D01*
X113589118Y-113615632D01*
X113494712Y-113413179D01*
X113494709Y-113413174D01*
X113492386Y-113408192D01*
X113357950Y-113216197D01*
X113192217Y-113050464D01*
X113187709Y-113047307D01*
X113187706Y-113047305D01*
X113107562Y-112991188D01*
X113000223Y-112916028D01*
X112995241Y-112913705D01*
X112995236Y-112913702D01*
X112792782Y-112819296D01*
X112792780Y-112819295D01*
X112787800Y-112816973D01*
X112782492Y-112815551D01*
X112782490Y-112815550D01*
X112566719Y-112757735D01*
X112566718Y-112757735D01*
X112561404Y-112756311D01*
X112327914Y-112735883D01*
X112094424Y-112756311D01*
X112089110Y-112757735D01*
X112089109Y-112757735D01*
X111873338Y-112815550D01*
X111873336Y-112815551D01*
X111868028Y-112816973D01*
X111863048Y-112819295D01*
X111863046Y-112819296D01*
X111660593Y-112913702D01*
X111660588Y-112913705D01*
X111655606Y-112916028D01*
X111651099Y-112919184D01*
X111651097Y-112919185D01*
X111468122Y-113047305D01*
X111468119Y-113047307D01*
X111463611Y-113050464D01*
X111297878Y-113216197D01*
X111163442Y-113408192D01*
X111161119Y-113413174D01*
X111161116Y-113413179D01*
X111066710Y-113615632D01*
X111064387Y-113620614D01*
X111003725Y-113847010D01*
X110983297Y-114080500D01*
X111003725Y-114313990D01*
X111064387Y-114540386D01*
X111066709Y-114545366D01*
X111066710Y-114545368D01*
X111161116Y-114747821D01*
X111161119Y-114747826D01*
X111163442Y-114752808D01*
X111166598Y-114757315D01*
X111166599Y-114757317D01*
X111282726Y-114923163D01*
X111297878Y-114944803D01*
X111463611Y-115110536D01*
X111468119Y-115113693D01*
X111468122Y-115113695D01*
X111548266Y-115169812D01*
X111655605Y-115244972D01*
X111660587Y-115247295D01*
X111660592Y-115247298D01*
X111863046Y-115341704D01*
X111868028Y-115344027D01*
X111873336Y-115345449D01*
X111873338Y-115345450D01*
X112089109Y-115403265D01*
X112089110Y-115403265D01*
X112094424Y-115404689D01*
X112327914Y-115425117D01*
X112561404Y-115404689D01*
X112566718Y-115403265D01*
X112566719Y-115403265D01*
X112699197Y-115367768D01*
X112770174Y-115369458D01*
X112820904Y-115400380D01*
X113678396Y-116257873D01*
X113712421Y-116320185D01*
X113715300Y-116346968D01*
X113715300Y-117809421D01*
X113714222Y-117825867D01*
X113710255Y-117856000D01*
X113711333Y-117864188D01*
X113714222Y-117886133D01*
X113715300Y-117902579D01*
X113715300Y-118326925D01*
X113695298Y-118395046D01*
X113641642Y-118441539D01*
X113571368Y-118451643D01*
X113506788Y-118422149D01*
X113486087Y-118399196D01*
X113361109Y-118220708D01*
X113361107Y-118220705D01*
X113357950Y-118216197D01*
X113192217Y-118050464D01*
X113187709Y-118047307D01*
X113187706Y-118047305D01*
X113080415Y-117972179D01*
X113000223Y-117916028D01*
X112995241Y-117913705D01*
X112995236Y-117913702D01*
X112792782Y-117819296D01*
X112792780Y-117819295D01*
X112787800Y-117816973D01*
X112782492Y-117815551D01*
X112782490Y-117815550D01*
X112566719Y-117757735D01*
X112566718Y-117757735D01*
X112561404Y-117756311D01*
X112327914Y-117735883D01*
X112094424Y-117756311D01*
X112089110Y-117757735D01*
X112089109Y-117757735D01*
X111873338Y-117815550D01*
X111873336Y-117815551D01*
X111868028Y-117816973D01*
X111863048Y-117819295D01*
X111863046Y-117819296D01*
X111660593Y-117913702D01*
X111660588Y-117913705D01*
X111655606Y-117916028D01*
X111651099Y-117919184D01*
X111651097Y-117919185D01*
X111468122Y-118047305D01*
X111468119Y-118047307D01*
X111463611Y-118050464D01*
X111297878Y-118216197D01*
X111294721Y-118220705D01*
X111294719Y-118220708D01*
X111166599Y-118403683D01*
X111166598Y-118403685D01*
X111163442Y-118408192D01*
X111161119Y-118413174D01*
X111161116Y-118413179D01*
X111066710Y-118615632D01*
X111064387Y-118620614D01*
X111062965Y-118625922D01*
X111062964Y-118625924D01*
X111005149Y-118841695D01*
X111003725Y-118847010D01*
X110983297Y-119080500D01*
X111003725Y-119313990D01*
X111005149Y-119319304D01*
X111005149Y-119319305D01*
X111040646Y-119451784D01*
X111038956Y-119522761D01*
X111008034Y-119573490D01*
X110935834Y-119645690D01*
X110923443Y-119656558D01*
X110837376Y-119722598D01*
X110832350Y-119729148D01*
X110832346Y-119729152D01*
X110818866Y-119746720D01*
X110807998Y-119759112D01*
X109522715Y-121044395D01*
X109460403Y-121078421D01*
X109433620Y-121081300D01*
X100878380Y-121081300D01*
X100810259Y-121061298D01*
X100789285Y-121044395D01*
X100189605Y-120444715D01*
X100155579Y-120382403D01*
X100152700Y-120355620D01*
X100152700Y-120188821D01*
X105584148Y-120188821D01*
X105593444Y-120200836D01*
X105651348Y-120241381D01*
X105660843Y-120246864D01*
X105863218Y-120341232D01*
X105873510Y-120344978D01*
X106089196Y-120402771D01*
X106099991Y-120404674D01*
X106322439Y-120424136D01*
X106333389Y-120424136D01*
X106555837Y-120404674D01*
X106566632Y-120402771D01*
X106782318Y-120344978D01*
X106792610Y-120341232D01*
X106994985Y-120246864D01*
X107004480Y-120241381D01*
X107063221Y-120200250D01*
X107071597Y-120189771D01*
X107064529Y-120176325D01*
X106340726Y-119452522D01*
X106326782Y-119444908D01*
X106324949Y-119445039D01*
X106318334Y-119449290D01*
X105590578Y-120177046D01*
X105584148Y-120188821D01*
X100152700Y-120188821D01*
X100152700Y-119085975D01*
X104984278Y-119085975D01*
X105003740Y-119308423D01*
X105005643Y-119319218D01*
X105063436Y-119534904D01*
X105067182Y-119545196D01*
X105161550Y-119747570D01*
X105167033Y-119757066D01*
X105208165Y-119815808D01*
X105218642Y-119824183D01*
X105232090Y-119817114D01*
X105955892Y-119093312D01*
X105962270Y-119081632D01*
X106692322Y-119081632D01*
X106692453Y-119083465D01*
X106696704Y-119090080D01*
X107424460Y-119817836D01*
X107436235Y-119824266D01*
X107448250Y-119814970D01*
X107488795Y-119757066D01*
X107494278Y-119747570D01*
X107588646Y-119545196D01*
X107592392Y-119534904D01*
X107650185Y-119319218D01*
X107652088Y-119308423D01*
X107671550Y-119085975D01*
X107671550Y-119075025D01*
X107652088Y-118852577D01*
X107650185Y-118841782D01*
X107592392Y-118626096D01*
X107588646Y-118615804D01*
X107494278Y-118413430D01*
X107488795Y-118403934D01*
X107447663Y-118345192D01*
X107437186Y-118336817D01*
X107423738Y-118343886D01*
X106699936Y-119067688D01*
X106692322Y-119081632D01*
X105962270Y-119081632D01*
X105963506Y-119079368D01*
X105963375Y-119077535D01*
X105959124Y-119070920D01*
X105231368Y-118343164D01*
X105219593Y-118336734D01*
X105207578Y-118346030D01*
X105167033Y-118403934D01*
X105161550Y-118413430D01*
X105067182Y-118615804D01*
X105063436Y-118626096D01*
X105005643Y-118841782D01*
X105003740Y-118852577D01*
X104984278Y-119075025D01*
X104984278Y-119085975D01*
X100152700Y-119085975D01*
X100152700Y-117971228D01*
X105584231Y-117971228D01*
X105591300Y-117984676D01*
X106315102Y-118708478D01*
X106329046Y-118716092D01*
X106330879Y-118715961D01*
X106337494Y-118711710D01*
X107065250Y-117983954D01*
X107071680Y-117972179D01*
X107062384Y-117960164D01*
X107004480Y-117919619D01*
X106994985Y-117914136D01*
X106792610Y-117819768D01*
X106782318Y-117816022D01*
X106566632Y-117758229D01*
X106555837Y-117756326D01*
X106333389Y-117736864D01*
X106322439Y-117736864D01*
X106099991Y-117756326D01*
X106089196Y-117758229D01*
X105873510Y-117816022D01*
X105863218Y-117819768D01*
X105660844Y-117914136D01*
X105651348Y-117919619D01*
X105592606Y-117960751D01*
X105584231Y-117971228D01*
X100152700Y-117971228D01*
X100152700Y-114080500D01*
X104983297Y-114080500D01*
X105003725Y-114313990D01*
X105064387Y-114540386D01*
X105066709Y-114545366D01*
X105066710Y-114545368D01*
X105161116Y-114747821D01*
X105161119Y-114747826D01*
X105163442Y-114752808D01*
X105166598Y-114757315D01*
X105166599Y-114757317D01*
X105282726Y-114923163D01*
X105297878Y-114944803D01*
X105463611Y-115110536D01*
X105468119Y-115113693D01*
X105468122Y-115113695D01*
X105548266Y-115169812D01*
X105655605Y-115244972D01*
X105660587Y-115247295D01*
X105660592Y-115247298D01*
X105863046Y-115341704D01*
X105868028Y-115344027D01*
X105873336Y-115345449D01*
X105873338Y-115345450D01*
X106089109Y-115403265D01*
X106089110Y-115403265D01*
X106094424Y-115404689D01*
X106327914Y-115425117D01*
X106561404Y-115404689D01*
X106566718Y-115403265D01*
X106566719Y-115403265D01*
X106782490Y-115345450D01*
X106782492Y-115345449D01*
X106787800Y-115344027D01*
X106792782Y-115341704D01*
X106995236Y-115247298D01*
X106995241Y-115247295D01*
X107000223Y-115244972D01*
X107107562Y-115169812D01*
X107187706Y-115113695D01*
X107187709Y-115113693D01*
X107192217Y-115110536D01*
X107357950Y-114944803D01*
X107373103Y-114923163D01*
X107489229Y-114757317D01*
X107489230Y-114757315D01*
X107492386Y-114752808D01*
X107494709Y-114747826D01*
X107494712Y-114747821D01*
X107589118Y-114545368D01*
X107589119Y-114545366D01*
X107591441Y-114540386D01*
X107652103Y-114313990D01*
X107672531Y-114080500D01*
X107652103Y-113847010D01*
X107591441Y-113620614D01*
X107589118Y-113615632D01*
X107494712Y-113413179D01*
X107494709Y-113413174D01*
X107492386Y-113408192D01*
X107357950Y-113216197D01*
X107192217Y-113050464D01*
X107187709Y-113047307D01*
X107187706Y-113047305D01*
X107107562Y-112991188D01*
X107000223Y-112916028D01*
X106995241Y-112913705D01*
X106995236Y-112913702D01*
X106792782Y-112819296D01*
X106792780Y-112819295D01*
X106787800Y-112816973D01*
X106782492Y-112815551D01*
X106782490Y-112815550D01*
X106566719Y-112757735D01*
X106566718Y-112757735D01*
X106561404Y-112756311D01*
X106327914Y-112735883D01*
X106094424Y-112756311D01*
X106089110Y-112757735D01*
X106089109Y-112757735D01*
X105873338Y-112815550D01*
X105873336Y-112815551D01*
X105868028Y-112816973D01*
X105863048Y-112819295D01*
X105863046Y-112819296D01*
X105660593Y-112913702D01*
X105660588Y-112913705D01*
X105655606Y-112916028D01*
X105651099Y-112919184D01*
X105651097Y-112919185D01*
X105468122Y-113047305D01*
X105468119Y-113047307D01*
X105463611Y-113050464D01*
X105297878Y-113216197D01*
X105163442Y-113408192D01*
X105161119Y-113413174D01*
X105161116Y-113413179D01*
X105066710Y-113615632D01*
X105064387Y-113620614D01*
X105003725Y-113847010D01*
X104983297Y-114080500D01*
X100152700Y-114080500D01*
X100152700Y-111806821D01*
X118084174Y-111806821D01*
X118093470Y-111818836D01*
X118151374Y-111859381D01*
X118160869Y-111864864D01*
X118363244Y-111959232D01*
X118373536Y-111962978D01*
X118589222Y-112020771D01*
X118600017Y-112022674D01*
X118822465Y-112042136D01*
X118833415Y-112042136D01*
X119055863Y-112022674D01*
X119066658Y-112020771D01*
X119282344Y-111962978D01*
X119292636Y-111959232D01*
X119495011Y-111864864D01*
X119504506Y-111859381D01*
X119563247Y-111818250D01*
X119571623Y-111807771D01*
X119564555Y-111794325D01*
X118840752Y-111070522D01*
X118826808Y-111062908D01*
X118824975Y-111063039D01*
X118818360Y-111067290D01*
X118090604Y-111795046D01*
X118084174Y-111806821D01*
X100152700Y-111806821D01*
X100152700Y-109665781D01*
X100172702Y-109597660D01*
X100226358Y-109551167D01*
X100296632Y-109541063D01*
X100361212Y-109570557D01*
G37*
%TD.AperFunction*%
M02*
