%FSLAX45Y45*%
G04 Gerber Fmt 4.5, Leading zero omitted, Abs format (unit mm)*
G04 Created by KiCad (PCBNEW (6.0.0)) date 2022-06-12 01:08:43*
%MOMM*%
%LPD*%
G01*
G04 APERTURE LIST*
%TA.AperFunction,Profile*%
%ADD10C,0.025400*%
%TD*%
%ADD11C,0.200000*%
%ADD12C,0.078740*%
G04 APERTURE END LIST*
D10*
X14732000Y-2362200D02*
X9652000Y-2362200D01*
X9652000Y-2362200D02*
X9652000Y-17602200D01*
X9652000Y-17602200D02*
X14732000Y-17602200D01*
X14732000Y-17602200D02*
X14732000Y-2362200D01*
D11*
D12*
X13592009Y-2728680D02*
X13670749Y-2807420D01*
X13670749Y-2728680D02*
X13592009Y-2807420D01*
X13592009Y-3744680D02*
X13670749Y-3823420D01*
X13670749Y-3744680D02*
X13592009Y-3823420D01*
X13592009Y-15708630D02*
X13670749Y-15787370D01*
X13670749Y-15708630D02*
X13592009Y-15787370D01*
X13592009Y-16724630D02*
X13670749Y-16803370D01*
X13670749Y-16724630D02*
X13592009Y-16803370D01*
X13846009Y-2728680D02*
X13924749Y-2807420D01*
X13924749Y-2728680D02*
X13846009Y-2807420D01*
X13846009Y-3744680D02*
X13924749Y-3823420D01*
X13924749Y-3744680D02*
X13846009Y-3823420D01*
X13846009Y-15708630D02*
X13924749Y-15787370D01*
X13924749Y-15708630D02*
X13846009Y-15787370D01*
X13846009Y-16724630D02*
X13924749Y-16803370D01*
X13924749Y-16724630D02*
X13846009Y-16803370D01*
D11*
X9908349Y-17913946D02*
X9908349Y-17713946D01*
X9955968Y-17713946D01*
X9984540Y-17723470D01*
X10003587Y-17742518D01*
X10013111Y-17761565D01*
X10022635Y-17799660D01*
X10022635Y-17828232D01*
X10013111Y-17866327D01*
X10003587Y-17885375D01*
X9984540Y-17904422D01*
X9955968Y-17913946D01*
X9908349Y-17913946D01*
X10108349Y-17913946D02*
X10108349Y-17780613D01*
X10108349Y-17818708D02*
X10117873Y-17799660D01*
X10127397Y-17790137D01*
X10146444Y-17780613D01*
X10165492Y-17780613D01*
X10232159Y-17913946D02*
X10232159Y-17780613D01*
X10232159Y-17713946D02*
X10222635Y-17723470D01*
X10232159Y-17732994D01*
X10241682Y-17723470D01*
X10232159Y-17713946D01*
X10232159Y-17732994D01*
X10355968Y-17913946D02*
X10336920Y-17904422D01*
X10327397Y-17885375D01*
X10327397Y-17713946D01*
X10460730Y-17913946D02*
X10441682Y-17904422D01*
X10432159Y-17885375D01*
X10432159Y-17713946D01*
X10689301Y-17913946D02*
X10689301Y-17713946D01*
X10755968Y-17856803D01*
X10822635Y-17713946D01*
X10822635Y-17913946D01*
X11003587Y-17913946D02*
X11003587Y-17809184D01*
X10994063Y-17790137D01*
X10975016Y-17780613D01*
X10936920Y-17780613D01*
X10917873Y-17790137D01*
X11003587Y-17904422D02*
X10984540Y-17913946D01*
X10936920Y-17913946D01*
X10917873Y-17904422D01*
X10908349Y-17885375D01*
X10908349Y-17866327D01*
X10917873Y-17847280D01*
X10936920Y-17837756D01*
X10984540Y-17837756D01*
X11003587Y-17828232D01*
X11098825Y-17780613D02*
X11098825Y-17980613D01*
X11098825Y-17790137D02*
X11117873Y-17780613D01*
X11155968Y-17780613D01*
X11175016Y-17790137D01*
X11184540Y-17799660D01*
X11194063Y-17818708D01*
X11194063Y-17875851D01*
X11184540Y-17894899D01*
X11175016Y-17904422D01*
X11155968Y-17913946D01*
X11117873Y-17913946D01*
X11098825Y-17904422D01*
X11279778Y-17894899D02*
X11289301Y-17904422D01*
X11279778Y-17913946D01*
X11270254Y-17904422D01*
X11279778Y-17894899D01*
X11279778Y-17913946D01*
X11279778Y-17790137D02*
X11289301Y-17799660D01*
X11279778Y-17809184D01*
X11270254Y-17799660D01*
X11279778Y-17790137D01*
X11279778Y-17809184D01*
D12*
X9571990Y-18204100D02*
X9650730Y-18282840D01*
X9650730Y-18204100D02*
X9571990Y-18282840D01*
D11*
X9946444Y-18133946D02*
X9965492Y-18133946D01*
X9984540Y-18143470D01*
X9994063Y-18152994D01*
X10003587Y-18172041D01*
X10013111Y-18210137D01*
X10013111Y-18257756D01*
X10003587Y-18295851D01*
X9994063Y-18314899D01*
X9984540Y-18324422D01*
X9965492Y-18333946D01*
X9946444Y-18333946D01*
X9927397Y-18324422D01*
X9917873Y-18314899D01*
X9908349Y-18295851D01*
X9898825Y-18257756D01*
X9898825Y-18210137D01*
X9908349Y-18172041D01*
X9917873Y-18152994D01*
X9927397Y-18143470D01*
X9946444Y-18133946D01*
X10098825Y-18314899D02*
X10108349Y-18324422D01*
X10098825Y-18333946D01*
X10089301Y-18324422D01*
X10098825Y-18314899D01*
X10098825Y-18333946D01*
X10175016Y-18133946D02*
X10308349Y-18133946D01*
X10222635Y-18333946D01*
X10413111Y-18219660D02*
X10394063Y-18210137D01*
X10384540Y-18200613D01*
X10375016Y-18181565D01*
X10375016Y-18172041D01*
X10384540Y-18152994D01*
X10394063Y-18143470D01*
X10413111Y-18133946D01*
X10451206Y-18133946D01*
X10470254Y-18143470D01*
X10479778Y-18152994D01*
X10489301Y-18172041D01*
X10489301Y-18181565D01*
X10479778Y-18200613D01*
X10470254Y-18210137D01*
X10451206Y-18219660D01*
X10413111Y-18219660D01*
X10394063Y-18229184D01*
X10384540Y-18238708D01*
X10375016Y-18257756D01*
X10375016Y-18295851D01*
X10384540Y-18314899D01*
X10394063Y-18324422D01*
X10413111Y-18333946D01*
X10451206Y-18333946D01*
X10470254Y-18324422D01*
X10479778Y-18314899D01*
X10489301Y-18295851D01*
X10489301Y-18257756D01*
X10479778Y-18238708D01*
X10470254Y-18229184D01*
X10451206Y-18219660D01*
X10555968Y-18133946D02*
X10689301Y-18133946D01*
X10603587Y-18333946D01*
X10765492Y-18333946D02*
X10765492Y-18200613D01*
X10765492Y-18219660D02*
X10775016Y-18210137D01*
X10794063Y-18200613D01*
X10822635Y-18200613D01*
X10841682Y-18210137D01*
X10851206Y-18229184D01*
X10851206Y-18333946D01*
X10851206Y-18229184D02*
X10860730Y-18210137D01*
X10879778Y-18200613D01*
X10908349Y-18200613D01*
X10927397Y-18210137D01*
X10936920Y-18229184D01*
X10936920Y-18333946D01*
X11032159Y-18333946D02*
X11032159Y-18200613D01*
X11032159Y-18219660D02*
X11041682Y-18210137D01*
X11060730Y-18200613D01*
X11089301Y-18200613D01*
X11108349Y-18210137D01*
X11117873Y-18229184D01*
X11117873Y-18333946D01*
X11117873Y-18229184D02*
X11127397Y-18210137D01*
X11146444Y-18200613D01*
X11175016Y-18200613D01*
X11194063Y-18210137D01*
X11203587Y-18229184D01*
X11203587Y-18333946D01*
X11594063Y-18124422D02*
X11422635Y-18381565D01*
X11851206Y-18133946D02*
X11870254Y-18133946D01*
X11889301Y-18143470D01*
X11898825Y-18152994D01*
X11908349Y-18172041D01*
X11917873Y-18210137D01*
X11917873Y-18257756D01*
X11908349Y-18295851D01*
X11898825Y-18314899D01*
X11889301Y-18324422D01*
X11870254Y-18333946D01*
X11851206Y-18333946D01*
X11832158Y-18324422D01*
X11822635Y-18314899D01*
X11813111Y-18295851D01*
X11803587Y-18257756D01*
X11803587Y-18210137D01*
X11813111Y-18172041D01*
X11822635Y-18152994D01*
X11832158Y-18143470D01*
X11851206Y-18133946D01*
X12003587Y-18314899D02*
X12013111Y-18324422D01*
X12003587Y-18333946D01*
X11994063Y-18324422D01*
X12003587Y-18314899D01*
X12003587Y-18333946D01*
X12136920Y-18133946D02*
X12155968Y-18133946D01*
X12175016Y-18143470D01*
X12184539Y-18152994D01*
X12194063Y-18172041D01*
X12203587Y-18210137D01*
X12203587Y-18257756D01*
X12194063Y-18295851D01*
X12184539Y-18314899D01*
X12175016Y-18324422D01*
X12155968Y-18333946D01*
X12136920Y-18333946D01*
X12117873Y-18324422D01*
X12108349Y-18314899D01*
X12098825Y-18295851D01*
X12089301Y-18257756D01*
X12089301Y-18210137D01*
X12098825Y-18172041D01*
X12108349Y-18152994D01*
X12117873Y-18143470D01*
X12136920Y-18133946D01*
X12270254Y-18133946D02*
X12394063Y-18133946D01*
X12327397Y-18210137D01*
X12355968Y-18210137D01*
X12375016Y-18219660D01*
X12384539Y-18229184D01*
X12394063Y-18248232D01*
X12394063Y-18295851D01*
X12384539Y-18314899D01*
X12375016Y-18324422D01*
X12355968Y-18333946D01*
X12298825Y-18333946D01*
X12279778Y-18324422D01*
X12270254Y-18314899D01*
X12584539Y-18333946D02*
X12470254Y-18333946D01*
X12527397Y-18333946D02*
X12527397Y-18133946D01*
X12508349Y-18162518D01*
X12489301Y-18181565D01*
X12470254Y-18191089D01*
X12708349Y-18133946D02*
X12727397Y-18133946D01*
X12746444Y-18143470D01*
X12755968Y-18152994D01*
X12765492Y-18172041D01*
X12775016Y-18210137D01*
X12775016Y-18257756D01*
X12765492Y-18295851D01*
X12755968Y-18314899D01*
X12746444Y-18324422D01*
X12727397Y-18333946D01*
X12708349Y-18333946D01*
X12689301Y-18324422D01*
X12679778Y-18314899D01*
X12670254Y-18295851D01*
X12660730Y-18257756D01*
X12660730Y-18210137D01*
X12670254Y-18172041D01*
X12679778Y-18152994D01*
X12689301Y-18143470D01*
X12708349Y-18133946D01*
X12851206Y-18133946D02*
X12851206Y-18172041D01*
X12927397Y-18133946D02*
X12927397Y-18172041D01*
X13222635Y-18410137D02*
X13213111Y-18400613D01*
X13194063Y-18372041D01*
X13184539Y-18352994D01*
X13175016Y-18324422D01*
X13165492Y-18276803D01*
X13165492Y-18238708D01*
X13175016Y-18191089D01*
X13184539Y-18162518D01*
X13194063Y-18143470D01*
X13213111Y-18114899D01*
X13222635Y-18105375D01*
X13327397Y-18219660D02*
X13308349Y-18210137D01*
X13298825Y-18200613D01*
X13289301Y-18181565D01*
X13289301Y-18172041D01*
X13298825Y-18152994D01*
X13308349Y-18143470D01*
X13327397Y-18133946D01*
X13365492Y-18133946D01*
X13384539Y-18143470D01*
X13394063Y-18152994D01*
X13403587Y-18172041D01*
X13403587Y-18181565D01*
X13394063Y-18200613D01*
X13384539Y-18210137D01*
X13365492Y-18219660D01*
X13327397Y-18219660D01*
X13308349Y-18229184D01*
X13298825Y-18238708D01*
X13289301Y-18257756D01*
X13289301Y-18295851D01*
X13298825Y-18314899D01*
X13308349Y-18324422D01*
X13327397Y-18333946D01*
X13365492Y-18333946D01*
X13384539Y-18324422D01*
X13394063Y-18314899D01*
X13403587Y-18295851D01*
X13403587Y-18257756D01*
X13394063Y-18238708D01*
X13384539Y-18229184D01*
X13365492Y-18219660D01*
X13641682Y-18333946D02*
X13641682Y-18133946D01*
X13727397Y-18333946D02*
X13727397Y-18229184D01*
X13717873Y-18210137D01*
X13698825Y-18200613D01*
X13670254Y-18200613D01*
X13651206Y-18210137D01*
X13641682Y-18219660D01*
X13851206Y-18333946D02*
X13832158Y-18324422D01*
X13822635Y-18314899D01*
X13813111Y-18295851D01*
X13813111Y-18238708D01*
X13822635Y-18219660D01*
X13832158Y-18210137D01*
X13851206Y-18200613D01*
X13879778Y-18200613D01*
X13898825Y-18210137D01*
X13908349Y-18219660D01*
X13917873Y-18238708D01*
X13917873Y-18295851D01*
X13908349Y-18314899D01*
X13898825Y-18324422D01*
X13879778Y-18333946D01*
X13851206Y-18333946D01*
X14032158Y-18333946D02*
X14013111Y-18324422D01*
X14003587Y-18305375D01*
X14003587Y-18133946D01*
X14184539Y-18324422D02*
X14165492Y-18333946D01*
X14127397Y-18333946D01*
X14108349Y-18324422D01*
X14098825Y-18305375D01*
X14098825Y-18229184D01*
X14108349Y-18210137D01*
X14127397Y-18200613D01*
X14165492Y-18200613D01*
X14184539Y-18210137D01*
X14194063Y-18229184D01*
X14194063Y-18248232D01*
X14098825Y-18267280D01*
X14270254Y-18324422D02*
X14289301Y-18333946D01*
X14327397Y-18333946D01*
X14346444Y-18324422D01*
X14355968Y-18305375D01*
X14355968Y-18295851D01*
X14346444Y-18276803D01*
X14327397Y-18267280D01*
X14298825Y-18267280D01*
X14279778Y-18257756D01*
X14270254Y-18238708D01*
X14270254Y-18229184D01*
X14279778Y-18210137D01*
X14298825Y-18200613D01*
X14327397Y-18200613D01*
X14346444Y-18210137D01*
X14422635Y-18410137D02*
X14432158Y-18400613D01*
X14451206Y-18372041D01*
X14460730Y-18352994D01*
X14470254Y-18324422D01*
X14479778Y-18276803D01*
X14479778Y-18238708D01*
X14470254Y-18191089D01*
X14460730Y-18162518D01*
X14451206Y-18143470D01*
X14432158Y-18114899D01*
X14422635Y-18105375D01*
X14784539Y-18410137D02*
X14775016Y-18400613D01*
X14755968Y-18372041D01*
X14746444Y-18352994D01*
X14736920Y-18324422D01*
X14727397Y-18276803D01*
X14727397Y-18238708D01*
X14736920Y-18191089D01*
X14746444Y-18162518D01*
X14755968Y-18143470D01*
X14775016Y-18114899D01*
X14784539Y-18105375D01*
X14860730Y-18200613D02*
X14860730Y-18333946D01*
X14860730Y-18219660D02*
X14870254Y-18210137D01*
X14889301Y-18200613D01*
X14917873Y-18200613D01*
X14936920Y-18210137D01*
X14946444Y-18229184D01*
X14946444Y-18333946D01*
X15070254Y-18333946D02*
X15051206Y-18324422D01*
X15041682Y-18314899D01*
X15032158Y-18295851D01*
X15032158Y-18238708D01*
X15041682Y-18219660D01*
X15051206Y-18210137D01*
X15070254Y-18200613D01*
X15098825Y-18200613D01*
X15117873Y-18210137D01*
X15127397Y-18219660D01*
X15136920Y-18238708D01*
X15136920Y-18295851D01*
X15127397Y-18314899D01*
X15117873Y-18324422D01*
X15098825Y-18333946D01*
X15070254Y-18333946D01*
X15194063Y-18200613D02*
X15270254Y-18200613D01*
X15222635Y-18133946D02*
X15222635Y-18305375D01*
X15232158Y-18324422D01*
X15251206Y-18333946D01*
X15270254Y-18333946D01*
X15489301Y-18200613D02*
X15489301Y-18400613D01*
X15489301Y-18210137D02*
X15508349Y-18200613D01*
X15546444Y-18200613D01*
X15565492Y-18210137D01*
X15575016Y-18219660D01*
X15584539Y-18238708D01*
X15584539Y-18295851D01*
X15575016Y-18314899D01*
X15565492Y-18324422D01*
X15546444Y-18333946D01*
X15508349Y-18333946D01*
X15489301Y-18324422D01*
X15698825Y-18333946D02*
X15679778Y-18324422D01*
X15670254Y-18305375D01*
X15670254Y-18133946D01*
X15860730Y-18333946D02*
X15860730Y-18229184D01*
X15851206Y-18210137D01*
X15832158Y-18200613D01*
X15794063Y-18200613D01*
X15775016Y-18210137D01*
X15860730Y-18324422D02*
X15841682Y-18333946D01*
X15794063Y-18333946D01*
X15775016Y-18324422D01*
X15765492Y-18305375D01*
X15765492Y-18286327D01*
X15775016Y-18267280D01*
X15794063Y-18257756D01*
X15841682Y-18257756D01*
X15860730Y-18248232D01*
X15927397Y-18200613D02*
X16003587Y-18200613D01*
X15955968Y-18133946D02*
X15955968Y-18305375D01*
X15965492Y-18324422D01*
X15984539Y-18333946D01*
X16003587Y-18333946D01*
X16146444Y-18324422D02*
X16127397Y-18333946D01*
X16089301Y-18333946D01*
X16070254Y-18324422D01*
X16060730Y-18305375D01*
X16060730Y-18229184D01*
X16070254Y-18210137D01*
X16089301Y-18200613D01*
X16127397Y-18200613D01*
X16146444Y-18210137D01*
X16155968Y-18229184D01*
X16155968Y-18248232D01*
X16060730Y-18267280D01*
X16327397Y-18333946D02*
X16327397Y-18133946D01*
X16327397Y-18324422D02*
X16308349Y-18333946D01*
X16270254Y-18333946D01*
X16251206Y-18324422D01*
X16241682Y-18314899D01*
X16232158Y-18295851D01*
X16232158Y-18238708D01*
X16241682Y-18219660D01*
X16251206Y-18210137D01*
X16270254Y-18200613D01*
X16308349Y-18200613D01*
X16327397Y-18210137D01*
X16403587Y-18410137D02*
X16413111Y-18400613D01*
X16432158Y-18372041D01*
X16441682Y-18352994D01*
X16451206Y-18324422D01*
X16460730Y-18276803D01*
X16460730Y-18238708D01*
X16451206Y-18191089D01*
X16441682Y-18162518D01*
X16432158Y-18143470D01*
X16413111Y-18114899D01*
X16403587Y-18105375D01*
M02*
